SplineFontDB: 3.0
FontName: Nobile
FullName: Nobile
FamilyName: Nobile
Weight: Regular
Copyright: Copyright (c) 2007-2012 by vernon adams. All rights reserved.
Version: 2.0
ItalicAngle: 0
UnderlinePosition: -352
UnderlineWidth: 40
Ascent: 1638
Descent: 410
UFOAscent: 1638
UFODescent: -410
LayerCount: 2
Layer: 0 0 "Back"  1
Layer: 1 0 "Fore"  0
OS2Version: 0
OS2_WeightWidthSlopeOnly: 0
OS2_UseTypoMetrics: 0
CreationTime: 1384804339
ModificationTime: 1384804387
PfmFamily: 0
TTFWeight: 400
TTFWidth: 5
LineGap: 0
VLineGap: 0
Panose: 2 0 3 3 0 0 0 0 0 0
OS2TypoAscent: 1638
OS2TypoAOffset: 0
OS2TypoDescent: -410
OS2TypoDOffset: 0
OS2TypoLinegap: 0
OS2WinAscent: 2376
OS2WinAOffset: 0
OS2WinDescent: 673
OS2WinDOffset: 0
HheadAscent: 0
HheadAOffset: 1
HheadDescent: 0
HheadDOffset: 1
OS2SubXSize: 1331
OS2SubYSize: 1433
OS2SubXOff: 0
OS2SubYOff: 286
OS2SupXSize: 1331
OS2SupYSize: 1433
OS2SupXOff: 0
OS2SupYOff: 983
OS2StrikeYSize: 102
OS2StrikeYPos: 530
OS2Vendor: 'newt'
OS2CodePages: 00000001.00000000
OS2UnicodeRanges: 00000087.0000000e.00000000.00000000
Lookup: 4 0 1 "ligaStandardLigatureslookup0"  {"ligaStandardLigatureslookup0 subtable"  } ['liga' ('latn' <'dflt' > 'DFLT' <'dflt' > ) ]
Lookup: 258 0 0 "kernHorizontalKerninginLatinloo"  {"kernHorizontalKerninginLatinloo per glyph data 0"  "kernHorizontalKerninginLatinloo kerning class 1"  } ['kern' ('latn' <'dflt' > 'DFLT' <'dflt' > ) ]
MarkAttachClasses: 1
DEI: 91125
KernClass2: 28 26 "kernHorizontalKerninginLatinloo kerning class 1" 
 81 A Aacute Abreve Acircumflex Adieresis Agrave Amacron Aogonek Aring Atilde uni0202
 1 B
 75 D Eth O Oacute Ocircumflex Odieresis Ograve Oslash Otilde Q uni020C uni020E
 1 F
 1 K
 1 L
 1 P
 44 R Racute Rcaron Rcommaaccent uni0210 uni0212
 22 T Tcommaaccent uni021A
 1 V
 1 W
 18 Y Yacute Ydieresis
 1 a
 69 b o oacute ocircumflex odieresis ograve oslash otilde p thorn uni020F
 1 c
 1 e
 4 f ff
 1 g
 27 k kcommaaccent kgreenlandic
 29 r rcaron rcommaaccent uni0213
 1 s

StartChar: .notdef
Encoding: 65536 -1 0
Width: 1068
VWidth: 0
Flags: W
PickledData: "(dp1
S'org.pippin.gimp.org.kernagic'
p2
(dp3
S'lstem'
p4
I0
ss."
HStem: 0 68<325 733> 1297 68<325 733>
VStem: 257 68<68 1297> 733 68<68 1297>
LayerCount: 2
Fore
SplineSet
257 0 m 1
 257 1365 l 1
 801 1365 l 1
 801 0 l 1
 257 0 l 1
325 68 m 1
 733 68 l 1
 733 1297 l 1
 325 1297 l 1
 325 68 l 1
EndSplineSet
Validated: 1
EndChar

StartChar: A
Encoding: 65 65 1
Width: 1416
VWidth: 0
GlyphClass: 2
Flags: W
PickledData: "(dp1
S'org.pippin.gimp.org.kernagic'
p2
(dp3
S'lstem'
p4
I0
ss."
HStem: 0 21G<37 236.423 1169.58 1369> 383 102<386 1020> 1559 20G<546.464 859.536>
LayerCount: 2
Fore
SplineSet
386 485 m 1
 1020 485 l 1
 703 1460 l 1
 386 485 l 1
37 0 m 1
 553 1579 l 1
 853 1579 l 1
 1369 0 l 1
 1176 0 l 1
 1053 383 l 1
 353 383 l 1
 230 0 l 1
 37 0 l 1
EndSplineSet
Validated: 1
EndChar

StartChar: AE
Encoding: 198 198 2
Width: 1764
VWidth: 0
GlyphClass: 2
Flags: W
PickledData: "(dp1
S'org.pippin.gimp.org.kernagic'
p2
(dp3
S'lstem'
p4
I0
ss."
HStem: 0 143<1069 1743> 371 122<412 902> 764 127<1069 1672> 1436 143<1067 1715>
VStem: 902 167<143 371 493 764 891 1436>
LayerCount: 2
Fore
SplineSet
412 493 m 1
 902 493 l 1
 902 1459 l 1
 412 493 l 1
-44 0 m 1
 777 1579 l 1
 1715 1579 l 1
 1715 1436 l 1
 1067 1436 l 1
 1067 891 l 1
 1672 891 l 1
 1672 764 l 1
 1069 764 l 1
 1069 143 l 1
 1743 143 l 1
 1743 0 l 1
 904 0 l 1
 904 371 l 1
 352 371 l 1
 160 0 l 1
 -44 0 l 1
EndSplineSet
Validated: 1
EndChar

StartChar: B
Encoding: 66 66 12
Width: 1440
VWidth: 0
GlyphClass: 2
Flags: W
PickledData: "(dp1
S'org.pippin.gimp.org.kernagic'
p2
(dp3
S'lstem'
p4
I0
ssS'com.typemytype.robofont.layerData'
p5
(dp6
S'b'
(dp7
S'name'
p8
S'B'
sS'lib'
p9
(dp10
sS'unicodes'
p11
(tsS'width'
p12
I1354
sS'contours'
p13
(tsS'components'
p14
(tsS'anchors'
p15
(tsss."
HStem: 0 143<376 954.375> 784 129<376 876.136> 1436 143<376 915.88>
VStem: 182 194<143 784 913 1436> 1055 165<1030.81 1327.39> 1120 182<290.725 641.611>
LayerCount: 2
Fore
SplineSet
376 913 m 1xf8
 635 913 l 2
 842 913 1055 935 1055 1188 c 0
 1055 1425 795 1436 605 1436 c 0
 585 1436 565 1436 547 1436 c 2
 376 1436 l 1
 376 913 l 1xf8
376 143 m 1
 602 143 l 2
 851 143 1120 152 1120 466 c 0xf4
 1120 759 877 784 639 784 c 2
 376 784 l 1
 376 143 l 1
182 0 m 1
 182 1579 l 1
 543 1579 l 2
 842 1579 1220 1570 1220 1188 c 0xf8
 1220 976 1088 888 886 858 c 1
 1142 829 1302 699 1302 434 c 0
 1302 46 903 0 602 0 c 2
 182 0 l 1
EndSplineSet
Validated: 1
EndChar

StartChar: C
Encoding: 67 67 13
Width: 1392
VWidth: 0
GlyphClass: 2
Flags: W
PickledData: "(dp1
S'org.pippin.gimp.org.kernagic'
p2
(dp3
S'lstem'
p4
I0
ssS'com.typemytype.robofont.layerData'
p5
(dp6
S'b'
(dp7
S'name'
p8
S'C'
sS'lib'
p9
(dp10
sS'unicodes'
p11
(tsS'width'
p12
I1290
sS'contours'
p13
(tsS'components'
p14
(tsS'anchors'
p15
(tsss."
HStem: -20 152<626.026 1072.11> 1447 152<638.947 1074.76>
VStem: 154 194<458.276 1096.09>
LayerCount: 2
Fore
SplineSet
838 -20 m 0
 334 -20 154 348 154 788 c 0
 154 1252 358 1599 854 1599 c 0
 1026 1599 1157 1538 1242 1482 c 1
 1182 1352 l 1
 1108 1397 984 1447 854 1447 c 0
 463 1447 348 1119 348 784 c 0
 348 452 452 132 846 132 c 0
 977 132 1108 181 1208 241 c 1
 1271 110 l 1
 1148 34 1006 -20 838 -20 c 0
EndSplineSet
Validated: 1
EndChar

StartChar: D
Encoding: 68 68 19
Width: 1560
VWidth: 0
GlyphClass: 2
Flags: W
PickledData: "(dp1
S'org.pippin.gimp.org.kernagic'
p2
(dp3
S'lstem'
p4
I0
ssS'com.typemytype.robofont.layerData'
p5
(dp6
s."
HStem: 0 143<383 931.677> 1436 143<383 932.011>
VStem: 189 194<143 1436> 1201 194<456.332 1120.63>
LayerCount: 2
Fore
SplineSet
189 0 m 1
 189 1579 l 1
 722 1579 l 2
 1219 1579 1395 1238 1395 788 c 0
 1395 338 1218 0 722 0 c 2
 189 0 l 1
383 143 m 1
 722 143 l 2
 1115 143 1201 465 1201 789 c 0
 1201 1111 1111 1436 722 1436 c 2
 383 1436 l 1
 383 143 l 1
EndSplineSet
Validated: 1
EndChar

StartChar: Dcroat
Encoding: 272 272 21
Width: 1572
VWidth: 0
GlyphClass: 2
Flags: W
PickledData: "(dp1
S'org.pippin.gimp.org.kernagic'
p2
(dp3
S'lstem'
p4
I0
ss."
HStem: 0 143<393 960.759> 764 131<37 199 393 627> 1436 143<393 959.758>
VStem: 199 194<143 764 895 1436> 1210 201<441.069 1134.41>
LayerCount: 2
Fore
SplineSet
199 0 m 1
 199 764 l 1
 37 764 l 1
 37 895 l 1
 199 895 l 1
 199 1579 l 1
 752 1579 l 2
 1245 1579 1411 1231 1411 788 c 0
 1411 338 1248 0 752 0 c 2
 199 0 l 1
393 143 m 1
 752 143 l 2
 1145 143 1210 465 1210 789 c 0
 1210 1111 1141 1436 752 1436 c 2
 393 1436 l 1
 393 895 l 1
 627 895 l 1
 627 764 l 1
 393 764 l 1
 393 143 l 1
EndSplineSet
Validated: 1
EndChar

StartChar: E
Encoding: 69 69 22
Width: 1284
VWidth: 0
GlyphClass: 2
Flags: W
PickledData: "(dp1
S'org.pippin.gimp.org.kernagic'
p2
(dp3
S'lstem'
p4
I0
ssS'com.typemytype.robofont.layerData'
p5
(dp6
s."
HStem: 0 143<383 1147> 776 115<383 1036> 1436 143<383 1134>
VStem: 189 194<143 776 891 1436>
LayerCount: 2
Fore
SplineSet
189 0 m 1
 189 1579 l 1
 1134 1579 l 1
 1134 1436 l 1
 383 1436 l 1
 383 891 l 1
 1036 891 l 1
 1036 776 l 1
 383 776 l 1
 383 143 l 1
 1147 143 l 1
 1147 0 l 1
 189 0 l 1
EndSplineSet
Validated: 1
EndChar

StartChar: Eth
Encoding: 208 208 31
Width: 1572
VWidth: 0
GlyphClass: 2
Flags: W
PickledData: "(dp1
S'org.pippin.gimp.org.kernagic'
p2
(dp3
S'lstem'
p4
I0
ss."
HStem: 0 143<393 960.759> 764 131<37 199 393 627> 1436 143<393 959.758>
VStem: 199 194<143 764 895 1436> 1210 201<441.069 1134.41>
LayerCount: 2
Fore
SplineSet
199 0 m 1
 199 764 l 1
 37 764 l 1
 37 895 l 1
 199 895 l 1
 199 1579 l 1
 752 1579 l 2
 1245 1579 1411 1231 1411 788 c 0
 1411 338 1248 0 752 0 c 2
 199 0 l 1
393 143 m 1
 752 143 l 2
 1145 143 1210 465 1210 789 c 0
 1210 1111 1141 1436 752 1436 c 2
 393 1436 l 1
 393 895 l 1
 627 895 l 1
 627 764 l 1
 393 764 l 1
 393 143 l 1
EndSplineSet
Validated: 1
EndChar

StartChar: Euro
Encoding: 8364 8364 32
Width: 1200
VWidth: 0
GlyphClass: 2
Flags: W
PickledData: "(dp1
S'org.pippin.gimp.org.kernagic'
p2
(dp3
S'lstem'
p4
I0
ss."
HStem: -38 140<577.319 953.131> 574 122<81 241 415 768> 809 122<65 245 431 825> 1308 131<583.531 1008.62>
VStem: 245 169<328.849 574 696 809> 269 162<931 1139.89>
LayerCount: 2
Fore
SplineSet
700 -38 m 0xf8
 386 -38 255 312 245 574 c 1
 81 574 l 1
 81 696 l 1
 241 696 l 1
 245 809 l 1xf8
 65 809 l 1
 65 931 l 1
 269 931 l 1
 288 1238 449 1439 770 1439 c 0
 869 1439 986 1422 1075 1376 c 1
 1032 1254 l 1
 951 1288 855 1308 767 1308 c 0
 532 1308 431 1152 431 931 c 1xf4
 825 931 l 1
 825 809 l 1
 420 809 l 1
 415 772 416 733 415 696 c 1
 768 696 l 1
 768 574 l 1
 414 574 l 1
 414 369 480 102 733 102 c 0
 825 102 938 130 1018 178 c 1
 1070 55 l 1
 979 -13 808 -38 700 -38 c 0xf8
EndSplineSet
Validated: 1
EndChar

StartChar: F
Encoding: 70 70 33
Width: 1236
VWidth: 0
GlyphClass: 2
Flags: W
PickledData: "(dp1
S'org.pippin.gimp.org.kernagic'
p2
(dp3
S'lstem'
p4
I0
ssS'com.typemytype.robofont.layerData'
p5
(dp6
s."
HStem: 0 21G<196 392> 762 117<392 1047> 1436 143<392 1108>
VStem: 196 196<0 762 879 1436>
LayerCount: 2
Fore
SplineSet
196 0 m 1
 196 1579 l 1
 1108 1579 l 1
 1108 1436 l 1
 392 1436 l 1
 392 879 l 1
 1047 879 l 1
 1047 762 l 1
 392 762 l 1
 392 0 l 1
 196 0 l 1
EndSplineSet
Validated: 1
EndChar

StartChar: G
Encoding: 71 71 34
Width: 1572
VWidth: 0
GlyphClass: 2
Flags: W
PickledData: "(dp1
S'org.pippin.gimp.org.kernagic'
p2
(dp3
S'lstem'
p4
I0
ssS'com.typemytype.robofont.layerData'
p5
(dp6
S'b'
(dp7
S'name'
p8
S'G'
sS'lib'
p9
(dp10
sS'unicodes'
p11
(tsS'width'
p12
I1460
sS'contours'
p13
((dp14
S'points'
p15
((dp16
S'segmentType'
p17
S'curve'
p18
sS'x'
F814
sS'smooth'
p19
I01
sS'y'
F1458
s(dp20
S'y'
F1458
sS'x'
F410
sg19
I00
s(dp21
S'y'
F1119
sS'x'
F308
sg19
I00
s(dp22
g17
S'curve'
p23
sS'x'
F308
sg19
I01
sS'y'
F784
s(dp24
S'y'
F452
sS'x'
F308
sg19
I00
s(dp25
S'y'
F111
sS'x'
F406
sg19
I00
s(dp26
g17
S'curve'
p27
sS'x'
F806
sg19
I01
sS'y'
F111
s(dp28
S'y'
F111
sS'x'
F937
sg19
I00
s(dp29
S'y'
F153
sS'x'
F1059
sg19
I00
s(dp30
g17
S'curve'
p31
sS'x'
F1169
sg19
I00
sS'y'
F215
s(dp32
g17
S'line'
p33
sS'x'
F1231
sg19
I00
sS'y'
F89
s(dp34
S'y'
F13
sS'x'
F1108
sg19
I00
s(dp35
S'y'
F-41
sS'x'
F962
sg19
I00
s(dp36
g17
S'curve'
p37
sS'x'
F794
sg19
I01
sS'y'
F-41
s(dp38
S'y'
F-41
sS'x'
F290
sg19
I00
s(dp39
S'y'
F348
sS'x'
F114
sg19
I00
s(dp40
g17
S'curve'
p41
sS'x'
F114
sg19
I01
sS'y'
F788
s(dp42
S'y'
F1252
sS'x'
F114
sg19
I00
s(dp43
S'y'
F1610
sS'x'
F311
sg19
I00
s(dp44
g17
S'curve'
p45
sS'x'
F814
sg19
I01
sS'y'
F1610
s(dp46
S'y'
F1610
sS'x'
F986
sg19
I00
s(dp47
S'y'
F1548
sS'x'
F1117
sg19
I00
s(dp48
g17
S'curve'
p49
sS'x'
F1202
sg19
I00
sS'y'
F1492
s(dp50
g17
S'line'
p51
sS'x'
F1144
sg19
I00
sS'y'
F1364
s(dp52
S'y'
F1409
sS'x'
F1070
sg19
I00
s(dp53
S'y'
F1458
sS'x'
F944
sg19
I00
stp54
stp55
sS'components'
p56
(tsS'anchors'
p57
(tsss."
HStem: -41 152<610.981 1042.11> 0 21G<1293.02 1386> 684 127<799 1201> 1458 152<630.266 1080.7>
VStem: 147 194<451.909 1110.41> 1201 185<249.32 684> 1298 88<0 57.6145>
LayerCount: 2
Fore
SplineSet
778 -41 m 0xba
 317 -41 147 388 147 786 c 0
 147 1243 343 1610 842 1610 c 0
 1006 1610 1137 1562 1273 1476 c 1
 1206 1343 l 1
 1112 1422 959 1458 840 1458 c 0
 437 1458 341 1112 341 782 c 0
 341 449 420 111 825 111 c 0
 1011 111 1201 183 1201 399 c 2
 1201 684 l 1xbc
 799 684 l 1
 799 811 l 1
 1386 811 l 1
 1386 0 l 1
 1298 0 l 1x7a
 1245 213 l 1
 1195 10 958 -41 778 -41 c 0xba
EndSplineSet
Validated: 1
EndChar

StartChar: H
Encoding: 72 72 39
Width: 1608
VWidth: 0
GlyphClass: 2
Flags: W
PickledData: "(dp1
S'org.pippin.gimp.org.kernagic'
p2
(dp3
S'lstem'
p4
I0
ssS'com.typemytype.robofont.layerData'
p5
(dp6
s."
HStem: 0 21G<189 383 1215 1409> 764 115<383 1215> 1559 20G<189 383 1215 1409>
VStem: 189 194<0 764 879 1579> 1215 194<0 764 879 1579>
LayerCount: 2
Fore
SplineSet
189 0 m 1
 189 1579 l 1
 383 1579 l 1
 383 879 l 1
 1215 879 l 1
 1215 1579 l 1
 1409 1579 l 1
 1409 0 l 1
 1215 0 l 1
 1215 764 l 1
 383 764 l 1
 383 0 l 1
 189 0 l 1
EndSplineSet
Validated: 1
EndChar

StartChar: Hbar
Encoding: 294 294 40
Width: 1608
VWidth: 0
GlyphClass: 2
Flags: W
PickledData: "(dp1
S'org.pippin.gimp.org.kernagic'
p2
(dp3
S'lstem'
p4
I0
ss."
HStem: 0 21G<189 383 1215 1409> 764 115<383 1215> 1559 20G<189 383 1215 1409>
VStem: 189 194<0 764 879 1579> 1215 194<0 764 879 1579>
LayerCount: 2
Fore
SplineSet
189 0 m 1
 189 1579 l 1
 383 1579 l 1
 383 879 l 1
 1215 879 l 1
 1215 1579 l 1
 1409 1579 l 1
 1409 0 l 1
 1215 0 l 1
 1215 764 l 1
 383 764 l 1
 383 0 l 1
 189 0 l 1
EndSplineSet
Validated: 1
EndChar

StartChar: I
Encoding: 73 73 42
Width: 1020
VWidth: 0
GlyphClass: 2
Flags: W
PickledData: "(dp1
S'org.pippin.gimp.org.kernagic'
p2
(dp3
S'lstem'
p4
I0
ssS'com.typemytype.robofont.layerData'
p5
(dp6
s."
HStem: 0 112<209 413 596 802> 1461 118<209 413 596 802>
VStem: 413 183<112 1461>
LayerCount: 2
Fore
SplineSet
209 0 m 1
 209 112 l 1
 413 112 l 1
 413 1461 l 1
 209 1461 l 1
 209 1579 l 1
 802 1579 l 1
 802 1461 l 1
 596 1461 l 1
 596 112 l 1
 802 112 l 1
 802 0 l 1
 209 0 l 1
EndSplineSet
Validated: 1
EndChar

StartChar: IJ
Encoding: 306 306 43
Width: 1476
VWidth: 0
GlyphClass: 2
Flags: W
PickledData: "(dp1
S'org.pippin.gimp.org.kernagic'
p2
(dp3
S'lstem'
p4
I0
ss."
HStem: -90 127<821 936.851> 0 112<10 214 397 603> 1461 118<10 214 397 603>
VStem: 214 183<112 1461> 1096 192<182.955 1579>
LayerCount: 2
Fore
SplineSet
821 -90 m 1xb8
 774 37 l 1
 1082 83 1096 203 1096 479 c 2
 1096 1579 l 1
 1288 1579 l 1
 1288 514 l 2
 1288 168 1229 -90 821 -90 c 1xb8
10 0 m 1x78
 10 112 l 1
 214 112 l 1
 214 1461 l 1
 10 1461 l 1
 10 1579 l 1
 603 1579 l 1
 603 1461 l 1
 397 1461 l 1
 397 112 l 1
 603 112 l 1
 603 0 l 1
 10 0 l 1x78
EndSplineSet
Validated: 1
EndChar

StartChar: J
Encoding: 74 74 53
Width: 816
VWidth: 0
GlyphClass: 2
Flags: W
PickledData: "(dp1
S'org.pippin.gimp.org.kernagic'
p2
(dp3
S'lstem'
p4
I220
ssS'com.typemytype.robofont.layerData'
p5
(dp6
s."
HStem: -90 127<126 241.851> 1559 20G<401 593>
VStem: 401 192<182.955 1579>
LayerCount: 2
Fore
SplineSet
126 -90 m 1
 79 37 l 1
 387 83 401 203 401 479 c 2
 401 1579 l 1
 593 1579 l 1
 593 514 l 2
 593 168 534 -90 126 -90 c 1
EndSplineSet
Validated: 1
EndChar

StartChar: K
Encoding: 75 75 55
Width: 1356
VWidth: 0
GlyphClass: 2
Flags: W
PickledData: "(dp1
S'org.pippin.gimp.org.kernagic'
p2
(dp3
S'lstem'
p4
I0
ssS'com.typemytype.robofont.layerData'
p5
(dp6
s."
HStem: 0 21G<182 376 1078.85 1330> 1559 20G<182 376 1052.17 1282>
VStem: 182 194<0 747 876 1579>
LayerCount: 2
Fore
SplineSet
182 0 m 1
 182 1579 l 1
 376 1579 l 1
 376 876 l 1
 409 876 l 1
 1071 1579 l 1
 1282 1579 l 1
 588 815 l 1
 1330 0 l 1
 1097 0 l 1
 419 747 l 1
 376 747 l 1
 376 0 l 1
 182 0 l 1
EndSplineSet
Validated: 1
EndChar

StartChar: L
Encoding: 76 76 57
Width: 1212
VWidth: 0
GlyphClass: 2
Flags: W
PickledData: "(dp1
S'org.pippin.gimp.org.kernagic'
p2
(dp3
S'lstem'
p4
I0
ssS'com.typemytype.robofont.layerData'
p5
(dp6
s."
HStem: 0 143<390 1136> 1559 20G<196 390>
VStem: 196 194<143 1579>
LayerCount: 2
Fore
SplineSet
196 0 m 1
 196 1579 l 1
 390 1579 l 1
 390 143 l 1
 1136 143 l 1
 1136 0 l 1
 196 0 l 1
EndSplineSet
Validated: 1
EndChar

StartChar: Lslash
Encoding: 321 321 62
Width: 1296
VWidth: 0
GlyphClass: 2
Flags: W
PickledData: "(dp1
S'org.pippin.gimp.org.kernagic'
p2
(dp3
S'lstem'
p4
I0
ss."
HStem: 0 143<390 1136> 1559 20G<196 390>
VStem: 196 194<143 1579>
LayerCount: 2
Fore
SplineSet
196 0 m 1
 196 1579 l 1
 390 1579 l 1
 390 143 l 1
 1136 143 l 1
 1136 0 l 1
 196 0 l 1
EndSplineSet
Validated: 1
EndChar

StartChar: M
Encoding: 77 77 63
Width: 1920
VWidth: 0
GlyphClass: 2
Flags: W
PickledData: "(dp1
S'org.pippin.gimp.org.kernagic'
p2
(dp3
S'lstem'
p4
I0
ssS'com.typemytype.robofont.layerData'
p5
(dp6
s."
HStem: 0 21G<189 363 1548 1721> 1559 20G<189 477.705 1432.3 1721>
VStem: 189 174<0 1399> 1548 173<0 1399>
LayerCount: 2
Fore
SplineSet
189 0 m 1
 189 1579 l 1
 470 1579 l 1
 955 320 l 1
 1440 1579 l 1
 1721 1579 l 1
 1721 0 l 1
 1548 0 l 1
 1548 1399 l 1
 1033 112 l 1
 867 112 l 1
 363 1399 l 1
 363 0 l 1
 189 0 l 1
EndSplineSet
Validated: 1
EndChar

StartChar: N
Encoding: 78 78 64
Width: 1656
VWidth: 0
GlyphClass: 2
Flags: W
PickledData: "(dp1
S'org.pippin.gimp.org.kernagic'
p2
(dp3
S'lstem'
p4
I0
ssS'com.typemytype.robofont.layerData'
p5
(dp6
s."
HStem: 0 21G<209 381 1188.33 1462> 1559 20G<209 482.667 1290 1462>
VStem: 209 172<0 1404> 1290 172<175 1579>
LayerCount: 2
Fore
SplineSet
209 0 m 1
 209 1579 l 1
 471 1579 l 1
 1290 175 l 1
 1290 1579 l 1
 1462 1579 l 1
 1462 0 l 1
 1200 0 l 1
 381 1404 l 1
 381 0 l 1
 209 0 l 1
EndSplineSet
Validated: 1
EndChar

StartChar: O
Encoding: 79 79 69
Width: 1620
VWidth: 0
GlyphClass: 2
Flags: W
PickledData: "(dp1
S'org.pippin.gimp.org.kernagic'
p2
(dp3
S'lstem'
p4
I0
ssS'com.typemytype.robofont.guides'
p5
(tsS'com.typemytype.robofont.layerData'
p6
(dp7
S'b'
(dp8
S'name'
p9
S'O'
sS'lib'
p10
(dp11
sS'unicodes'
p12
(tsS'width'
p13
I1538
sS'contours'
p14
(tsS'components'
p15
(tsS'anchors'
p16
(tsss."
HStem: -20 152<594.881 1007.24> 1447 152<601.572 1002.3>
VStem: 147 194<436.699 1115.18> 1263 194<452.158 1127.09>
LayerCount: 2
Fore
SplineSet
801 -20 m 0
 323 -20 147 342 147 784 c 0
 147 1214 326 1599 801 1599 c 0
 1285 1599 1457 1236 1457 784 c 0
 1457 342 1281 -20 801 -20 c 0
801 132 m 0
 1182 132 1263 464 1263 784 c 0
 1263 1103 1185 1447 801 1447 c 0
 418 1447 341 1101 341 784 c 0
 341 464 418 132 801 132 c 0
EndSplineSet
Validated: 1
EndChar

StartChar: OE
Encoding: 338 338 70
Width: 2196
VWidth: 0
GlyphClass: 2
Flags: W
PickledData: "(dp1
S'org.pippin.gimp.org.kernagic'
p2
(dp3
S'lstem'
p4
I0
ss."
HStem: -41 152<597.227 994.543> 0 143<1438 2227> 776 115<1438 2116> 1436 143<1438 2214> 1458 152<588.803 992.888>
VStem: 134 200<428.509 1133.63> 1244 194<143 149 423.864 776 891 1151 1418 1436>
LayerCount: 2
Fore
SplineSet
799 111 m 0xae
 1180 111 1244 480 1244 784 c 0
 1244 1103 1180 1458 790 1458 c 0
 397 1458 334 1101 334 784 c 0
 334 458 405 111 799 111 c 0xae
788 -41 m 0
 290 -41 134 335 134 784 c 0
 134 1214 289 1610 774 1610 c 0xae
 999 1610 1148 1538 1244 1418 c 1
 1244 1579 l 1
 2214 1579 l 1
 2214 1436 l 1
 1438 1436 l 1
 1438 891 l 1
 2116 891 l 1
 2116 776 l 1
 1438 776 l 1
 1438 143 l 1
 2227 143 l 1
 2227 0 l 1
 1244 0 l 1x76
 1244 149 l 1
 1150 31 1005 -41 788 -41 c 0
EndSplineSet
Validated: 1
EndChar

StartChar: Oslash
Encoding: 216 216 78
Width: 1620
VWidth: 0
GlyphClass: 2
Flags: W
PickledData: "(dp1
S'org.pippin.gimp.org.kernagic'
p2
(dp3
S'lstem'
p4
I0
ss."
HStem: -41 152<612.17 997.932> 1458 152<602.523 1010.39>
VStem: 147 201<425.584 1133.63> 1257 201<426.546 1149.2>
LayerCount: 2
Fore
SplineSet
519 209 m 1
 1053 1390 l 1
 980 1439 890 1458 803 1458 c 0
 411 1458 348 1101 348 784 c 0
 348 592 370 348 519 209 c 1
803 111 m 0
 1193 111 1257 470 1257 784 c 0
 1257 953 1239 1167 1136 1307 c 1
 612 147 l 1
 614 147 l 1
 674 121 738 111 803 111 c 0
474 -159 m 1
 373 -113 l 1
 446 49 l 1
 197 215 147 503 147 784 c 0
 147 1214 303 1610 788 1610 c 0
 902 1610 1018 1592 1120 1538 c 1
 1198 1710 l 1
 1299 1668 l 1
 1213 1477 l 1
 1412 1317 1458 1024 1458 784 c 0
 1458 345 1303 -41 802 -41 c 0
 715 -41 628 -30 546 0 c 1
 474 -159 l 1
EndSplineSet
Validated: 1
EndChar

StartChar: P
Encoding: 80 80 80
Width: 1440
VWidth: 0
GlyphClass: 2
Flags: W
PickledData: "(dp1
S'org.pippin.gimp.org.kernagic'
p2
(dp3
S'lstem'
p4
I0
ssS'com.typemytype.robofont.layerData'
p5
(dp6
s."
HStem: 0 21G<189 383> 639 145<383 913.78> 1436 143<383 945.98>
VStem: 189 194<0 639 784 1436> 1104 182<928.757 1293.44>
LayerCount: 2
Fore
SplineSet
383 784 m 1
 553 784 l 2
 774 784 1104 790 1104 1084 c 0
 1104 1422 897 1436 598 1436 c 2
 383 1436 l 1
 383 784 l 1
189 0 m 1
 189 1579 l 1
 586 1579 l 2
 940 1579 1286 1536 1286 1108 c 0
 1286 661 843 639 493 639 c 0
 455 639 418 639 383 639 c 1
 383 0 l 1
 189 0 l 1
EndSplineSet
Validated: 1
EndChar

StartChar: Q
Encoding: 81 81 81
Width: 1620
VWidth: 0
GlyphClass: 2
Flags: W
PickledData: "(dp1
S'org.pippin.gimp.org.kernagic'
p2
(dp3
S'lstem'
p4
I0
ssS'com.typemytype.robofont.layerData'
p5
(dp6
s."
HStem: -424 21G<1180.65 1224.17> 1458 152<606.104 1014.87>
VStem: 147 194<448.941 1122.79> 1270 194<445.704 1137.11>
LayerCount: 2
Fore
SplineSet
811 111 m 0
 1204 111 1270 465 1270 784 c 0
 1270 1101 1201 1458 811 1458 c 0
 418 1458 341 1103 341 784 c 0
 341 466 420 111 811 111 c 0
1206 -424 m 1
 713 -35 l 1
 288 15 147 399 147 792 c 0
 147 1228 320 1610 811 1610 c 0
 1305 1610 1464 1230 1464 784 c 0
 1464 414 1329 46 946 -21 c 1
 1325 -293 l 1
 1206 -424 l 1
EndSplineSet
Validated: 1
EndChar

StartChar: R
Encoding: 82 82 82
Width: 1476
VWidth: 0
GlyphClass: 2
Flags: W
PickledData: "(dp1
S'org.pippin.gimp.org.kernagic'
p2
(dp3
S'lstem'
p4
I0
ssS'com.typemytype.robofont.layerData'
p5
(dp6
S'b'
(dp7
S'name'
p8
S'R'
sS'lib'
p9
(dp10
sS'unicodes'
p11
(tsS'width'
p12
I1373
sS'contours'
p13
(tsS'components'
p14
(tsS'anchors'
p15
(tsss."
HStem: 0 21G<189 383 1131.95 1311> 733 129<383 976.805> 1436 143<383 1008.38>
VStem: 189 194<0 733 862 1436> 1135 170<0 241.149 986.802 1317.18>
LayerCount: 2
Fore
SplineSet
383 862 m 1
 741 862 l 2
 941 862 1135 885 1135 1150 c 0
 1135 1416 943 1437 718 1437 c 0
 677 1437 635 1436 592 1436 c 2
 383 1436 l 1
 383 862 l 1
189 0 m 1
 189 1579 l 1
 592 1579 l 2
 962 1579 1305 1579 1305 1160 c 0
 1305 968 1178 847 1011 809 c 1
 1184 796 1280 629 1291 405 c 2
 1311 0 l 1
 1133 0 l 1
 1113 381 l 2
 1099 653 1042 733 680 733 c 2
 383 733 l 1
 383 0 l 1
 189 0 l 1
EndSplineSet
Validated: 1
EndChar

StartChar: S
Encoding: 83 83 86
Width: 1332
VWidth: 0
GlyphClass: 2
Flags: W
PickledData: "(dp1
S'org.pippin.gimp.org.kernagic'
p2
(dp3
S'lstem'
p4
I0
ssS'com.typemytype.robofont.guides'
p5
(tsS'com.typemytype.robofont.layerData'
p6
(dp7
S'b'
(dp8
S'name'
p9
S'S'
sS'lib'
p10
(dp11
sS'unicodes'
p12
(tsS'width'
p13
I1237
sS'contours'
p14
(tsS'components'
p15
(tsS'anchors'
p16
(tsss."
HStem: -20 152<398.05 874.531> 1447 152<428.559 892.396>
VStem: 127 179<1075.79 1335.47> 1003 178<246.226 566.367>
LayerCount: 2
Fore
SplineSet
640 -20 m 0
 498 -20 255 45 134 122 c 1
 199 268 l 1
 255 230 446 132 647 132 c 0
 856 132 1003 193 1003 416 c 0
 1003 591 879 664 708 724 c 0
 638 749 559 772 485 798 c 0
 292 864 127 941 127 1192 c 0
 127 1469 366 1599 624 1599 c 0
 793 1599 957 1565 1095 1473 c 1
 1028 1336 l 1
 940 1395 795 1447 663 1447 c 0
 485 1447 306 1398 306 1197 c 0
 306 1057 419 1013 572 959 c 0
 634 937 704 913 767 891 c 0
 1008 804 1181 718 1181 414 c 0
 1181 103 957 -20 640 -20 c 0
EndSplineSet
Validated: 1
EndChar

StartChar: T
Encoding: 84 84 91
Width: 1116
VWidth: 0
GlyphClass: 2
Flags: W
PickledData: "(dp1
S'org.pippin.gimp.org.kernagic'
p2
(dp3
S'lstem'
p4
I288
ssS'com.typemytype.robofont.layerData'
p5
(dp6
s."
HStem: 0 21G<471 661> 1436 143<11 471 661 1119>
VStem: 471 190<0 1436>
LayerCount: 2
Fore
SplineSet
471 0 m 1
 471 1436 l 1
 11 1436 l 1
 11 1579 l 1
 1119 1579 l 1
 1119 1436 l 1
 661 1436 l 1
 661 0 l 1
 471 0 l 1
EndSplineSet
Validated: 1
EndChar

StartChar: Thorn
Encoding: 222 222 93
Width: 1440
VWidth: 0
GlyphClass: 2
Flags: W
PickledData: "(dp1
S'org.pippin.gimp.org.kernagic'
p2
(dp3
S'lstem'
p4
I0
ss."
HStem: 0 21G<189 383> 504 145<383 917.198> 1300 145<383 940.753> 1559 20G<189 383>
VStem: 189 194<0 504 649 1300 1444 1579> 1096 182<803.401 1155.18>
LayerCount: 2
Fore
SplineSet
383 649 m 1
 545 649 l 2
 779 649 1096 655 1096 959 c 0
 1096 1289 873 1300 592 1300 c 2
 383 1300 l 1
 383 649 l 1
189 0 m 1
 189 1579 l 1
 383 1579 l 1
 383 1444 l 1
 442 1444 503 1445 566 1445 c 0
 911 1445 1278 1411 1278 973 c 1
 1278 523 828 504 478 504 c 0
 445 504 414 504 383 504 c 1
 383 0 l 1
 189 0 l 1
EndSplineSet
Validated: 1
EndChar

StartChar: U
Encoding: 85 85 94
Width: 1572
VWidth: 0
GlyphClass: 2
Flags: W
PickledData: "(dp1
S'org.pippin.gimp.org.kernagic'
p2
(dp3
S'lstem'
p4
I0
ssS'com.typemytype.robofont.layerData'
p5
(dp6
s."
HStem: -41 141<564.262 1004.8> 1559 20G<168 360 1206 1402>
VStem: 168 192<336.245 1579> 1206 196<326.845 1579>
LayerCount: 2
Fore
SplineSet
784 -41 m 0
 298 -41 168 244 168 701 c 2
 168 1579 l 1
 360 1579 l 1
 360 697 l 2
 360 359 395 100 784 100 c 0
 1175 100 1206 361 1206 697 c 2
 1206 1579 l 1
 1402 1579 l 1
 1402 701 l 2
 1402 245 1274 -41 784 -41 c 0
EndSplineSet
Validated: 1
EndChar

StartChar: V
Encoding: 86 86 105
Width: 1248
VWidth: 0
GlyphClass: 2
Flags: W
PickledData: "(dp1
S'org.pippin.gimp.org.kernagic'
p2
(dp3
S'lstem'
p4
I0
ssS'com.typemytype.robofont.layerData'
p5
(dp6
s."
HStem: 0 21G<492.718 749.257> 1559 20G<3 199.935 1042.07 1237>
LayerCount: 2
Fore
SplineSet
499 0 m 1
 3 1579 l 1
 194 1579 l 1
 621 140 l 1
 1048 1579 l 1
 1237 1579 l 1
 743 0 l 1
 499 0 l 1
EndSplineSet
Validated: 1
EndChar

StartChar: W
Encoding: 87 87 106
Width: 1848
VWidth: 0
GlyphClass: 2
Flags: W
PickledData: "(dp1
S'org.pippin.gimp.org.kernagic'
p2
(dp3
S'lstem'
p4
I0
ssS'com.typemytype.robofont.layerData'
p5
(dp6
s."
HStem: 0 21G<335.047 611.816 1230.39 1506.02> 1559 20G<-51 129.986 1712.01 1897>
LayerCount: 2
Fore
SplineSet
340 0 m 1
 -51 1579 l 1
 125 1579 l 1
 475 175 l 1
 791 1489 l 1
 1065 1489 l 1
 1367 175 l 1
 1717 1579 l 1
 1897 1579 l 1
 1501 0 l 1
 1235 0 l 1
 928 1333 l 1
 607 0 l 1
 340 0 l 1
EndSplineSet
Validated: 1
EndChar

StartChar: X
Encoding: 88 88 107
Width: 1308
VWidth: 0
GlyphClass: 2
Flags: W
PickledData: "(dp1
S'org.pippin.gimp.org.kernagic'
p2
(dp3
S'lstem'
p4
I0
ssS'com.typemytype.robofont.layerData'
p5
(dp6
s."
HStem: 0 21G<44 326.5 1026.06 1256> 1559 20G<46 254.911 1045.09 1254>
LayerCount: 2
Fore
SplineSet
44 0 m 1
 541 800 l 1
 46 1579 l 1
 242 1579 l 1
 650 947 l 1
 1058 1579 l 1
 1254 1579 l 1
 759 800 l 1
 1256 0 l 1
 1038 0 l 1
 650 650 l 1
 520 434 391 217 262 0 c 1
 44 0 l 1
EndSplineSet
Validated: 1
EndChar

StartChar: Y
Encoding: 89 89 108
Width: 1164
VWidth: 0
GlyphClass: 2
Flags: W
PickledData: "(dp1
S'org.pippin.gimp.org.kernagic'
p2
(dp3
S'lstem'
p4
I0
ssS'com.typemytype.robofont.layerData'
p5
(dp6
s."
HStem: 0 21G<485 675> 1559 20G<-24 235.5 987.94 1189>
VStem: 485 190<0 557>
LayerCount: 2
Fore
SplineSet
485 0 m 1
 485 557 l 1
 -24 1579 l 1
 168 1579 l 1
 303 1301 440 1024 580 748 c 1
 998 1579 l 1
 1189 1579 l 1
 675 557 l 1
 675 0 l 1
 485 0 l 1
EndSplineSet
Validated: 1
EndChar

StartChar: Z
Encoding: 90 90 111
Width: 1224
VWidth: 0
GlyphClass: 2
Flags: W
PickledData: "(dp1
S'org.pippin.gimp.org.kernagic'
p2
(dp3
S'lstem'
p4
I0
ssS'com.typemytype.robofont.layerData'
p5
(dp6
s."
HStem: 0 143<310 1124> 1447 132<113 921>
LayerCount: 2
Fore
SplineSet
113 0 m 1
 113 180 l 1
 921 1447 l 1
 113 1447 l 1
 113 1579 l 1
 1122 1579 l 1
 1122 1419 l 1
 310 143 l 1
 1124 143 l 1
 1124 0 l 1
 113 0 l 1
EndSplineSet
Validated: 1
EndChar

StartChar: a
Encoding: 97 97 115
Width: 1212
VWidth: 0
GlyphClass: 2
Flags: W
PickledData: "(dp1
S'org.pippin.gimp.org.kernagic'
p2
(dp3
S'lstem'
p4
I0
ssS'com.typemytype.robofont.layerData'
p5
(dp6
S'b'
(dp7
S'name'
p8
S'a'
sS'lib'
p9
(dp10
sS'unicodes'
p11
(tsS'width'
p12
I1197
sS'contours'
p13
(tsS'components'
p14
(tsS'anchors'
p15
(tsss."
HStem: -20 137<363.58 706.876> 0 21G<919.854 1063> 596 119<387.499 844.516> 1047 143<349.355 784.383>
VStem: 98 191<190.906 503.66> 873 190<232.197 569.468 661 950.077> 923 140<0 91.136>
LayerCount: 2
Fore
SplineSet
537 117 m 0xbc
 666 117 781 185 873 271 c 1
 873 558 l 1
 787 582 699 596 611 596 c 0
 439 596 289 556 289 356 c 0
 289 182 369 117 537 117 c 0xbc
490 -20 m 0
 251 -20 98 97 98 343 c 0
 98 603 300 715 562 715 c 0
 648 715 792 690 873 661 c 1
 873 713 l 2
 873 925 845 1047 601 1047 c 0
 483 1047 337 1013 237 949 c 1
 168 1075 l 1
 301 1150 434 1190 591 1190 c 0
 962 1190 1063 1043 1063 686 c 2xbc
 1063 0 l 1
 923 0 l 1x7a
 895 178 l 1
 797 44 657 -20 490 -20 c 0
EndSplineSet
Validated: 1
EndChar

StartChar: acute
Encoding: 180 180 119
Width: 804
VWidth: 0
GlyphClass: 2
Flags: W
PickledData: "(dp1
S'org.pippin.gimp.org.kernagic'
p2
(dp3
S'lstem'
p4
I0
ss."
HStem: 328 532
VStem: 166 471
LayerCount: 2
Fore
SplineSet
223 328 m 1
 166 354 l 1
 476 860 l 1
 637 759 l 1
 223 328 l 1
EndSplineSet
Validated: 1
EndChar

StartChar: ae
Encoding: 230 230 121
Width: 1788
VWidth: 0
GlyphClass: 2
Flags: W
PickledData: "(dp1
S'org.pippin.gimp.org.kernagic'
p2
(dp3
S'lstem'
p4
I0
ss."
HStem: -23 142<308.58 642.657 1153.64 1502.81> 567 115<981 1581> 590 125<329.247 775.861> 1047 143<311.129 716.581 1117.29 1475.1>
VStem: 43 191<190.88 502.903> 791 190<302.884 567 682 897.977> 1581 168<682 920.172>
LayerCount: 2
Fore
SplineSet
981 682 m 1xde
 1581 682 l 1
 1581 717 l 2
 1581 902 1511 1057 1307 1057 c 0
 1083 1057 983 900 981 691 c 0
 981 688 981 685 981 682 c 1xde
482 119 m 0
 601 119 707 193 791 271 c 1
 791 569 l 1
 713 582 635 590 556 590 c 0xbe
 384 590 234 556 234 356 c 0
 234 183 314 119 482 119 c 0
435 -23 m 0
 196 -23 43 95 43 343 c 0
 43 603 251 715 487 715 c 0xbe
 573 715 711 698 791 665 c 1
 791 713 l 2
 791 924 780 1047 539 1047 c 0
 429 1047 266 1001 176 935 c 1
 109 1057 l 1
 201 1135 410 1190 529 1190 c 0
 702 1190 856 1154 911 970 c 1
 984 1121 1145 1190 1306 1190 c 0
 1613 1190 1749 958 1749 676 c 0
 1749 640 1746 603 1741 567 c 1
 981 567 l 1xde
 981 322 1046 127 1327 127 c 0
 1441 127 1547 170 1633 244 c 1
 1695 99 l 1
 1601 30 1432 -23 1315 -23 c 0
 1134 -23 974 45 882 207 c 1
 778 68 609 -23 435 -23 c 0
EndSplineSet
Validated: 1
EndChar

StartChar: ampersand
Encoding: 38 38 124
Width: 1548
VWidth: 0
GlyphClass: 2
Flags: W
PickledData: "(dp1
S'org.pippin.gimp.org.kernagic'
p2
(dp3
S'lstem'
p4
I0
ss."
HStem: -39 139<414.518 958.668> -7 21G<1407.16 1447.86> 1310 135<452.519 790.303>
VStem: 92 182<233.51 593.14> 224 166<1006.98 1248.01> 864 160<993.921 1240.11> 1174 164<397.328 796>
LayerCount: 2
Fore
SplineSet
659 100 m 0xb6
 805 100 1020 118 1108 256 c 1
 520 726 l 1
 356 691 274 585 274 418 c 0
 274 161 426 100 659 100 c 0xb6
575 883 m 1
 707 922 864 953 864 1119 c 0
 864 1258 746 1310 623 1310 c 0
 493 1310 390 1269 390 1121 c 0x2e
 390 1026 495 925 575 883 c 1
1431 -7 m 1x6e
 1220 170 l 1
 1133 6 825 -39 659 -39 c 0
 381 -39 92 75 92 396 c 0xb6
 92 621 212 761 426 822 c 1
 335 879 224 1001 224 1113 c 0
 224 1345 414 1445 623 1445 c 0
 831 1445 1024 1346 1024 1115 c 0
 1024 899 841 836 665 781 c 1
 1160 391 l 1
 1169 526 1174 661 1174 796 c 1
 1338 796 l 1
 1338 624 1324 446 1291 277 c 1
 1517 95 l 1
 1431 -7 l 1x6e
EndSplineSet
Validated: 1
EndChar

StartChar: approxequal
Encoding: 8776 8776 126
Width: 1044
VWidth: 0
GlyphClass: 2
Flags: W
PickledData: "(dp1
S'org.pippin.gimp.org.kernagic'
p2
(dp3
S'lstem'
p4
I0
ss."
HStem: 390 139<563.373 733.107> 509 145<303.654 472.707>
VStem: 139 156<394 503.847> 743 156<534.584 640>
LayerCount: 2
Fore
SplineSet
707 390 m 0xb0
 561 390 429 509 354 509 c 0
 296 509 295 436 295 394 c 1
 139 394 l 1
 139 531 183 654 340 654 c 0x70
 485 654 582 529 684 529 c 0
 738 529 743 601 743 640 c 1
 899 640 l 1
 899 521 844 390 707 390 c 0xb0
EndSplineSet
Validated: 1
EndChar

StartChar: asciicircum
Encoding: 94 94 128
Width: 936
VWidth: 0
GlyphClass: 2
Flags: W
PickledData: "(dp1
S'org.pippin.gimp.org.kernagic'
p2
(dp3
S'lstem'
p4
I0
ss."
HStem: 432 579
VStem: 125 680
LayerCount: 2
Fore
SplineSet
125 510 m 1
 417 1011 l 1
 513 1011 l 1
 805 510 l 1
 677 432 l 1
 465 809 l 1
 253 432 l 1
 125 510 l 1
EndSplineSet
Validated: 1
EndChar

StartChar: asciitilde
Encoding: 126 126 129
Width: 1044
VWidth: 0
GlyphClass: 2
Flags: W
PickledData: "(dp1
S'org.pippin.gimp.org.kernagic'
p2
(dp3
S'lstem'
p4
I0
ss."
HStem: 390 139<563.373 733.107> 509 145<303.654 472.707>
VStem: 139 156<394 503.847> 743 156<534.584 640>
LayerCount: 2
Fore
SplineSet
707 390 m 0xb0
 561 390 429 509 354 509 c 0
 296 509 295 436 295 394 c 1
 139 394 l 1
 139 531 183 654 340 654 c 0x70
 485 654 582 529 684 529 c 0
 738 529 743 601 743 640 c 1
 899 640 l 1
 899 521 844 390 707 390 c 0xb0
EndSplineSet
Validated: 1
EndChar

StartChar: asterisk
Encoding: 42 42 130
Width: 924
VWidth: 0
GlyphClass: 2
Flags: W
PickledData: "(dp1
S'org.pippin.gimp.org.kernagic'
p2
(dp3
S'lstem'
p4
I0
ss."
HStem: 1145 92<63 372 544 853>
LayerCount: 2
Fore
SplineSet
612 815 m 1
 458 1090 l 1
 304 815 l 1
 202 872 l 1
 372 1145 l 1
 63 1145 l 1
 63 1237 l 1
 374 1237 l 1
 216 1509 l 1
 319 1567 l 1
 458 1292 l 1
 597 1567 l 1
 700 1509 l 1
 542 1237 l 1
 853 1237 l 1
 853 1145 l 1
 544 1145 l 1
 714 872 l 1
 612 815 l 1
EndSplineSet
Validated: 1
EndChar

StartChar: at
Encoding: 64 64 131
Width: 1740
VWidth: 0
GlyphClass: 2
Flags: W
PickledData: "(dp1
S'org.pippin.gimp.org.kernagic'
p2
(dp3
S'lstem'
p4
I0
ssS'com.typemytype.robofont.layerData'
p5
(dp6
S'b'
(dp7
S'name'
p8
S'at'
p9
sS'lib'
p10
(dp11
sS'unicodes'
p12
(tsS'width'
p13
I1873
sS'contours'
p14
(tsS'components'
p15
(tsS'anchors'
p16
(tsss."
HStem: -26 127<660.054 1222.18> 328 121<687.25 985.194 1350.17 1487.3> 1150 107<879.046 1238.58> 1459 126<716.269 1267.5>
VStem: 110 149<485.298 987.415> 472 143<523.211 872.247> 1243 146<907.156 1138.28> 1244 104<442.462 725.844> 1618 135<647.281 1128.96>
LayerCount: 2
Fore
SplineSet
1243 1133 m 1xfe80
 1191 1144 1136 1150 1081 1150 c 0
 1077 1150 1072 1150 1068 1150 c 0
 825 1150 640 958 617 717 c 0
 616 703 615 689 615 675 c 0
 615 545 680 449 822 449 c 0
 1164 449 1216 879 1243 1133 c 1xfe80
981 1585 m 0
 1417 1585 1753 1360 1753 886 c 0
 1753 555 1563 328 1383 328 c 0
 1294 328 1244 383 1244 488 c 0xfd80
 1244 543 1246 690 1246 738 c 1
 1181 483 1014 328 799 328 c 0
 582 328 472 463 472 661 c 0
 472 1031 767 1257 1069 1257 c 0
 1300 1257 1389 1202 1389 1128 c 0
 1389 1125 1389 1121 1389 1118 c 2xfe80
 1348 515 l 2
 1348 512 1348 510 1348 508 c 0xfd80
 1348 463 1373 440 1401 440 c 0
 1500 440 1618 665 1618 887 c 0
 1618 1287 1351 1459 986 1459 c 0
 544 1459 259 1160 259 722 c 0
 259 315 559 101 941 101 c 0
 1066 101 1226 139 1323 180 c 1
 1366 53 l 1
 1247 10 1050 -26 928 -26 c 0
 467 -26 110 232 110 718 c 0
 110 1227 475 1585 981 1585 c 0
EndSplineSet
Validated: 1
EndChar

StartChar: b
Encoding: 98 98 133
Width: 1284
VWidth: 0
GlyphClass: 2
Flags: W
PickledData: "(dp1
S'org.pippin.gimp.org.kernagic'
p2
(dp3
S'lstem'
p4
I0
sS'rstem'
p5
I0
ssS'com.typemytype.robofont.layerData'
p6
(dp7
S'b'
(dp8
S'name'
p9
S'b'
sS'lib'
p10
(dp11
sS'unicodes'
p12
(tsS'width'
p13
I1284
sS'contours'
p14
((dp15
S'points'
p16
((dp17
S'segmentType'
p18
S'line'
p19
sS'x'
I153
sS'smooth'
p20
I00
sS'y'
I0
s(dp21
g18
S'line'
p22
sS'x'
I343
sg20
I00
sS'y'
I0
s(dp23
g18
S'line'
p24
sS'x'
I343
sg20
I00
sS'y'
I875
s(dp25
S'y'
I957
sS'x'
I426
sg20
I00
s(dp26
S'y'
I1047
sS'x'
I553
sg20
I00
s(dp27
g18
S'curve'
p28
sS'x'
I723
sg20
I01
sS'y'
I1047
s(dp29
S'y'
I1047
sS'x'
I914
sg20
I00
s(dp30
S'y'
I884
sS'x'
I947
sg20
I00
s(dp31
g18
S'curve'
p32
sS'x'
I947
sg20
I01
sS'y'
I727
s(dp33
g18
S'line'
p34
sS'x'
I947
sg20
I00
sS'y'
I0
s(dp35
g18
S'line'
p36
sS'x'
I1137
sg20
I00
sS'y'
I0
s(dp37
g18
S'line'
p38
sS'x'
I1137
sg20
I01
sS'y'
I727
s(dp39
S'y'
I975
sS'x'
I1137
sg20
I00
s(dp40
S'y'
I1183
sS'x'
I1049
sg20
I00
s(dp41
g18
S'curve'
p42
sS'x'
I774
sg20
I01
sS'y'
I1188
s(dp43
S'y'
I1191
sS'x'
I593
sg20
I00
s(dp44
S'y'
I1109
sS'x'
I417
sg20
I00
s(dp45
g18
S'curve'
p46
sS'x'
I323
sg20
I00
sS'y'
I990
s(dp47
g18
S'line'
p48
sS'x'
I293
sg20
I00
sS'y'
I1169
s(dp49
g18
S'line'
p50
sS'x'
I153
sg20
I00
sS'y'
I1169
stp51
stp52
sS'components'
p53
(tsS'anchors'
p54
(tsss."
HStem: -20 136<477.985 828.793> 0 21G<153 296.836> 1047 143<496.476 830.869>
VStem: 153 190<221.698 938.211 1039 1579> 153 140<0 74.752> 985 182<307.129 858.588>
LayerCount: 2
Fore
SplineSet
985 584 m 0xb4
 985 779 935 1047 685 1047 c 0
 569 1047 427 982 343 902 c 1
 343 266 l 1
 422 174 530 116 666 116 c 0
 940 116 985 377 985 584 c 0xb4
679 -20 m 0
 532 -20 409 37 321 146 c 1
 293 0 l 1
 153 0 l 1x6c
 153 1579 l 1
 343 1614 l 1
 343 1039 l 1
 425 1136 570 1190 691 1190 c 0
 1037 1190 1167 881 1167 580 c 0
 1167 277 1024 -20 679 -20 c 0
EndSplineSet
Validated: 1
EndChar

StartChar: backslash
Encoding: 92 92 134
Width: 972
VWidth: 0
GlyphClass: 2
Flags: W
PickledData: "(dp1
S'org.pippin.gimp.org.kernagic'
p2
(dp3
S'lstem'
p4
I0
ss."
LayerCount: 2
Fore
SplineSet
693 -172 m 1
 72 1679 l 1
 230 1731 l 1
 853 -114 l 1
 693 -172 l 1
EndSplineSet
Validated: 1
EndChar

StartChar: bar
Encoding: 124 124 135
Width: 720
VWidth: 0
GlyphClass: 2
Flags: W
PickledData: "(dp1
S'org.pippin.gimp.org.kernagic'
p2
(dp3
S'lstem'
p4
I0
ss."
VStem: 271 178<-111 1696>
LayerCount: 2
Fore
SplineSet
271 -111 m 1
 271 1696 l 1
 449 1696 l 1
 449 -111 l 1
 271 -111 l 1
EndSplineSet
Validated: 1
EndChar

StartChar: braceleft
Encoding: 123 123 136
Width: 948
VWidth: 0
GlyphClass: 2
Flags: W
PickledData: "(dp1
S'org.pippin.gimp.org.kernagic'
p2
(dp3
S'lstem'
p4
I0
ss."
HStem: -209 169<679.4 835> 571 188<188 332.783> 1370 169<679.4 835>
VStem: 189 646
CounterMasks: 1 e0
LayerCount: 2
Fore
SplineSet
835 -209 m 2
 834 -209 l 0
 169 -209 648 571 189 571 c 0
 188 571 l 2
 188 759 l 2
 189 759 l 0
 648 759 169 1539 834 1539 c 2
 835 1539 l 1
 836 1370 l 1
 835 1370 834 1370 833 1370 c 0
 383 1370 807 783 355 665 c 1
 807 547 383 -40 833 -40 c 0
 834 -40 835 -40 836 -40 c 1
 835 -209 l 2
EndSplineSet
Validated: 1
EndChar

StartChar: braceright
Encoding: 125 125 137
Width: 948
VWidth: 0
GlyphClass: 2
Flags: W
PickledData: "(dp1
S'org.pippin.gimp.org.kernagic'
p2
(dp3
S'lstem'
p4
I0
ss."
HStem: -209 169<100 255.6> 571 188<602.478 747> 1370 169<100 255.328>
VStem: 100 646
CounterMasks: 1 e0
LayerCount: 2
Fore
SplineSet
100 -209 m 2
 99 -40 l 1
 100 -40 101 -40 102 -40 c 0
 552 -40 128 547 580 665 c 1
 129 783 551 1370 102 1370 c 0
 101 1370 100 1370 99 1370 c 1
 100 1539 l 1
 101 1539 l 2
 765 1539 288 759 746 759 c 0
 747 759 l 2
 747 571 l 2
 746 571 l 0
 288 571 765 -209 101 -209 c 0
 100 -209 l 2
EndSplineSet
Validated: 1
EndChar

StartChar: bracketleft
Encoding: 91 91 138
Width: 1056
VWidth: 0
GlyphClass: 2
Flags: W
PickledData: "(dp1
S'org.pippin.gimp.org.kernagic'
p2
(dp3
S'lstem'
p4
I0
ss."
HStem: 0 143<389 860> 1436 143<389 860>
VStem: 196 193<143 1436>
LayerCount: 2
Fore
SplineSet
196 0 m 1
 196 1579 l 1
 860 1579 l 1
 860 1436 l 1
 389 1436 l 1
 389 143 l 1
 860 143 l 1
 860 0 l 1
 196 0 l 1
EndSplineSet
Validated: 1
EndChar

StartChar: bracketright
Encoding: 93 93 139
Width: 1068
VWidth: 0
GlyphClass: 2
Flags: W
PickledData: "(dp1
S'org.pippin.gimp.org.kernagic'
p2
(dp3
S'lstem'
p4
I0
ss."
HStem: 0 143<196 667> 1436 143<196 667>
VStem: 667 193<143 1436>
LayerCount: 2
Fore
SplineSet
196 0 m 1
 196 143 l 1
 667 143 l 1
 667 1436 l 1
 196 1436 l 1
 196 1579 l 1
 860 1579 l 1
 860 0 l 1
 196 0 l 1
EndSplineSet
Validated: 1
EndChar

StartChar: breve
Encoding: 728 728 140
Width: 876
VWidth: 0
GlyphClass: 2
Flags: W
PickledData: "(dp1
S'org.pippin.gimp.org.kernagic'
p2
(dp3
S'lstem'
p4
I0
ss."
HStem: 889 101<337.218 535.975>
VStem: 166 127<1038.39 1149> 579 127<1034.79 1149>
LayerCount: 2
Fore
SplineSet
440 889 m 0
 284 889 166 997 166 1149 c 1
 293 1149 l 1
 293 1063 355 990 438 990 c 0
 522 990 579 1061 579 1149 c 1
 706 1149 l 1
 706 1002 594 889 440 889 c 0
EndSplineSet
Validated: 1
EndChar

StartChar: brokenbar
Encoding: 166 166 141
Width: 732
VWidth: 0
GlyphClass: 2
Flags: W
PickledData: "(dp1
S'org.pippin.gimp.org.kernagic'
p2
(dp3
S'lstem'
p4
I0
ss."
HStem: 0 21G<264 452> 1559 20G<264 452>
VStem: 264 188<0 690 889 1579>
LayerCount: 2
Fore
SplineSet
264 889 m 1
 264 1579 l 1
 452 1579 l 1
 452 889 l 1
 264 889 l 1
264 0 m 1
 264 690 l 1
 452 690 l 1
 452 0 l 1
 264 0 l 1
EndSplineSet
Validated: 1
EndChar

StartChar: bullet
Encoding: 8226 8226 142
Width: 972
VWidth: 0
GlyphClass: 2
Flags: W
PickledData: "(dp1
S'org.pippin.gimp.org.kernagic'
p2
(dp3
S'lstem'
p4
I0
ss."
HStem: 358 670<308.645 651.416>
VStem: 132 698<529.456 855.008>
LayerCount: 2
Fore
SplineSet
480 358 m 0
 292 358 132 500 132 692 c 0
 132 885 291 1028 480 1028 c 0
 667 1028 830 884 830 692 c 0
 830 497 670 358 480 358 c 0
EndSplineSet
Validated: 1
EndChar

StartChar: c
Encoding: 99 99 143
Width: 1104
VWidth: 0
GlyphClass: 2
Flags: W
PickledData: "(dp1
S'org.pippin.gimp.org.kernagic'
p2
(dp3
S'lstem'
p4
I0
ssS'com.typemytype.robofont.layerData'
p5
(dp6
s."
HStem: -20 137<492.294 840.338> 1050 140<490.269 842.554>
VStem: 111 183<347.241 815.909>
LayerCount: 2
Fore
SplineSet
111 580 m 0
 111 903 315 1190 649 1190 c 0
 783 1190 899 1145 1007 1057 c 1
 952 931 l 1
 869 1007 766 1050 656 1050 c 0
 401 1050 294 810 294 580 c 0
 294 357 402 117 655 117 c 0
 765 117 874 165 953 236 c 1
 1007 111 l 1
 905 23 784 -20 658 -20 c 0
 312 -20 111 256 111 580 c 0
EndSplineSet
Validated: 1
EndChar

StartChar: caron
Encoding: 711 711 145
Width: 936
VWidth: 0
GlyphClass: 2
Flags: W
PickledData: "(dp1
S'org.pippin.gimp.org.kernagic'
p2
(dp3
S'lstem'
p4
I0
ss."
HStem: 432 532
VStem: 125 680
LayerCount: 2
Fore
SplineSet
417 432 m 1
 125 886 l 1
 243 964 l 1
 465 577 l 1
 687 964 l 1
 805 886 l 1
 513 432 l 1
 417 432 l 1
EndSplineSet
Validated: 1
EndChar

StartChar: cedilla
Encoding: 184 184 150
Width: 732
VWidth: 0
GlyphClass: 2
Flags: W
PickledData: "(dp1
S'org.pippin.gimp.org.kernagic'
p2
(dp3
S'lstem'
p4
I0
ss."
HStem: -578 114<168.338 450.277> -443 20G<166 186> -186 88<337 423.469>
VStem: 216 121<-98 76> 469 133<-444.677 -228.545>
LayerCount: 2
Fore
SplineSet
350 -578 m 0
 287 -578 225 -560 166 -540 c 1
 166 -423 l 1
 206 -437 291 -464 330 -464 c 0
 432 -464 469 -437 469 -328 c 0
 469 -189 321 -186 216 -186 c 1
 216 76 l 1
 337 76 l 1
 337 -98 l 1
 504 -98 602 -166 602 -342 c 0
 602 -506 508 -578 350 -578 c 0
EndSplineSet
Validated: 1
EndChar

StartChar: cent
Encoding: 162 162 151
Width: 1212
VWidth: 0
GlyphClass: 2
Flags: W
PickledData: "(dp1
S'org.pippin.gimp.org.kernagic'
p2
(dp3
S'lstem'
p4
I0
ss."
HStem: -22 151<501.051 628 731 934.484> 1037 152<511.451 628 731 912.548> 1309 20G<628 731>
VStem: 154 190<317.679 844.894> 628 103<-159 -19.3876 130 1037 1186 1329>
LayerCount: 2
Fore
SplineSet
628 129 m 1
 628 1037 l 1
 394 1007 344 781 344 580 c 0
 344 385 398 153 628 129 c 1
628 -159 m 1
 628 -22 l 1
 294 -2 154 272 154 580 c 0
 154 895 293 1156 628 1189 c 1
 628 1329 l 1
 731 1329 l 1
 731 1186 l 1
 835 1185 964 1131 1053 1077 c 1
 996 944 l 1
 924 997 821 1037 731 1038 c 1
 731 130 l 1
 822 130 918 158 996 205 c 1
 1042 68 l 1
 953 23 831 -18 731 -19 c 1
 731 -159 l 1
 628 -159 l 1
EndSplineSet
Validated: 1
EndChar

StartChar: circumflex
Encoding: 710 710 152
Width: 936
VWidth: 0
GlyphClass: 2
Flags: W
PickledData: "(dp1
S'org.pippin.gimp.org.kernagic'
p2
(dp3
S'lstem'
p4
I0
ss."
HStem: 432 532
VStem: 125 680
LayerCount: 2
Fore
SplineSet
125 510 m 1
 417 964 l 1
 513 964 l 1
 805 510 l 1
 687 432 l 1
 465 819 l 1
 243 432 l 1
 125 510 l 1
EndSplineSet
Validated: 1
EndChar

StartChar: colon
Encoding: 58 58 153
Width: 720
VWidth: 0
GlyphClass: 2
Flags: W
PickledData: "(dp1
S'org.pippin.gimp.org.kernagic'
p2
(dp3
S'lstem'
p4
I0
ss."
HStem: 0 281<221 491> 583 281<221 491>
VStem: 221 270<0 281 583 864>
LayerCount: 2
Fore
SplineSet
221 583 m 1
 221 864 l 1
 491 864 l 1
 491 583 l 1
 221 583 l 1
221 0 m 1
 221 281 l 1
 491 281 l 1
 491 0 l 1
 221 0 l 1
EndSplineSet
Validated: 1
EndChar

StartChar: comma
Encoding: 44 44 154
Width: 720
VWidth: 0
GlyphClass: 2
Flags: W
PickledData: "(dp1
S'org.pippin.gimp.org.kernagic'
p2
(dp3
S'lstem'
p4
I0
ss."
HStem: -253 94<259.222 300.056>
VStem: 215 281<2.0899 293> 346 150<-111.85 0>
LayerCount: 2
Fore
SplineSet
267 -253 m 1xc0
 216 -159 l 1
 301 -130 347 -95 346 0 c 1xa0
 215 0 l 1
 215 293 l 1
 496 293 l 1
 496 44 l 2
 496 -110 413 -211 267 -253 c 1xc0
EndSplineSet
Validated: 33
EndChar

StartChar: copyright
Encoding: 169 169 155
Width: 1968
VWidth: 0
GlyphClass: 2
Flags: W
PickledData: "(dp1
S'org.pippin.gimp.org.kernagic'
p2
(dp3
S'lstem'
p4
I0
ss."
HStem: -23 124<681.832 1197.8> 336 128<750.486 1182.47> 1198 128<750.486 1182.47> 1562 125<696.759 1183.04>
VStem: 65 148<570.987 1072.89> 455 162<597.649 1064.35> 1667 148<571.358 1072.69>
LayerCount: 2
Fore
SplineSet
940 101 m 0
 1359 101 1667 410 1667 829 c 0
 1667 1229 1342 1562 940 1562 c 0
 537 1562 213 1230 213 829 c 0
 213 410 521 101 940 101 c 0
940 -23 m 0
 459 -23 65 342 65 830 c 0
 65 1308 467 1687 940 1687 c 0
 1413 1687 1815 1308 1815 830 c 0
 1815 344 1419 -23 940 -23 c 0
977 336 m 0
 644 336 455 494 455 831 c 0
 455 1168 644 1326 977 1326 c 0
 1075 1326 1171 1292 1257 1248 c 1
 1257 1122 l 1
 1166 1168 1066 1198 963 1198 c 0
 703 1198 617 1087 617 831 c 0
 617 575 703 464 963 464 c 0
 1066 464 1166 494 1257 540 c 1
 1257 414 l 1
 1171 370 1075 336 977 336 c 0
EndSplineSet
Validated: 1
EndChar

StartChar: currency
Encoding: 164 164 156
Width: 1212
VWidth: 0
GlyphClass: 2
Flags: W
PickledData: "(dp1
S'org.pippin.gimp.org.kernagic'
p2
(dp3
S'lstem'
p4
I0
ss."
HStem: 558 141<450.75 738.069> 1266 143<460.701 755.414>
VStem: 175 143<828.792 1123.29> 884 142<845.381 1136.23>
LayerCount: 2
Fore
SplineSet
592 699 m 0
 744 699 884 840 884 992 c 0
 884 1138 756 1266 610 1266 c 0
 456 1266 318 1130 318 975 c 0
 318 829 446 699 592 699 c 0
180 430 m 1
 56 555 l 1
 243 742 l 1
 199 809 175 887 175 967 c 0
 175 1053 202 1137 250 1208 c 1
 56 1402 l 1
 180 1526 l 1
 374 1333 l 1
 446 1382 530 1409 617 1409 c 0
 697 1409 775 1385 842 1341 c 1
 1028 1526 l 1
 1152 1402 l 1
 965 1215 l 1
 1006 1150 1026 1076 1026 1000 c 0
 1026 913 999 829 950 757 c 1
 1152 555 l 1
 1028 430 l 1
 825 633 l 1
 754 584 671 558 585 558 c 0
 509 558 434 578 369 619 c 1
 180 430 l 1
EndSplineSet
Validated: 1
EndChar

StartChar: d
Encoding: 100 100 157
Width: 1284
VWidth: 0
GlyphClass: 2
Flags: W
PickledData: "(dp1
S'org.pippin.gimp.org.kernagic'
p2
(dp3
S'lstem'
p4
I0
sS'rstem'
p5
I0
ssS'com.typemytype.robofont.layerData'
p6
(dp7
S'b'
(dp8
S'name'
p9
S'd'
sS'lib'
p10
(dp11
sS'unicodes'
p12
(tsS'width'
p13
I1284
sS'contours'
p14
((dp15
S'points'
p16
((dp17
S'segmentType'
p18
S'curve'
p19
sS'x'
I583
sS'smooth'
p20
I01
sS'y'
I117
s(dp21
S'y'
I133
sS'x'
I336
sg20
I00
s(dp22
S'y'
I390
sS'x'
I296
sg20
I00
s(dp23
g18
S'curve'
p24
sS'x'
I296
sg20
I01
sS'y'
I584
s(dp25
S'y'
I779
sS'x'
I296
sg20
I00
s(dp26
S'y'
I1047
sS'x'
I346
sg20
I00
s(dp27
g18
S'curve'
p28
sS'x'
I596
sg20
I01
sS'y'
I1047
s(dp29
S'y'
I1047
sS'x'
I712
sg20
I00
s(dp30
S'y'
I982
sS'x'
I854
sg20
I00
s(dp31
g18
S'curve'
p32
sS'x'
I938
sg20
I00
sS'y'
I902
s(dp33
g18
S'line'
p34
sS'x'
I938
sg20
I00
sS'y'
I266
s(dp35
S'y'
I167
sS'x'
I853
sg20
I00
s(dp36
S'y'
I107
sS'x'
I734
sg20
I00
stp37
s(dp38
g16
((dp39
g18
S'curve'
p40
sS'x'
I602
sg20
I01
sS'y'
I-20
s(dp41
S'y'
I-20
sS'x'
I749
sg20
I00
s(dp42
S'y'
I37
sS'x'
I872
sg20
I00
s(dp43
g18
S'curve'
p44
sS'x'
I960
sg20
I00
sS'y'
I146
s(dp45
g18
S'line'
p46
sS'x'
I988
sg20
I00
sS'y'
I0
s(dp47
g18
S'line'
p48
sS'x'
I1128
sg20
I00
sS'y'
I0
s(dp49
g18
S'line'
p50
sS'x'
I1128
sg20
I00
sS'y'
I1579
s(dp51
g18
S'line'
p52
sS'x'
I938
sg20
I00
sS'y'
I1614
s(dp53
g18
S'line'
p54
sS'x'
I938
sg20
I00
sS'y'
I1039
s(dp55
S'y'
I1136
sS'x'
I856
sg20
I00
s(dp56
S'y'
I1190
sS'x'
I711
sg20
I00
s(dp57
g18
S'curve'
p58
sS'x'
I590
sg20
I01
sS'y'
I1190
s(dp59
S'y'
I1190
sS'x'
I244
sg20
I00
s(dp60
S'y'
I881
sS'x'
I114
sg20
I00
s(dp61
g18
S'curve'
p62
sS'x'
I114
sg20
I01
sS'y'
I580
s(dp63
S'y'
I277
sS'x'
I114
sg20
I00
s(dp64
S'y'
I-20
sS'x'
I257
sg20
I00
stp65
stp66
sS'components'
p67
(tsS'anchors'
p68
(tsss."
HStem: -20 136<453.241 803.07> 0 21G<984.164 1128> 1047 143<444.791 783.498>
VStem: 114 182<306.565 858.872> 938 190<221.698 939.406 1039 1579> 988 140<0 74.752>
LayerCount: 2
Fore
SplineSet
609 116 m 0xb8
 755 116 856 174 938 266 c 1
 938 903 l 1
 860 974 728 1047 598 1047 c 0
 348 1047 296 787 296 587 c 0
 296 372 347 116 609 116 c 0xb8
606 -20 m 0
 256 -20 114 275 114 584 c 0
 114 891 254 1190 586 1190 c 0
 713 1190 857 1140 938 1039 c 1
 938 1579 l 1xb8
 1128 1614 l 1
 1128 0 l 1
 988 0 l 1x74
 960 146 l 1
 875 38 746 -20 606 -20 c 0
EndSplineSet
Validated: 1
EndChar

StartChar: dagger
Encoding: 8224 8224 158
Width: 1200
VWidth: 0
GlyphClass: 2
Flags: W
PickledData: "(dp1
S'org.pippin.gimp.org.kernagic'
p2
(dp3
S'lstem'
p4
I0
ss."
HStem: 0 21G<504 694> 1020 141<168 503 696 1022>
VStem: 504 190<0 1020 1161 1468>
LayerCount: 2
Fore
SplineSet
504 0 m 1
 504 1020 l 1
 168 1020 l 1
 168 1161 l 1
 503 1161 l 1
 503 1468 l 1
 696 1468 l 1
 696 1161 l 1
 1022 1161 l 1
 1022 1020 l 1
 694 1020 l 1
 694 0 l 1
 504 0 l 1
EndSplineSet
Validated: 1
EndChar

StartChar: daggerdbl
Encoding: 8225 8225 159
Width: 1200
VWidth: 0
GlyphClass: 2
Flags: W
PickledData: "(dp1
S'org.pippin.gimp.org.kernagic'
p2
(dp3
S'lstem'
p4
I0
ss."
HStem: 0 21G<503 694> 305 139<168 503 694 1020> 1020 141<168 503 696 1022>
VStem: 503 191<0 305 444 1020 1161 1468>
LayerCount: 2
Fore
SplineSet
503 0 m 1
 503 305 l 1
 168 305 l 1
 168 444 l 1
 503 444 l 1
 503 1020 l 1
 168 1020 l 1
 168 1161 l 1
 503 1161 l 1
 503 1468 l 1
 696 1468 l 1
 696 1161 l 1
 1022 1161 l 1
 1022 1020 l 1
 694 1020 l 1
 694 444 l 1
 1020 444 l 1
 1020 305 l 1
 694 305 l 1
 694 0 l 1
 503 0 l 1
EndSplineSet
Validated: 1
EndChar

StartChar: dcroat
Encoding: 273 273 161
Width: 1284
VWidth: 0
GlyphClass: 2
Flags: W
PickledData: "(dp1
S'org.pippin.gimp.org.kernagic'
p2
(dp3
S'lstem'
p4
I0
ss."
HStem: -20 137<435.441 761.95> 0 21G<977.872 1122> 1047 143<433.314 766.562> 1317 117<563 932 1122 1245>
VStem: 105 182<304.095 860.582> 932 190<233.264 934.733 1028 1317 1434 1579> 981 141<0 91.648>
LayerCount: 2
Fore
SplineSet
585 117 m 0xbc
 707 117 849 181 932 275 c 1
 932 903 l 1
 831 980 709 1047 579 1047 c 0
 329 1047 287 787 287 587 c 0
 287 381 329 117 585 117 c 0xbc
589 -20 m 0
 239 -20 105 275 105 584 c 0
 105 870 235 1190 567 1190 c 0
 694 1190 851 1129 932 1028 c 1
 932 1317 l 1
 563 1317 l 1
 563 1434 l 1
 932 1434 l 1
 932 1614 l 1
 1122 1579 l 1
 1122 1434 l 1
 1245 1434 l 1
 1245 1317 l 1
 1122 1317 l 1xbc
 1122 0 l 1
 981 0 l 1x7a
 953 179 l 1
 870 71 729 -20 589 -20 c 0
EndSplineSet
Validated: 1
EndChar

StartChar: degree
Encoding: 176 176 162
Width: 852
VWidth: 0
GlyphClass: 2
Flags: W
PickledData: "(dp1
S'org.pippin.gimp.org.kernagic'
p2
(dp3
S'lstem'
p4
I0
ss."
HStem: 660 90<320.658 524.207> 1048 91<320.068 523.993>
VStem: 180 97<791.935 1006.34> 563 97<788.4 1009.49>
LayerCount: 2
Fore
SplineSet
424 660 m 0
 286 660 180 759 180 899 c 0
 180 1039 285 1139 424 1139 c 0
 561 1139 660 1035 660 899 c 0
 660 762 562 660 424 660 c 0
422 750 m 0
 506 750 563 817 563 899 c 0
 563 981 506 1048 422 1048 c 0
 339 1048 277 980 277 899 c 0
 277 819 341 750 422 750 c 0
EndSplineSet
Validated: 1
EndChar

StartChar: dieresis
Encoding: 168 168 163
Width: 1020
VWidth: 0
GlyphClass: 2
Flags: W
PickledData: "(dp1
S'org.pippin.gimp.org.kernagic'
p2
(dp3
S'lstem'
p4
I0
ss."
HStem: 381 230<176.535 351.618 666.535 841.618>
VStem: 153 220<404.291 587.709> 643 220<404.291 587.709>
LayerCount: 2
Fore
SplineSet
755 381 m 0
 691 381 643 433 643 496 c 0
 643 558 692 611 755 611 c 0
 820 611 863 558 863 496 c 0
 863 434 820 381 755 381 c 0
265 381 m 0
 201 381 153 433 153 496 c 0
 153 558 202 611 265 611 c 0
 330 611 373 558 373 496 c 0
 373 434 330 381 265 381 c 0
EndSplineSet
Validated: 1
EndChar

StartChar: divide
Encoding: 247 247 164
Width: 1008
VWidth: 0
GlyphClass: 2
Flags: W
PickledData: "(dp1
S'org.pippin.gimp.org.kernagic'
p2
(dp3
S'lstem'
p4
I0
ss."
HStem: 215 230<408.535 583.618> 508 131<160 842> 700 230<410.535 585.618>
VStem: 385 220<238.291 421.709 724.995 905.005>
LayerCount: 2
Fore
SplineSet
499 700 m 0
 435 700 387 752 387 815 c 0
 387 877 436 930 499 930 c 0
 564 930 607 877 607 815 c 0
 607 753 564 700 499 700 c 0
160 508 m 1
 160 639 l 1
 842 639 l 1
 842 508 l 1
 160 508 l 1
497 215 m 0
 433 215 385 267 385 330 c 0
 385 392 434 445 497 445 c 0
 562 445 605 392 605 330 c 0
 605 268 562 215 497 215 c 0
EndSplineSet
Validated: 1
EndChar

StartChar: dollar
Encoding: 36 36 165
Width: 1200
VWidth: 0
GlyphClass: 2
Flags: W
PickledData: "(dp1
S'org.pippin.gimp.org.kernagic'
p2
(dp3
S'lstem'
p4
I0
ss."
HStem: -18 152<343.446 560 663 805.166> 572 173<414.372 560>
VStem: 147 163<829.263 1042.74> 560 103<-178 -16.1745 134 539 745 1098 1240 1390> 884 165<210.202 444.458>
LayerCount: 2
Fore
SplineSet
663 134 m 1
 779 137 884 204 884 329 c 0
 884 464 766 498 663 539 c 1
 663 134 l 1
560 745 m 1
 560 1100 l 1
 435 1100 310 1078 310 924 c 0
 310 805 467 759 560 745 c 1
147 929 m 0
 147 1156 372 1234 560 1240 c 1
 560 1390 l 1
 663 1390 l 1
 663 1236 l 1
 755 1234 994 1171 994 1171 c 1
 942 1040 l 1
 854 1077 757 1092 663 1098 c 1
 663 709 l 1
 848 646 1049 568 1049 340 c 0
 1049 101 880 0 663 -18 c 1
 663 -178 l 1
 560 -178 l 1
 560 -20 l 1
 434 -11 331 23 211 63 c 1
 260 207 l 1
 361 169 452 142 560 129 c 1
 560 572 l 1
 346 617 147 664 147 929 c 0
EndSplineSet
Validated: 1
EndChar

StartChar: dotaccent
Encoding: 729 729 166
Width: 660
VWidth: 0
GlyphClass: 2
Flags: W
PickledData: "(dp1
S'org.pippin.gimp.org.kernagic'
p2
(dp3
S'lstem'
p4
I0
ss."
HStem: -17 230<238.535 413.618>
VStem: 215 220<6.29114 189.709>
LayerCount: 2
Fore
SplineSet
327 -17 m 0
 263 -17 215 35 215 98 c 0
 215 160 264 213 327 213 c 0
 392 213 435 160 435 98 c 0
 435 36 392 -17 327 -17 c 0
EndSplineSet
Validated: 1
EndChar

StartChar: dotlessi
Encoding: 305 305 167
Width: 660
VWidth: 0
GlyphClass: 2
Flags: W
PickledData: "(dp1
S'org.pippin.gimp.org.kernagic'
p2
(dp3
S'lstem'
p4
I0
ss."
HStem: 0 21G<235 417> 1149 20G<235 417>
VStem: 235 182<0 1169>
LayerCount: 2
Fore
SplineSet
235 0 m 1
 235 1169 l 1
 417 1169 l 1
 417 0 l 1
 235 0 l 1
EndSplineSet
Validated: 1
EndChar

StartChar: e
Encoding: 101 101 168
Width: 1176
VWidth: 0
GlyphClass: 2
Flags: W
PickledData: "(dp1
S'org.pippin.gimp.org.kernagic'
p2
(dp3
S'lstem'
p4
I0
ssS'com.typemytype.robofont.layerData'
p5
(dp6
s."
HStem: -20 137<463.039 834.283> 563 119<296 895> 1057 133<454.982 774.95>
VStem: 105 187<317.987 563 682 848.249> 895 168<682 919.729>
LayerCount: 2
Fore
SplineSet
296 682 m 1
 895 682 l 1
 895 717 l 2
 895 898 826 1057 621 1057 c 0
 393 1057 313 882 296 682 c 1
629 -20 m 0
 267 -20 105 246 105 578 c 0
 105 897 268 1190 620 1190 c 0
 926 1190 1063 957 1063 676 c 0
 1063 638 1058 600 1052 563 c 1
 292 563 l 1
 294 326 375 117 641 117 c 0
 754 117 862 162 947 230 c 1
 1008 106 l 1
 914 25 751 -20 629 -20 c 0
EndSplineSet
Validated: 1
EndChar

StartChar: eight
Encoding: 56 56 175
Width: 1284
VWidth: 0
GlyphClass: 2
Flags: W
PickledData: "(dp1
S'org.pippin.gimp.org.kernagic'
p2
(dp3
S'lstem'
p4
I0
ss."
HStem: -148 139<440.632 836.404> 575 116<483.615 792.468> 1199 135<445.585 831.372>
VStem: 161 178<87.2418 426.614 825.502 1101.89> 929 178<81.4445 426.834 818.484 1106.38>
LayerCount: 2
Fore
SplineSet
640 691 m 0
 793 691 929 806 929 964 c 0
 929 1140 796 1199 640 1199 c 0
 486 1199 339 1145 339 966 c 0
 339 805 486 691 640 691 c 0
640 -9 m 0
 832 -9 929 54 929 253 c 0
 929 422 819 575 640 575 c 0
 459 575 339 430 339 255 c 0
 339 54 450 -9 640 -9 c 0
640 -148 m 0
 399 -148 161 -41 161 233 c 0
 161 418 237 578 423 636 c 1
 268 687 161 798 161 968 c 0
 161 1231 413 1334 640 1334 c 0
 869 1334 1107 1227 1107 966 c 0
 1107 795 1000 687 845 634 c 1
 1031 576 1107 416 1107 231 c 0
 1107 -41 882 -148 640 -148 c 0
EndSplineSet
Validated: 1
EndChar

StartChar: emdash
Encoding: 8212 8212 178
Width: 1176
VWidth: 0
GlyphClass: 2
Flags: W
PickledData: "(dp1
S'org.pippin.gimp.org.kernagic'
p2
(dp3
S'lstem'
p4
I0
ss."
HStem: 555 144<118 1058>
LayerCount: 2
Fore
SplineSet
118 555 m 1
 118 699 l 1
 1058 699 l 1
 1058 555 l 1
 118 555 l 1
EndSplineSet
Validated: 1
EndChar

StartChar: endash
Encoding: 8211 8211 179
Width: 852
VWidth: 0
GlyphClass: 2
Flags: W
PickledData: "(dp1
S'org.pippin.gimp.org.kernagic'
p2
(dp3
S'lstem'
p4
I0
ss."
HStem: 555 144<187 657>
VStem: 187 470<555 699>
LayerCount: 2
Fore
SplineSet
187 555 m 1
 187 699 l 1
 657 699 l 1
 657 555 l 1
 187 555 l 1
EndSplineSet
Validated: 1
EndChar

StartChar: equal
Encoding: 61 61 181
Width: 936
VWidth: 0
GlyphClass: 2
Flags: W
PickledData: "(dp1
S'org.pippin.gimp.org.kernagic'
p2
(dp3
S'lstem'
p4
I0
ss."
HStem: 280 131<173 761> 508 131<173 761>
VStem: 173 588<280 411 508 639>
LayerCount: 2
Fore
SplineSet
173 508 m 1
 173 639 l 1
 761 639 l 1
 761 508 l 1
 173 508 l 1
173 280 m 1
 173 411 l 1
 761 411 l 1
 761 280 l 1
 173 280 l 1
EndSplineSet
Validated: 1
EndChar

StartChar: eth
Encoding: 240 240 182
Width: 1260
VWidth: 0
GlyphClass: 2
Flags: W
PickledData: "(dp1
S'org.pippin.gimp.org.kernagic'
p2
(dp3
S'lstem'
p4
I0
ss."
HStem: -20 143<441.441 771.023> 1047 143<443.55 773.941> 1573 20G<1032.71 1109.33>
VStem: 111 182<305.994 863.473> 944 184<343.93 868.164>
LayerCount: 2
Fore
SplineSet
591 123 m 0
 906 123 944 412 944 666 c 0
 944 869 836 1047 617 1047 c 0
 342 1047 293 822 293 587 c 0
 293 384 335 123 591 123 c 0
595 -20 m 0
 245 -20 111 275 111 584 c 0
 111 870 241 1190 573 1190 c 0
 699 1190 857 1129 938 1028 c 1
 895 1158 818 1277 729 1380 c 1
 494 1311 l 1
 452 1401 l 1
 655 1461 l 1
 588 1528 515 1590 434 1641 c 1
 518 1743 l 1
 633 1679 721 1599 814 1508 c 1
 1100 1593 l 1
 1142 1503 l 1
 882 1426 l 1
 1048 1200 1128 973 1128 690 c 0
 1128 324 1021 -20 595 -20 c 0
EndSplineSet
Validated: 1
EndChar

StartChar: exclam
Encoding: 33 33 183
Width: 720
VWidth: 0
GlyphClass: 2
Flags: W
PickledData: "(dp1
S'org.pippin.gimp.org.kernagic'
p2
(dp3
S'lstem'
p4
I0
ss."
HStem: -16 202<251 460> 1559 20G<273 447>
VStem: 251 209<-16 186> 273 174<399 1579>
LayerCount: 2
Fore
SplineSet
447 399 m 1xd0
 273 399 l 1
 273 1579 l 1
 447 1579 l 1
 447 399 l 1xd0
460 -16 m 1xe0
 251 -16 l 1
 251 186 l 1
 460 186 l 1
 460 -16 l 1xe0
EndSplineSet
Validated: 1
EndChar

StartChar: exclamdown
Encoding: 161 161 184
Width: 732
VWidth: 0
GlyphClass: 2
Flags: W
PickledData: "(dp1
S'org.pippin.gimp.org.kernagic'
p2
(dp3
S'lstem'
p4
I0
ss."
HStem: 0 21G<287 461> 1160 20G<287 461> 1393 202<237 446>
VStem: 237 209<1393 1595> 287 174<0 1180>
LayerCount: 2
Fore
SplineSet
237 1393 m 1xf0
 237 1595 l 1
 446 1595 l 1
 446 1393 l 1
 237 1393 l 1xf0
287 0 m 1xe8
 287 1180 l 1
 461 1180 l 1
 461 0 l 1
 287 0 l 1xe8
EndSplineSet
Validated: 1
EndChar

StartChar: f
Encoding: 102 102 185
Width: 828
VWidth: 0
GlyphClass: 2
Flags: W
PickledData: "(dp1
S'org.pippin.gimp.org.kernagic'
p2
(dp3
S'lstem'
p4
I0
ssS'com.typemytype.robofont.layerData'
p5
(dp6
s."
HStem: 0 21G<251 441> 1064 105<56 251 441 789> 1516 143<497.32 744.267>
VStem: 251 190<0 1064 1169 1454.56>
LayerCount: 2
Fore
SplineSet
251 0 m 1
 251 1064 l 1
 56 1064 l 1
 56 1169 l 1
 251 1169 l 1
 251 1444 307 1659 582 1659 c 0
 663 1659 759 1615 824 1567 c 1
 770 1457 l 1
 724 1493 656 1516 597 1516 c 0
 441 1516 441 1332 441 1169 c 1
 789 1169 l 1
 789 1064 l 1
 441 1064 l 1
 441 0 l 1
 251 0 l 1
EndSplineSet
Validated: 1
EndChar

StartChar: ff
Encoding: 64256 64256 186
Width: 1308
VWidth: 0
GlyphClass: 3
Flags: W
PickledData: "(dp1
S'org.pippin.gimp.org.kernagic'
p2
(dp3
S'lstem'
p4
I0
ss."
HStem: 0 21G<172 362 865 1055> 1064 105<-18 172 362 865 1055 1403> 1516 143<399.152 645.931 1092.15 1338.93>
VStem: 172 190<0 1064 1169 1472.95> 865 190<0 1064 1169 1472.95>
LayerCount: 2
Fore
SplineSet
172 0 m 1
 172 1064 l 1
 -18 1064 l 1
 -18 1169 l 1
 172 1169 l 1
 172 1421 199 1659 503 1659 c 0
 584 1659 680 1615 745 1567 c 1
 682 1442 l 1
 640 1480 586 1516 527 1516 c 0
 380 1516 357 1430 357 1324 c 0
 357 1275 362 1221 362 1169 c 1
 865 1169 l 1
 865 1421 892 1659 1196 1659 c 0
 1277 1659 1373 1615 1438 1567 c 1
 1375 1442 l 1
 1333 1480 1279 1516 1220 1516 c 0
 1073 1516 1050 1430 1050 1324 c 0
 1050 1275 1055 1221 1055 1169 c 1
 1403 1169 l 1
 1403 1064 l 1
 1055 1064 l 1
 1055 0 l 1
 865 0 l 1
 865 1064 l 1
 362 1064 l 1
 362 0 l 1
 172 0 l 1
EndSplineSet
Validated: 1
Ligature2: "ligaStandardLigatureslookup0 subtable" f f
EndChar

StartChar: ffi
Encoding: 64259 64259 187
Width: 1920
VWidth: 0
GlyphClass: 3
Flags: W
PickledData: "(dp1
S'org.pippin.gimp.org.kernagic'
p2
(dp3
S'lstem'
p4
I0
ss."
HStem: 0 21G<165 355 870 1060 1576 1758> 1064 105<-25 165 355 870 1060 1576> 1347 230<1582.53 1757.62> 1516 143<392.152 638.931 1097.15 1343.93>
VStem: 165 190<0 1064 1169 1472.95> 870 190<0 1064 1169 1472.95> 1559 220<1370.29 1553.71> 1576 182<0 1064>
LayerCount: 2
Fore
SplineSet
1671 1347 m 0xee
 1607 1347 1559 1399 1559 1462 c 0
 1559 1524 1608 1577 1671 1577 c 0
 1736 1577 1779 1524 1779 1462 c 0
 1779 1400 1736 1347 1671 1347 c 0xee
165 0 m 1
 165 1064 l 1
 -25 1064 l 1
 -25 1169 l 1
 165 1169 l 1
 165 1421 192 1659 496 1659 c 0
 577 1659 673 1615 738 1567 c 1
 675 1442 l 1
 633 1480 579 1516 520 1516 c 0
 373 1516 350 1430 350 1324 c 0
 350 1275 355 1221 355 1169 c 1
 870 1169 l 1
 870 1421 897 1659 1201 1659 c 0
 1282 1659 1378 1615 1443 1567 c 1
 1380 1442 l 1
 1338 1480 1284 1516 1225 1516 c 0
 1078 1516 1055 1430 1055 1324 c 0
 1055 1275 1060 1221 1060 1169 c 1
 1758 1169 l 1
 1758 0 l 1
 1576 0 l 1
 1576 1064 l 1xdd
 1060 1064 l 1
 1060 0 l 1
 870 0 l 1
 870 1064 l 1
 355 1064 l 1
 355 0 l 1
 165 0 l 1
EndSplineSet
Validated: 1
Ligature2: "ligaStandardLigatureslookup0 subtable" f f i
EndChar

StartChar: five
Encoding: 53 53 188
Width: 1200
VWidth: 0
GlyphClass: 2
Flags: W
PickledData: "(dp1
S'org.pippin.gimp.org.kernagic'
p2
(dp3
S'lstem'
p4
I0
ss."
HStem: -207 151<318.036 745.66> 562 136<391.94 740.947> 1018 151<349 952>
VStem: 204 145<622 1018> 868 172<62.9517 433.497>
LayerCount: 2
Fore
SplineSet
549 -207 m 0
 407 -207 296 -165 168 -114 c 1
 219 31 l 1
 317 -19 441 -56 551 -56 c 0
 752 -56 868 36 868 244 c 0
 868 435 770 562 571 562 c 0
 473 562 358 510 272 468 c 1
 204 537 l 1
 204 1169 l 1
 952 1169 l 1
 952 1018 l 1
 349 1018 l 1
 349 622 l 1
 400 679 519 698 589 698 c 0
 858 698 1040 518 1040 248 c 0
 1040 -49 833 -207 549 -207 c 0
EndSplineSet
Validated: 1
EndChar

StartChar: fj
Encoding: 65537 -1 189
Width: 1308
VWidth: 0
GlyphClass: 3
Flags: W
PickledData: "(dp1
S'org.pippin.gimp.org.kernagic'
p2
(dp3
S'lstem'
p4
I0
ss."
HStem: 0 21G<239 429> 1064 105<44 239 429 912> 1347 230<917.535 1092.62> 1529 136<483.984 722.886>
VStem: 239 190<0 1064 1169 1467.88> 894 220<1370.29 1553.71> 912 190<-95.0117 1064>
LayerCount: 2
Fore
SplineSet
1006 1347 m 0xec
 942 1347 894 1399 894 1462 c 0
 894 1524 943 1577 1006 1577 c 0
 1071 1577 1114 1524 1114 1462 c 0
 1114 1400 1071 1347 1006 1347 c 0xec
771 -373 m 1
 724 -258 l 1
 898 -147 912 -14 912 176 c 2
 912 1064 l 1
 429 1064 l 1
 429 0 l 1
 239 0 l 1
 239 1064 l 1
 44 1064 l 1
 44 1169 l 1
 239 1169 l 1
 239 1492 325 1665 559 1665 c 0
 629 1665 715 1638 820 1578 c 1
 766 1458 l 1
 692 1508 636 1529 594 1529 c 0
 440 1529 429 1402 429 1169 c 1
 1102 1169 l 1
 1102 154 l 2xda
 1102 -68 1009 -315 771 -373 c 1
EndSplineSet
Validated: 1
Ligature2: "ligaStandardLigatureslookup0 subtable" f j
EndChar

StartChar: florin
Encoding: 402 402 190
Width: 1128
VWidth: 0
GlyphClass: 2
Flags: W
PickledData: "(dp1
S'org.pippin.gimp.org.kernagic'
p2
(dp3
S'lstem'
p4
I0
ss."
HStem: -340 157<-9.21179 266.475> 1034 105<260 444 645 982> 1516 143<722.958 962.659>
LayerCount: 2
Fore
SplineSet
117 -340 m 0
 46 -340 -28 -301 -80 -258 c 1
 -4 -133 l 1
 56 -168 107 -183 147 -183 c 0
 299 -183 316 -87 340 138 c 1
 444 1034 l 1
 249 1034 l 1
 260 1139 l 1
 455 1139 l 1
 483 1406 537 1659 841 1659 c 0
 922 1659 1013 1615 1073 1567 c 1
 997 1442 l 1
 959 1480 909 1516 850 1516 c 0
 633 1516 663 1314 645 1139 c 1
 993 1139 l 1
 982 1034 l 1
 634 1034 l 1
 536 210 l 2
 497 -119 449 -340 117 -340 c 0
EndSplineSet
Validated: 1
EndChar

StartChar: four
Encoding: 52 52 191
Width: 1200
VWidth: 0
GlyphClass: 2
Flags: W
PickledData: "(dp1
S'org.pippin.gimp.org.kernagic'
p2
(dp3
S'lstem'
p4
I0
ss."
HStem: 68 137<291 781 952 1138>
VStem: 781 171<-260 68 207 930>
LayerCount: 2
Fore
SplineSet
291 205 m 1
 781 205 l 1
 781 930 l 1
 291 205 l 1
781 -260 m 1
 781 68 l 1
 134 68 l 1
 106 205 l 1
 790 1208 l 1
 952 1169 l 1
 952 207 l 1
 1138 207 l 1
 1138 68 l 1
 952 68 l 1
 952 -260 l 1
 781 -260 l 1
EndSplineSet
Validated: 1
EndChar

StartChar: fraction
Encoding: 8260 8260 192
Width: 1260
VWidth: 0
GlyphClass: 2
Flags: W
PickledData: "(dp1
S'org.pippin.gimp.org.kernagic'
p2
(dp3
S'lstem'
p4
I0
ss."
LayerCount: 2
Fore
SplineSet
178 -123 m 1
 58 -30 l 1
 1097 1365 l 1
 1219 1272 l 1
 178 -123 l 1
EndSplineSet
Validated: 1
EndChar

StartChar: g
Encoding: 103 103 193
Width: 1188
VWidth: 0
GlyphClass: 2
Flags: W
PickledData: "(dp1
S'org.pippin.gimp.org.kernagic'
p2
(dp3
S'lstem'
p4
I0
ssS'com.typemytype.robofont.layerData'
p5
(dp6
S'b'
(dp7
S'name'
p8
S'g'
sS'lib'
p9
(dp10
sS'unicodes'
p11
(tsS'width'
p12
I1218
sS'contours'
p13
((dp14
S'points'
p15
((dp16
S'segmentType'
p17
S'curve'
p18
sS'x'
F529
sS'smooth'
p19
I01
sS'y'
F551
s(dp20
S'y'
F551
sS'x'
F405
sg19
I00
s(dp21
S'y'
F651
sS'x'
F300
sg19
I00
s(dp22
g17
S'curve'
p23
sS'x'
F300
sg19
I01
sS'y'
F808
s(dp24
S'y'
F966
sS'x'
F300
sg19
I00
s(dp25
S'y'
F1059
sS'x'
F403
sg19
I00
s(dp26
g17
S'curve'
p27
sS'x'
F529
sg19
I01
sS'y'
F1059
s(dp28
S'y'
F1059
sS'x'
F656
sg19
I00
s(dp29
S'y'
F966
sS'x'
F758
sg19
I00
s(dp30
g17
S'curve'
p31
sS'x'
F758
sg19
I01
sS'y'
F808
s(dp32
S'y'
F651
sS'x'
F758
sg19
I00
s(dp33
S'y'
F551
sS'x'
F653
sg19
I00
stp34
s(dp35
g15
((dp36
g17
S'curve'
p37
sS'x'
F83
sg19
I01
sS'y'
F-119
s(dp38
S'y'
F-306
sS'x'
F83
sg19
I00
s(dp39
S'y'
F-410
sS'x'
F265
sg19
I00
s(dp40
g17
S'curve'
p41
sS'x'
F529
sg19
I01
sS'y'
F-410
s(dp42
S'y'
F-410
sS'x'
F864
sg19
I00
s(dp43
S'y'
F-237
sS'x'
F1075
sg19
I00
s(dp44
g17
S'curve'
p45
sS'x'
F1075
sg19
I01
sS'y'
F-37
s(dp46
S'y'
F143
sS'x'
F1075
sg19
I00
s(dp47
S'y'
F220
sS'x'
F948
sg19
I00
s(dp48
g17
S'curve'
p49
sS'x'
F698
sg19
I01
sS'y'
F220
s(dp50
g17
S'line'
p51
sS'x'
F489
sg19
I01
sS'y'
F220
s(dp52
S'y'
F220
sS'x'
F343
sg19
I00
s(dp53
S'y'
F269
sS'x'
F298
sg19
I00
s(dp54
g17
S'curve'
p55
sS'x'
F298
sg19
I01
sS'y'
F338
s(dp56
S'y'
F398
sS'x'
F298
sg19
I00
s(dp57
S'y'
F433
sS'x'
F329
sg19
I00
s(dp58
g17
S'curve'
p59
sS'x'
F367
sg19
I00
sS'y'
F467
s(dp60
S'y'
F442
sS'x'
F416
sg19
I00
s(dp61
S'y'
F429
sS'x'
F476
sg19
I00
s(dp62
g17
S'curve'
p63
sS'x'
F529
sg19
I01
sS'y'
F429
s(dp64
S'y'
F429
sS'x'
F749
sg19
I00
s(dp65
S'y'
F573
sS'x'
F924
sg19
I00
s(dp66
g17
S'curve'
p67
sS'x'
F924
sg19
I01
sS'y'
F804
s(dp68
S'y'
F895
sS'x'
F924
sg19
I00
s(dp69
S'y'
F977
sS'x'
F886
sg19
I00
s(dp70
g17
S'curve'
p71
sS'x'
F835
sg19
I00
sS'y'
F1026
s(dp72
g17
S'line'
p73
sS'x'
F1057
sg19
I00
sS'y'
F1026
s(dp74
g17
S'line'
p75
sS'x'
F1057
sg19
I00
sS'y'
F1166
s(dp76
g17
S'line'
p77
sS'x'
F682
sg19
I00
sS'y'
F1166
s(dp78
S'y'
F1181
sS'x'
F642
sg19
I00
s(dp79
S'y'
F1192
sS'x'
F589
sg19
I00
s(dp80
g17
S'curve'
p81
sS'x'
F529
sg19
I01
sS'y'
F1192
s(dp82
S'y'
F1192
sS'x'
F309
sg19
I00
s(dp83
S'y'
F1044
sS'x'
F123
sg19
I00
s(dp84
g17
S'curve'
p85
sS'x'
F123
sg19
I01
sS'y'
F808
s(dp86
S'y'
F680
sS'x'
F123
sg19
I00
s(dp87
S'y'
F575
sS'x'
F192
sg19
I00
s(dp88
g17
S'curve'
p89
sS'x'
F263
sg19
I00
sS'y'
F518
s(dp90
g17
S'line'
p91
sS'x'
F263
sg19
I00
sS'y'
F509
s(dp92
S'y'
F471
sS'x'
F207
sg19
I00
s(dp93
S'y'
F400
sS'x'
F145
sg19
I00
s(dp94
g17
S'curve'
p95
sS'x'
F145
sg19
I01
sS'y'
F309
s(dp96
S'y'
F225
sS'x'
F145
sg19
I00
s(dp97
S'y'
F167
sS'x'
F187
sg19
I00
s(dp98
g17
S'curve'
p99
sS'x'
F241
sg19
I00
sS'y'
F134
s(dp100
g17
S'line'
p101
sS'x'
F241
sg19
I00
sS'y'
F125
s(dp102
S'y'
F58
sS'x'
F143
sg19
I00
s(dp103
S'y'
F-28
sS'x'
F83
sg19
I00
stp104
s(dp105
g15
((dp106
g17
S'curve'
p107
sS'x'
F243
sg19
I01
sS'y'
F-95
s(dp108
S'y'
F-33
sS'x'
F243
sg19
I00
s(dp109
S'y'
F32
sS'x'
F276
sg19
I00
s(dp110
g17
S'curve'
p111
sS'x'
F354
sg19
I00
sS'y'
F87
s(dp112
S'y'
F74
sS'x'
F400
sg19
I00
s(dp113
S'y'
F69
sS'x'
F451
sg19
I00
s(dp114
g17
S'curve'
p115
sS'x'
F494
sg19
I01
sS'y'
F69
s(dp116
g17
S'line'
p117
sS'x'
F680
sg19
I01
sS'y'
F69
s(dp118
S'y'
F69
sS'x'
F820
sg19
I00
s(dp119
S'y'
F36
sS'x'
F897
sg19
I00
s(dp120
g17
S'curve'
p121
sS'x'
F897
sg19
I01
sS'y'
F-64
s(dp122
S'y'
F-177
sS'x'
F897
sg19
I00
s(dp123
S'y'
F-283
sS'x'
F762
sg19
I00
s(dp124
g17
S'curve'
p125
sS'x'
F556
sg19
I01
sS'y'
F-283
s(dp126
S'y'
F-283
sS'x'
F360
sg19
I00
s(dp127
S'y'
F-210
sS'x'
F243
sg19
I00
stp128
stp129
sS'components'
p130
(tsS'anchors'
p131
(tsss."
HStem: -412 134<328.268 831.743> 80 139<321.837 893.854> 428 120<384.204 716.716> 1026 145<913.46 1149> 1059 131<378.457 732.716>
VStem: 113 158<-224.572 12.6408 663.515 958.931> 137 162<220.149 403.368> 837 161<661.209 953.993> 932 162<-195.623 44.2808>
LayerCount: 2
Fore
SplineSet
547 548 m 0xed
 750 548 837 684 837 794 c 0
 837 945 750 1059 565 1059 c 0
 366 1059 271 960 271 817 c 0
 271 662 375 548 547 548 c 0xed
523 -278 m 0
 729 -278 932 -259 932 -86 c 0xe480
 932 70 849 80 738 80 c 0
 721 80 702 80 684 80 c 2
 368 80 l 1
 305 40 271 -42 271 -117 c 0
 271 -257 400 -278 523 -278 c 0
513 -412 m 0
 311 -412 113 -375 113 -132 c 0xf480
 113 -17 180 65 279 111 c 1
 216 122 137 180 137 274 c 0
 137 338 173 418 276 510 c 1
 222 538 111 631 111 818 c 0
 111 1009 291 1190 564 1190 c 0xea
 661 1190 765 1175 844 1114 c 1
 943 1165 1040 1170 1149 1171 c 1
 1149 1026 l 1
 911 1026 l 1
 955 990 996 900 998 824 c 1
 998 547 786 428 544 428 c 0
 414 428 350 471 350 471 c 1
 350 471 299 385 299 321 c 0xf3
 299 261 340 219 340 219 c 1
 636 219 l 2
 893 219 1094 201 1094 -81 c 0
 1094 -351 819 -412 513 -412 c 0
EndSplineSet
Validated: 1
EndChar

StartChar: gcedilla
Encoding: 291 291 195
Width: 1188
VWidth: 0
GlyphClass: 2
Flags: W
PickledData: "(dp1
S'org.pippin.gimp.org.kernagic'
p2
(dp3
S'lstem'
p4
I0
ss."
HStem: -427 150<307.756 872.115> 76 141<290.689 883.165> 1026 145<910.46 1146> 1058 132<367.445 756.839>
VStem: 84 158<-219.286 13.2212> 131 139<212.468 380.599 703.549 962.923> 824 167<668.574 990.554> 956 162<-207.191 11.8474>
LayerCount: 2
Fore
SplineSet
464 552 m 1xd2
 687 580 824 593 824 860 c 0
 824 1031 700 1058 557 1058 c 0
 416 1058 281 1009 281 845 c 0
 281 729 355 599 464 552 c 1xd2
574 -277 m 0
 584 -277 595 -277 607 -277 c 0
 736 -277 956 -270 956 -111 c 0
 956 65 798 76 661 76 c 2
 339 76 l 1
 276 37 242 -37 242 -110 c 0xc9
 242 -270 416 -277 541 -277 c 0
 552 -277 564 -277 574 -277 c 0
594 -427 m 0
 380 -427 84 -407 84 -125 c 0xe9
 84 -12 151 62 250 107 c 1
 181 154 131 235 131 320 c 0
 131 424 217 506 317 521 c 1
 188 578 120 718 120 854 c 0
 120 1089 358 1190 561 1190 c 0xd4
 658 1190 762 1175 841 1114 c 1
 940 1165 1037 1170 1146 1171 c 1
 1146 1026 l 1
 908 1026 l 1
 981 983 991 888 991 812 c 0
 991 296 270 511 270 322 c 0xe6
 270 284 280 246 291 210 c 1
 367 210 470 217 577 217 c 0
 835 217 1118 176 1118 -106 c 0
 1118 -372 801 -427 594 -427 c 0
EndSplineSet
Validated: 1
EndChar

StartChar: germandbls
Encoding: 223 223 198
Width: 1392
VWidth: 0
GlyphClass: 2
Flags: W
PickledData: "(dp1
S'org.pippin.gimp.org.kernagic'
p2
(dp3
S'lstem'
p4
I0
ss."
HStem: -129 156<531 891.86> -6 21G<160.981 337.364> 774 129<499 824.301> 1436 143<461.859 854.789>
VStem: 161 194<16 1324.31> 951 172<1022.46 1343.15> 1123 182<227.709 596.326>
LayerCount: 2
Fore
SplineSet
584 903 m 0xba
 787 903 951 949 951 1200 c 0
 951 1399 798 1436 630 1436 c 0
 356 1436 355 1240 355 1018 c 2
 355 16 l 1
 161 -6 l 1
 160 1046 l 2
 160 1381 271 1579 630 1579 c 0
 906 1579 1123 1484 1123 1176 c 0x7c
 1123 1015 1052 864 877 844 c 1
 1150 844 1305 661 1305 395 c 0
 1305 -37 881 -129 531 -129 c 1
 531 27 l 1
 847 27 1123 62 1123 432 c 0
 1123 759 740 774 499 774 c 1
 499 905 l 1
 528 904 555 903 584 903 c 0xba
EndSplineSet
Validated: 1
EndChar

StartChar: grave
Encoding: 96 96 199
Width: 804
VWidth: 0
GlyphClass: 2
Flags: W
PickledData: "(dp1
S'org.pippin.gimp.org.kernagic'
p2
(dp3
S'lstem'
p4
I0
ss."
HStem: 328 532
VStem: 160 471
LayerCount: 2
Fore
SplineSet
574 328 m 1
 160 759 l 1
 321 860 l 1
 631 354 l 1
 574 328 l 1
EndSplineSet
Validated: 1
EndChar

StartChar: greater
Encoding: 62 62 200
Width: 972
VWidth: 0
GlyphClass: 2
Flags: W
PickledData: "(dp1
S'org.pippin.gimp.org.kernagic'
p2
(dp3
S'lstem'
p4
I0
ss."
LayerCount: 2
Fore
SplineSet
213 60 m 1
 111 170 l 1
 662 663 l 1
 111 1156 l 1
 213 1266 l 1
 868 663 l 1
 213 60 l 1
EndSplineSet
Validated: 1
EndChar

StartChar: greaterequal
Encoding: 8805 8805 201
Width: 1008
VWidth: 0
GlyphClass: 2
Flags: W
PickledData: "(dp1
S'org.pippin.gimp.org.kernagic'
p2
(dp3
S'lstem'
p4
I0
ss."
HStem: 36 144<111 868>
LayerCount: 2
Fore
SplineSet
111 36 m 1
 111 180 l 1
 868 180 l 1
 868 36 l 1
 111 36 l 1
235 240 m 1
 153 350 l 1
 684 743 l 1
 153 1156 l 1
 235 1266 l 1
 890 743 l 1
 235 240 l 1
EndSplineSet
Validated: 1
EndChar

StartChar: guillemotleft
Encoding: 171 171 202
Width: 1356
VWidth: 0
GlyphClass: 2
Flags: W
PickledData: "(dp1
S'org.pippin.gimp.org.kernagic'
p2
(dp3
S'lstem'
p4
I0
ss."
LayerCount: 2
Fore
SplineSet
1266 99 m 1
 658 481 l 1
 658 666 l 1
 1266 1049 l 1
 1266 842 l 1
 829 577 l 1
 1266 306 l 1
 1266 99 l 1
658 99 m 1
 50 481 l 1
 50 666 l 1
 658 1049 l 1
 658 842 l 1
 222 577 l 1
 658 306 l 1
 658 99 l 1
EndSplineSet
Validated: 1
EndChar

StartChar: guillemotright
Encoding: 187 187 203
Width: 1356
VWidth: 0
GlyphClass: 2
Flags: W
PickledData: "(dp1
S'org.pippin.gimp.org.kernagic'
p2
(dp3
S'lstem'
p4
I0
ss."
LayerCount: 2
Fore
SplineSet
684 99 m 1
 684 306 l 1
 1131 577 l 1
 684 842 l 1
 684 1049 l 1
 1293 666 l 1
 1293 481 l 1
 684 99 l 1
77 99 m 1
 77 306 l 1
 524 577 l 1
 77 842 l 1
 77 1049 l 1
 686 666 l 1
 686 481 l 1
 77 99 l 1
EndSplineSet
Validated: 1
EndChar

StartChar: guilsinglleft
Encoding: 8249 8249 204
Width: 936
VWidth: 0
GlyphClass: 2
Flags: W
PickledData: "(dp1
S'org.pippin.gimp.org.kernagic'
p2
(dp3
S'lstem'
p4
I0
ss."
VStem: 153 608
LayerCount: 2
Fore
SplineSet
761 99 m 1
 153 481 l 1
 153 666 l 1
 761 1049 l 1
 761 842 l 1
 314 577 l 1
 761 306 l 1
 761 99 l 1
EndSplineSet
Validated: 1
EndChar

StartChar: guilsinglright
Encoding: 8250 8250 205
Width: 936
VWidth: 0
GlyphClass: 2
Flags: W
PickledData: "(dp1
S'org.pippin.gimp.org.kernagic'
p2
(dp3
S'lstem'
p4
I0
ss."
VStem: 166 608
LayerCount: 2
Fore
SplineSet
166 99 m 1
 166 306 l 1
 612 577 l 1
 166 842 l 1
 166 1049 l 1
 774 666 l 1
 774 481 l 1
 166 99 l 1
EndSplineSet
Validated: 1
EndChar

StartChar: h
Encoding: 104 104 206
Width: 1284
VWidth: 0
GlyphClass: 2
Flags: W
PickledData: "(dp1
S'org.pippin.gimp.org.kernagic'
p2
(dp3
S'lstem'
p4
I0
ssS'com.typemytype.robofont.layerData'
p5
(dp6
s."
HStem: 0 21G<160 350 947 1137> 1047 143<541.779 865.059>
VStem: 160 190<0 924.901 1011 1579> 947 190<0 953.321>
LayerCount: 2
Fore
SplineSet
160 0 m 1
 160 1579 l 1
 350 1616 l 1
 350 1011 l 1
 456 1108 576 1190 739 1190 c 0
 1032 1190 1137 1018 1137 727 c 2
 1137 0 l 1
 947 0 l 1
 947 727 l 2
 947 892 919 1047 725 1047 c 0
 601 1047 436 979 350 888 c 1
 350 0 l 1
 160 0 l 1
EndSplineSet
Validated: 1
EndChar

StartChar: hbar
Encoding: 295 295 207
Width: 1308
VWidth: 0
GlyphClass: 2
Flags: W
PickledData: "(dp1
S'org.pippin.gimp.org.kernagic'
p2
(dp3
S'lstem'
p4
I0
ss."
HStem: 0 21G<166 356 963 1153> 1047 143<547.779 872.648> 1357 117<43 166 356 725>
VStem: 166 190<0 924.901 1011 1357 1474 1579> 963 190<0 943.113>
LayerCount: 2
Fore
SplineSet
166 0 m 1
 166 1357 l 1
 43 1357 l 1
 43 1474 l 1
 166 1474 l 1
 166 1579 l 1
 356 1616 l 1
 356 1474 l 1
 725 1474 l 1
 725 1357 l 1
 356 1357 l 1
 356 1011 l 1
 462 1108 582 1190 745 1190 c 0
 1038 1190 1153 1018 1153 727 c 2
 1153 0 l 1
 963 0 l 1
 963 727 l 2
 963 892 925 1047 731 1047 c 0
 607 1047 442 979 356 888 c 1
 356 0 l 1
 166 0 l 1
EndSplineSet
Validated: 1
EndChar

StartChar: hungarumlaut
Encoding: 733 733 209
Width: 996
VWidth: 0
GlyphClass: 2
Flags: W
PickledData: "(dp1
S'org.pippin.gimp.org.kernagic'
p2
(dp3
S'lstem'
p4
I0
ss."
HStem: 328 532
LayerCount: 2
Fore
SplineSet
474 328 m 1
 417 354 l 1
 727 860 l 1
 888 759 l 1
 474 328 l 1
162 328 m 1
 105 354 l 1
 415 860 l 1
 576 759 l 1
 162 328 l 1
EndSplineSet
Validated: 1
EndChar

StartChar: hyphen
Encoding: 45 45 210
Width: 996
VWidth: 0
GlyphClass: 2
Flags: W
PickledData: "(dp1
S'org.pippin.gimp.org.kernagic'
p2
(dp3
S'lstem'
p4
I0
ss."
HStem: 508 157<160 836>
VStem: 160 676<508 665>
LayerCount: 2
Fore
SplineSet
160 508 m 1
 160 665 l 1
 836 665 l 1
 836 508 l 1
 160 508 l 1
EndSplineSet
Validated: 1
EndChar

StartChar: i
Encoding: 105 105 211
Width: 660
VWidth: 0
GlyphClass: 2
Flags: W
PickledData: "(dp1
S'org.pippin.gimp.org.kernagic'
p2
(dp3
S'lstem'
p4
I0
ss."
HStem: 0 21G<232 414> 1149 20G<232 414> 1347 230<238.535 413.618>
VStem: 215 220<1370.29 1553.71> 232 182<0 1169>
LayerCount: 2
Fore
SplineSet
327 1347 m 0xf0
 263 1347 215 1399 215 1462 c 0
 215 1524 264 1577 327 1577 c 0
 392 1577 435 1524 435 1462 c 0
 435 1400 392 1347 327 1347 c 0xf0
232 0 m 1xe8
 232 1169 l 1
 414 1169 l 1
 414 0 l 1
 232 0 l 1xe8
EndSplineSet
Validated: 1
EndChar

StartChar: ij
Encoding: 307 307 217
Width: 1056
VWidth: 0
GlyphClass: 2
Flags: W
PickledData: "(dp1
S'org.pippin.gimp.org.kernagic'
p2
(dp3
S'lstem'
p4
I0
ss."
HStem: 0 21G<170 352> 1149 20G<170 352 694 884> 1347 230<176.535 351.618 699.535 874.618>
VStem: 153 220<1370.29 1553.71> 170 182<0 1169> 676 220<1370.29 1553.71> 694 190<-95.0117 1169>
LayerCount: 2
Fore
SplineSet
788 1347 m 0xe4
 724 1347 676 1399 676 1462 c 0
 676 1524 725 1577 788 1577 c 0
 853 1577 896 1524 896 1462 c 0
 896 1400 853 1347 788 1347 c 0xe4
265 1347 m 0
 201 1347 153 1399 153 1462 c 0
 153 1524 202 1577 265 1577 c 0
 330 1577 373 1524 373 1462 c 0xf0
 373 1400 330 1347 265 1347 c 0
170 0 m 1xe8
 170 1169 l 1
 352 1169 l 1
 352 0 l 1
 170 0 l 1xe8
553 -373 m 1
 506 -258 l 1
 680 -147 694 -14 694 176 c 2
 694 1169 l 1
 884 1169 l 1
 884 154 l 2xe2
 884 -68 791 -315 553 -373 c 1
EndSplineSet
Validated: 1
EndChar

StartChar: integral
Encoding: 8747 8747 219
Width: 1404
VWidth: 0
GlyphClass: 2
Flags: W
PickledData: "(dp1
S'org.pippin.gimp.org.kernagic'
p2
(dp3
S'lstem'
p4
I0
ss."
HStem: -524 143<409.341 656.158> 1516 143<1107.84 1354.66>
LayerCount: 2
Fore
SplineSet
531 -524 m 0
 450 -524 359 -480 299 -432 c 1
 375 -307 l 1
 413 -345 463 -381 522 -381 c 0
 737 -381 707 -197 724 -34 c 2
 850 1169 l 2
 876 1421 929 1659 1233 1659 c 0
 1314 1659 1405 1615 1465 1567 c 1
 1389 1442 l 1
 1351 1480 1301 1516 1242 1516 c 0
 1027 1516 1057 1332 1040 1169 c 2
 914 -34 l 2
 888 -286 835 -524 531 -524 c 0
EndSplineSet
Validated: 1
EndChar

StartChar: j
Encoding: 106 106 222
Width: 696
VWidth: 0
GlyphClass: 2
Flags: W
PickledData: "(dp1
S'org.pippin.gimp.org.kernagic'
p2
(dp3
S'lstem'
p4
I153
ssS'com.typemytype.robofont.layerData'
p5
(dp6
s."
HStem: 1149 20G<298 488> 1347 230<303.535 478.618>
VStem: 280 220<1370.29 1553.71> 298 190<-95.0117 1169>
LayerCount: 2
Fore
SplineSet
392 1347 m 0xe0
 328 1347 280 1399 280 1462 c 0
 280 1524 329 1577 392 1577 c 0
 457 1577 500 1524 500 1462 c 0
 500 1400 457 1347 392 1347 c 0xe0
157 -373 m 1
 110 -258 l 1
 284 -147 298 -14 298 176 c 2
 298 1169 l 1
 488 1169 l 1
 488 154 l 2xd0
 488 -68 395 -315 157 -373 c 1
EndSplineSet
Validated: 1
EndChar

StartChar: k
Encoding: 107 107 224
Width: 1128
VWidth: 0
GlyphClass: 2
Flags: W
PickledData: "(dp1
S'org.pippin.gimp.org.kernagic'
p2
(dp3
S'lstem'
p4
I0
ssS'com.typemytype.robofont.layerData'
p5
(dp6
S'b'
(dp7
S'name'
p8
S'k'
sS'lib'
p9
(dp10
sS'unicodes'
p11
(tsS'width'
p12
I1096
sS'contours'
p13
(tsS'components'
p14
(tsS'anchors'
p15
(tsss."
HStem: 0 21G<153 343 905.519 1140> 1149 20G<845.152 1096>
VStem: 153 190<0 468 643 1579>
LayerCount: 2
Fore
SplineSet
153 0 m 1
 153 1579 l 1
 343 1614 l 1
 343 643 l 1
 865 1169 l 1
 1096 1169 l 1
 588 658 l 1
 1140 0 l 1
 922 0 l 1
 449 574 l 1
 343 468 l 1
 343 0 l 1
 153 0 l 1
EndSplineSet
Validated: 1
EndChar

StartChar: kgreenlandic
Encoding: 312 312 226
Width: 1212
VWidth: 0
GlyphClass: 2
Flags: W
PickledData: "(dp1
S'org.pippin.gimp.org.kernagic'
p2
(dp3
S'lstem'
p4
I0
ss."
HStem: 0 21G<153 343 921.703 1160> 1149 20G<881.373 1127>
VStem: 153 190<0 459 627 1579>
LayerCount: 2
Fore
SplineSet
153 0 m 1
 153 1579 l 1
 343 1614 l 1
 343 627 l 1
 902 1169 l 1
 1127 1169 l 1
 574 648 l 1
 1160 0 l 1
 939 0 l 1
 459 555 l 1
 343 459 l 1
 343 0 l 1
 153 0 l 1
EndSplineSet
Validated: 1
EndChar

StartChar: l
Encoding: 108 108 227
Width: 660
VWidth: 0
GlyphClass: 2
Flags: W
PickledData: "(dp1
S'org.pippin.gimp.org.kernagic'
p2
(dp3
S'lstem'
p4
I0
ssS'com.typemytype.robofont.layerData'
p5
(dp6
S'b'
(dp7
S'name'
p8
S'l'
sS'lib'
p9
(dp10
sS'unicodes'
p11
(tsS'width'
p12
I456
sS'contours'
p13
(tsS'components'
p14
(tsS'anchors'
p15
(tsss."
HStem: 0 21G<228 418>
VStem: 228 190<0 1579>
LayerCount: 2
Fore
SplineSet
228 0 m 1
 228 1579 l 1
 418 1614 l 1
 418 0 l 1
 228 0 l 1
EndSplineSet
Validated: 1
EndChar

StartChar: less
Encoding: 60 60 232
Width: 972
VWidth: 0
GlyphClass: 2
Flags: W
PickledData: "(dp1
S'org.pippin.gimp.org.kernagic'
p2
(dp3
S'lstem'
p4
I0
ss."
LayerCount: 2
Fore
SplineSet
753 60 m 1
 98 663 l 1
 753 1266 l 1
 855 1156 l 1
 304 663 l 1
 855 170 l 1
 753 60 l 1
EndSplineSet
Validated: 1
EndChar

StartChar: lessequal
Encoding: 8804 8804 233
Width: 1008
VWidth: 0
GlyphClass: 2
Flags: W
PickledData: "(dp1
S'org.pippin.gimp.org.kernagic'
p2
(dp3
S'lstem'
p4
I0
ss."
HStem: 36 144<133 890>
LayerCount: 2
Fore
SplineSet
133 36 m 1
 133 180 l 1
 890 180 l 1
 890 36 l 1
 133 36 l 1
766 240 m 1
 111 743 l 1
 766 1266 l 1
 848 1156 l 1
 317 743 l 1
 848 350 l 1
 766 240 l 1
EndSplineSet
Validated: 1
EndChar

StartChar: logicalnot
Encoding: 172 172 234
Width: 1572
VWidth: 0
GlyphClass: 2
Flags: W
PickledData: "(dp1
S'org.pippin.gimp.org.kernagic'
p2
(dp3
S'lstem'
p4
I0
ss."
HStem: 1023 151<56 1234>
VStem: 1234 176<338 1023>
LayerCount: 2
Fore
SplineSet
1234 338 m 1
 1234 1023 l 1
 56 1023 l 1
 56 1174 l 1
 1410 1174 l 1
 1410 338 l 1
 1234 338 l 1
EndSplineSet
Validated: 1
EndChar

StartChar: lozenge
Encoding: 9674 9674 235
Width: 1164
VWidth: 0
GlyphClass: 2
Flags: W
PickledData: "(dp1
S'org.pippin.gimp.org.kernagic'
p2
(dp3
S'lstem'
p4
I0
ss."
HStem: 0 21G<567.641 596.359> 1306 20G<567.641 596.359>
LayerCount: 2
Fore
SplineSet
582 0 m 1
 106 663 l 1
 582 1326 l 1
 1058 663 l 1
 582 0 l 1
582 220 m 1
 872 663 l 1
 582 1106 l 1
 292 663 l 1
 582 220 l 1
EndSplineSet
Validated: 1
EndChar

StartChar: lslash
Encoding: 322 322 236
Width: 660
VWidth: 0
GlyphClass: 2
Flags: W
PickledData: "(dp1
S'org.pippin.gimp.org.kernagic'
p2
(dp3
S'lstem'
p4
I0
ss."
HStem: 0 21G<228 418>
VStem: 228 190<0 1579>
LayerCount: 2
Fore
SplineSet
228 0 m 1
 228 1579 l 1
 418 1614 l 1
 418 0 l 1
 228 0 l 1
EndSplineSet
Validated: 1
EndChar

StartChar: m
Encoding: 109 109 237
Width: 1944
VWidth: 0
GlyphClass: 2
Flags: W
PickledData: "(dp1
S'org.pippin.gimp.org.kernagic'
p2
(dp3
S'lstem'
p4
I0
ssS'com.typemytype.robofont.guides'
p5
((dp6
S'angle'
p7
I0
sS'name'
p8
NsS'magnetic'
p9
I5
sS'isGlobal'
p10
I00
sS'y'
I876
sS'x'
I342
s(dp11
g7
I0
sg8
Nsg9
I5
sg10
I00
sS'y'
I990
sS'x'
I320
stp12
sS'com.typemytype.robofont.layerData'
p13
(dp14
S'b'
(dp15
g8
S'm'
sS'lib'
p16
(dp17
sS'unicodes'
p18
(tsS'width'
p19
I1944
sS'contours'
p20
((dp21
S'points'
p22
((dp23
S'segmentType'
p24
S'line'
p25
sS'x'
I868
sS'smooth'
p26
I00
sS'y'
I0
s(dp27
g24
S'line'
p28
sS'x'
I1058
sg26
I00
sS'y'
I0
s(dp29
g24
S'line'
p30
sS'x'
I1058
sg26
I00
sS'y'
I875
s(dp31
S'y'
I957
sS'x'
I1141
sg26
I00
s(dp32
S'y'
I1047
sS'x'
I1268
sg26
I00
s(dp33
g24
S'curve'
p34
sS'x'
I1438
sg26
I01
sS'y'
I1047
s(dp35
S'y'
I1047
sS'x'
I1629
sg26
I00
s(dp36
S'y'
I884
sS'x'
I1662
sg26
I00
s(dp37
g24
S'curve'
p38
sS'x'
I1662
sg26
I01
sS'y'
I727
s(dp39
g24
S'line'
p40
sS'x'
I1662
sg26
I00
sS'y'
I0
s(dp41
g24
S'line'
p42
sS'x'
I1852
sg26
I00
sS'y'
I0
s(dp43
g24
S'line'
p44
sS'x'
I1852
sg26
I01
sS'y'
I727
s(dp45
S'y'
I975
sS'x'
I1852
sg26
I00
s(dp46
S'y'
I1183
sS'x'
I1764
sg26
I00
s(dp47
g24
S'curve'
p48
sS'x'
I1489
sg26
I01
sS'y'
I1188
s(dp49
S'y'
I1191
sS'x'
I1308
sg26
I00
s(dp50
S'y'
I1109
sS'x'
I1132
sg26
I00
s(dp51
g24
S'curve'
p52
sS'x'
I1038
sg26
I00
sS'y'
I990
s(dp53
g24
S'line'
p54
sS'x'
I1008
sg26
I00
sS'y'
I1169
s(dp55
g24
S'line'
p56
sS'x'
I868
sg26
I00
sS'y'
I1169
stp57
stp58
sS'components'
p59
(tsS'anchors'
p60
(tsss."
HStem: 0 21G<146 336 880 1070 1614 1804> 1047 143<512.681 815.013 1248.88 1550.18> 1149 20G<146 289.352>
VStem: 146 190<0 916.586> 146 140<1083.46 1169> 880 190<0 902.392> 1614 190<0 982.232>
LayerCount: 2
Fore
SplineSet
146 0 m 1xd6
 146 1169 l 1
 286 1169 l 1xae
 316 990 l 1
 411 1120 559 1190 719 1190 c 0
 869 1190 993 1123 1040 978 c 1
 1132 1112 1289 1190 1452 1190 c 0
 1701 1190 1804 992 1804 766 c 2
 1804 0 l 1
 1614 0 l 1
 1614 768 l 2
 1614 912 1595 1047 1424 1047 c 0
 1281 1047 1165 963 1070 864 c 1
 1070 0 l 1
 880 0 l 1
 880 768 l 2
 880 912 860 1047 688 1047 c 0
 556 1047 424 964 336 876 c 1
 336 0 l 1
 146 0 l 1xd6
EndSplineSet
Validated: 1
EndChar

StartChar: macron
Encoding: 175 175 238
Width: 1008
VWidth: 0
GlyphClass: 2
Flags: W
PickledData: "(dp1
S'org.pippin.gimp.org.kernagic'
p2
(dp3
S'lstem'
p4
I0
ss."
HStem: 98 117<160 842>
LayerCount: 2
Fore
SplineSet
160 98 m 1
 160 215 l 1
 842 215 l 1
 842 98 l 1
 160 98 l 1
EndSplineSet
Validated: 1
EndChar

StartChar: minus
Encoding: 8722 8722 239
Width: 1008
VWidth: 0
GlyphClass: 2
Flags: W
PickledData: "(dp1
S'org.pippin.gimp.org.kernagic'
p2
(dp3
S'lstem'
p4
I0
ss."
HStem: 508 131<160 842>
LayerCount: 2
Fore
SplineSet
160 508 m 1
 160 639 l 1
 842 639 l 1
 842 508 l 1
 160 508 l 1
EndSplineSet
Validated: 1
EndChar

StartChar: mu
Encoding: 956 956 240
Width: 1308
VWidth: 0
GlyphClass: 2
Flags: W
PickledData: "(dp1
S'org.pippin.gimp.org.kernagic'
p2
(dp3
S'lstem'
p4
I0
ss."
HStem: -20 143<441.149 780.388> 1149 20G<166 340 939 1147>
VStem: 166 174<-291 113 234.937 1169> 939 208<233.725 1169> 1001 146<16 107.989>
LayerCount: 2
Fore
SplineSet
340 -291 m 1xe8
 166 -291 l 1
 166 1169 l 1
 340 1169 l 1
 340 442 l 2
 340 270 397 123 592 123 c 0
 707 123 864 183 939 274 c 1
 939 1169 l 1
 1147 1169 l 1xf0
 1147 16 l 1
 1001 16 l 1
 977 170 l 1
 873 54 739 -20 580 -20 c 0
 478 -20 400 35 340 113 c 1
 340 -291 l 1xe8
EndSplineSet
Validated: 1
EndChar

StartChar: multiply
Encoding: 215 215 241
Width: 1056
VWidth: 0
GlyphClass: 2
Flags: W
PickledData: "(dp1
S'org.pippin.gimp.org.kernagic'
p2
(dp3
S'lstem'
p4
I0
ss."
LayerCount: 2
Fore
SplineSet
207 127 m 1
 105 229 l 1
 422 546 l 1
 105 863 l 1
 207 965 l 1
 524 648 l 1
 841 965 l 1
 943 863 l 1
 626 546 l 1
 943 229 l 1
 841 127 l 1
 524 444 l 1
 207 127 l 1
EndSplineSet
Validated: 1
EndChar

StartChar: n
Encoding: 110 110 242
Width: 1296
VWidth: 0
GlyphClass: 2
Flags: W
PickledData: "(dp1
S'org.pippin.gimp.org.kernagic'
p2
(dp3
S'lstem'
p4
I0
sS'rstem'
p5
I0
ssS'com.typemytype.robofont.layerData'
p6
(dp7
S'b'
(dp8
S'name'
p9
S'n'
sS'lib'
p10
(dp11
sS'unicodes'
p12
(tsS'width'
p13
I1296
sS'contours'
p14
((dp15
S'points'
p16
((dp17
S'segmentType'
p18
S'line'
p19
sS'x'
I160
sS'smooth'
p20
I00
sS'y'
I0
s(dp21
g18
S'line'
p22
sS'x'
I350
sg20
I00
sS'y'
I0
s(dp23
g18
S'line'
p24
sS'x'
I350
sg20
I00
sS'y'
I880
s(dp25
S'y'
I956
sS'x'
I432
sg20
I00
s(dp26
S'y'
I1047
sS'x'
I619
sg20
I00
s(dp27
g18
S'curve'
p28
sS'x'
I730
sg20
I01
sS'y'
I1047
s(dp29
S'y'
I1047
sS'x'
I921
sg20
I00
s(dp30
S'y'
I884
sS'x'
I954
sg20
I00
s(dp31
g18
S'curve'
p32
sS'x'
I954
sg20
I01
sS'y'
I727
s(dp33
g18
S'line'
p34
sS'x'
I954
sg20
I00
sS'y'
I0
s(dp35
g18
S'line'
p36
sS'x'
I1144
sg20
I00
sS'y'
I0
s(dp37
g18
S'line'
p38
sS'x'
I1144
sg20
I01
sS'y'
I727
s(dp39
S'y'
I975
sS'x'
I1144
sg20
I00
s(dp40
S'y'
I1188
sS'x'
I1056
sg20
I00
s(dp41
g18
S'curve'
p42
sS'x'
I781
sg20
I01
sS'y'
I1188
s(dp43
S'y'
I1188
sS'x'
I632
sg20
I00
s(dp44
S'y'
I1101
sS'x'
I418
sg20
I00
s(dp45
g18
S'curve'
p46
sS'x'
I324
sg20
I00
sS'y'
I982
s(dp47
g18
S'line'
p48
sS'x'
I300
sg20
I00
sS'y'
I1169
s(dp49
g18
S'line'
p50
sS'x'
I160
sg20
I00
sS'y'
I1169
stp51
stp52
sS'components'
p53
(tsS'anchors'
p54
(tsss."
HStem: 0 21G<160 350 954 1144> 1047 141<545.797 867.29> 1149 20G<160 303.352>
VStem: 160 190<0 913.65> 160 140<1083.46 1169> 954 190<0 945.143>
LayerCount: 2
Fore
SplineSet
1144 727 m 2xcc
 1144 0 l 1
 954 0 l 1
 954 727 l 2
 954 884 921 1047 730 1047 c 0
 560 1047 433 957 350 875 c 1
 350 0 l 1
 160 0 l 1xd4
 160 1169 l 1
 300 1169 l 1xac
 330 990 l 1
 422 1107 593 1188 771 1188 c 0
 1053 1188 1144 978 1144 727 c 2xcc
EndSplineSet
Validated: 1
EndChar

StartChar: nine
Encoding: 57 57 246
Width: 1308
VWidth: 0
GlyphClass: 2
Flags: W
PickledData: "(dp1
S'org.pippin.gimp.org.kernagic'
p2
(dp3
S'lstem'
p4
I0
ss."
HStem: -161 145<439.749 543.653> 365 136<462.638 828.699> 1172 142<486.733 822.235>
VStem: 154 176<639.773 1013.34> 981 178<622.788 999.908>
LayerCount: 2
Fore
SplineSet
620 501 m 0
 719 501 908 556 975 635 c 1
 981 675 981 716 981 757 c 0
 981 974 904 1172 654 1172 c 0
 447 1172 330 1020 330 823 c 0
 330 642 429 501 620 501 c 0
444 -161 m 1
 401 -16 l 1
 671 39 909 229 961 509 c 1
 875 406 751 365 620 365 c 0
 344 365 154 544 154 823 c 0
 154 1120 359 1314 654 1314 c 0
 1007 1314 1159 1059 1159 733 c 0
 1159 280 882 -59 444 -161 c 1
EndSplineSet
Validated: 1
EndChar

StartChar: notequal
Encoding: 8800 8800 247
Width: 912
VWidth: 0
GlyphClass: 2
Flags: W
PickledData: "(dp1
S'org.pippin.gimp.org.kernagic'
p2
(dp3
S'lstem'
p4
I0
ss."
HStem: 280 131<160 339 494 748> 508 131<160 416 571 748>
VStem: 160 588<280 411 508 639>
LayerCount: 2
Fore
SplineSet
381 98 m 1
 287 137 l 1
 339 280 l 1
 160 280 l 1
 160 411 l 1
 383 411 l 1
 416 508 l 1
 160 508 l 1
 160 639 l 1
 461 639 l 1
 527 827 l 1
 621 788 l 1
 571 639 l 1
 748 639 l 1
 748 508 l 1
 527 508 l 1
 494 411 l 1
 748 411 l 1
 748 280 l 1
 450 280 l 1
 381 98 l 1
EndSplineSet
Validated: 1
EndChar

StartChar: numbersign
Encoding: 35 35 249
Width: 996
VWidth: 0
GlyphClass: 2
Flags: W
PickledData: "(dp1
S'org.pippin.gimp.org.kernagic'
p2
(dp3
S'lstem'
p4
I0
ss."
HStem: 561 123<70 236 389 563 715 891> 905 125<98 273 426 598 754 914>
LayerCount: 2
Fore
SplineSet
389 684 m 1
 572 684 l 1
 598 905 l 1
 416 905 l 1
 389 684 l 1
203 295 m 1
 236 561 l 1
 70 561 l 1
 70 684 l 1
 246 684 l 1
 273 905 l 1
 98 905 l 1
 98 1030 l 1
 287 1030 l 1
 318 1309 l 1
 457 1309 l 1
 426 1030 l 1
 615 1030 l 1
 643 1307 l 1
 785 1307 l 1
 754 1030 l 1
 914 1030 l 1
 914 905 l 1
 742 905 l 1
 715 684 l 1
 891 684 l 1
 891 561 l 1
 703 561 l 1
 672 295 l 1
 531 295 l 1
 563 561 l 1
 377 561 l 1
 344 295 l 1
 203 295 l 1
EndSplineSet
Validated: 1
EndChar

StartChar: o
Encoding: 111 111 250
Width: 1284
VWidth: 0
GlyphClass: 2
Flags: W
PickledData: "(dp1
S'org.pippin.gimp.org.kernagic'
p2
(dp3
S'lstem'
p4
I0
ssS'com.typemytype.robofont.layerData'
p5
(dp6
s."
HStem: -20 137<472.592 809.869> 1051 139<472.381 809.835>
VStem: 111 182<322.632 842.405> 989 183<322.197 842.623>
LayerCount: 2
Fore
SplineSet
641 -20 m 0
 282 -20 111 249 111 582 c 0
 111 914 282 1190 641 1190 c 0
 1001 1190 1172 915 1172 582 c 0
 1172 248 1000 -20 641 -20 c 0
641 117 m 0
 913 117 989 351 989 582 c 0
 989 812 912 1051 641 1051 c 0
 370 1051 293 812 293 582 c 0
 293 352 371 117 641 117 c 0
EndSplineSet
Validated: 1
EndChar

StartChar: oe
Encoding: 339 339 255
Width: 1944
VWidth: 0
GlyphClass: 2
Flags: W
PickledData: "(dp1
S'org.pippin.gimp.org.kernagic'
p2
(dp3
S'lstem'
p4
I0
ss."
HStem: -20 137<438.592 779.542 1313.18 1678.06> 563 119<1146 1745> 1057 133<449.67 767.978 1306.03 1624.95>
VStem: 77 182<322.632 842.405> 955 187<324.05 563 682 840.869> 1745 168<682 919.729>
LayerCount: 2
Fore
SplineSet
1146 682 m 1
 1745 682 l 1
 1745 717 l 2
 1745 898 1676 1057 1471 1057 c 0
 1243 1057 1163 882 1146 682 c 1
607 117 m 0
 879 117 955 351 955 582 c 0
 955 812 878 1051 607 1051 c 0
 336 1051 259 812 259 582 c 0
 259 352 337 117 607 117 c 0
607 -20 m 0
 248 -20 77 249 77 582 c 0
 77 914 248 1190 607 1190 c 0
 817 1190 962 1097 1047 953 c 1
 1130 1095 1269 1190 1470 1190 c 0
 1776 1190 1913 957 1913 676 c 0
 1913 638 1908 600 1902 563 c 1
 1142 563 l 1
 1144 326 1225 117 1491 117 c 0
 1604 117 1712 165 1797 244 c 1
 1859 99 l 1
 1760 30 1601 -20 1479 -20 c 0
 1270 -20 1127 69 1044 208 c 1
 959 69 814 -20 607 -20 c 0
EndSplineSet
Validated: 1
EndChar

StartChar: ogonek
Encoding: 731 731 256
Width: 876
VWidth: 0
GlyphClass: 2
Flags: W
PickledData: "(dp1
S'org.pippin.gimp.org.kernagic'
p2
(dp3
S'lstem'
p4
I0
ss."
HStem: -578 114<427.865 708.662> -443 20G<691 711>
VStem: 263 148<-444.582 -257.476>
LayerCount: 2
Fore
SplineSet
527 -578 m 0
 330 -578 263 -508 263 -414 c 0
 263 -235 503 33 540 76 c 1
 661 76 l 1
 661 76 411 -208 411 -364 c 0
 411 -423 447 -464 547 -464 c 0
 586 -464 671 -437 711 -423 c 1
 711 -540 l 1
 652 -560 590 -578 527 -578 c 0
EndSplineSet
Validated: 1
EndChar

StartChar: one
Encoding: 49 49 260
Width: 828
VWidth: 0
GlyphClass: 2
Flags: W
PickledData: "(dp1
S'org.pippin.gimp.org.kernagic'
p2
(dp3
S'lstem'
p4
I0
ss."
HStem: 0 21G<440 627>
VStem: 440 187<0 1057>
LayerCount: 2
Fore
SplineSet
440 0 m 1
 440 1057 l 1
 233 957 l 1
 180 1083 l 1
 437 1202 l 1
 627 1202 l 1
 627 0 l 1
 440 0 l 1
EndSplineSet
Validated: 1
EndChar

StartChar: onehalf
Encoding: 189 189 261
Width: 1752
VWidth: 0
GlyphClass: 2
Flags: W
PickledData: "(dp1
S'org.pippin.gimp.org.kernagic'
p2
(dp3
S'lstem'
p4
I0
ss."
HStem: -172 152<1234 1640> 655 143<1045.79 1453.32>
VStem: 200 160<568 1413> 1496 172<394.64 610.3>
LayerCount: 2
Fore
SplineSet
182 -123 m 1
 62 -30 l 1
 1101 1365 l 1
 1223 1272 l 1
 182 -123 l 1
200 568 m 1
 200 1413 l 1
 30 1341 l 1
 -3 1434 l 1
 230 1529 l 1
 360 1503 l 1
 360 568 l 1
 200 568 l 1
1002 -172 m 1
 1002 -35 l 1
 1102 54 1496 337 1496 514 c 0
 1496 620 1397 655 1307 655 c 0
 1211 655 1111 628 1019 603 c 1
 1019 748 l 1
 1116 785 1222 798 1325 798 c 0
 1500 798 1668 711 1668 517 c 0
 1668 289 1385 108 1234 -20 c 1
 1640 -20 l 1
 1640 -172 l 1
 1002 -172 l 1
EndSplineSet
Validated: 1
EndChar

StartChar: onequarter
Encoding: 188 188 262
Width: 1572
VWidth: 0
GlyphClass: 2
Flags: W
PickledData: "(dp1
S'org.pippin.gimp.org.kernagic'
p2
(dp3
S'lstem'
p4
I0
ss."
HStem: 34 110<827 1215 1360 1511>
VStem: 201 160<568 1413> 1215 145<-227 34 145 703>
LayerCount: 2
Fore
SplineSet
827 144 m 1
 1215 144 l 1
 1215 703 l 1
 1088 515 959 329 827 144 c 1
183 -123 m 1
 63 -30 l 1
 1102 1365 l 1
 1224 1272 l 1
 183 -123 l 1
201 568 m 1
 201 1413 l 1
 31 1341 l 1
 -3 1434 l 1
 231 1529 l 1
 361 1503 l 1
 361 568 l 1
 201 568 l 1
1215 -250 m 1
 1215 34 l 1
 690 34 l 1
 668 144 l 1
 1232 946 l 1
 1360 915 l 1
 1360 145 l 1
 1511 145 l 1
 1511 34 l 1
 1360 34 l 1
 1360 -227 l 1
 1215 -250 l 1
EndSplineSet
Validated: 1
EndChar

StartChar: ordfeminine
Encoding: 170 170 263
Width: 1068
VWidth: 0
GlyphClass: 2
Flags: W
PickledData: "(dp1
S'org.pippin.gimp.org.kernagic'
p2
(dp3
S'lstem'
p4
I0
ss."
HStem: 446 129<203 887> 668 113<341.774 635.277> 1158 100<368.56 728.903> 1513 125<306.083 683.836>
VStem: 139 161<824.07 1094.04> 732 161<856.361 1147.45 1218 1465.05> 777 116<686 761.397>
LayerCount: 2
Fore
SplineSet
203 446 m 1xf8
 203 575 l 1
 887 575 l 1
 887 446 l 1
 203 446 l 1xf8
494 781 m 0
 582 781 680 831 732 903 c 1
 732 1141 l 1xfc
 674 1150 615 1158 556 1158 c 0
 428 1158 300 1123 300 971 c 0
 300 828 352 781 494 781 c 0
456 668 m 0
 270 668 139 766 139 960 c 0
 139 1169 309 1258 498 1258 c 0
 576 1258 658 1243 732 1218 c 1
 732 1276 l 2
 732 1426 710 1513 540 1513 c 0
 447 1513 332 1488 249 1443 c 1
 196 1552 l 1
 290 1607 425 1638 532 1638 c 0
 820 1638 893 1506 893 1235 c 2xfc
 893 686 l 1
 777 686 l 1xfa
 750 828 l 1
 702 720 566 668 456 668 c 0
EndSplineSet
Validated: 1
EndChar

StartChar: ordmasculine
Encoding: 186 186 264
Width: 1104
VWidth: 0
GlyphClass: 2
Flags: W
PickledData: "(dp1
S'org.pippin.gimp.org.kernagic'
p2
(dp3
S'lstem'
p4
I0
ss."
HStem: 446 129<211 895> 670 127<402.044 696.408> 1512 126<402.23 695.782>
VStem: 125 157<930.613 1375.81> 816 158<930.189 1375.6>
LayerCount: 2
Fore
SplineSet
549 670 m 0
 262 670 125 886 125 1152 c 0
 125 1417 263 1638 549 1638 c 0
 836 1638 974 1417 974 1152 c 0
 974 885 837 670 549 670 c 0
549 797 m 0
 758 797 816 976 816 1154 c 0
 816 1330 756 1512 549 1512 c 0
 341 1512 282 1331 282 1154 c 0
 282 977 341 797 549 797 c 0
211 446 m 1
 211 575 l 1
 895 575 l 1
 895 446 l 1
 211 446 l 1
EndSplineSet
Validated: 1
EndChar

StartChar: oslash
Encoding: 248 248 265
Width: 1284
VWidth: 0
GlyphClass: 2
Flags: W
PickledData: "(dp1
S'org.pippin.gimp.org.kernagic'
p2
(dp3
S'lstem'
p4
I0
ss."
HStem: -20 137<537.514 810.223> 1051 139<472.204 750.371>
VStem: 111 182<317.741 842.405> 989 183<321.979 846.618>
LayerCount: 2
Fore
SplineSet
641 117 m 0
 913 117 989 351 989 582 c 0
 989 729 960 905 831 996 c 1
 536 130 l 1
 570 120 606 117 641 117 c 0
453 169 m 1
 752 1035 l 1
 716 1047 678 1051 641 1051 c 0
 370 1051 293 812 293 582 c 0
 293 434 322 259 453 169 c 1
425 -198 m 1
 337 -168 l 1
 404 28 l 1
 188 131 111 357 111 582 c 0
 111 914 281 1190 641 1190 c 0
 694 1190 748 1184 799 1170 c 1
 866 1365 l 1
 947 1335 l 1
 880 1140 l 1
 1093 1032 1172 809 1172 582 c 0
 1172 247 1002 -20 641 -20 c 0
 591 -20 540 -15 491 -2 c 1
 425 -198 l 1
EndSplineSet
Validated: 1
EndChar

StartChar: p
Encoding: 112 112 267
Width: 1284
VWidth: 0
GlyphClass: 2
Flags: W
PickledData: "(dp1
S'org.pippin.gimp.org.kernagic'
p2
(dp3
S'lstem'
p4
I0
ssS'com.typemytype.robofont.layerData'
p5
(dp6
s."
HStem: -487 21G<153 325.727> -20 137<516.217 827.665> 1047 143<522.339 838.538> 1149 20G<153 297.333>
VStem: 153 190<-465 164 242.468 927.665> 153 141<1082.98 1169> 985 182<309.353 858.665>
LayerCount: 2
Fore
SplineSet
678 117 m 0xea
 920 117 985 355 985 567 c 0
 985 759 949 1047 693 1047 c 0
 583 1047 420 972 343 890 c 1
 343 285 l 1
 408 202 577 117 678 117 c 0xea
153 -487 m 1xe6
 153 1169 l 1
 294 1169 l 1xd6
 327 971 l 1
 414 1088 541 1190 692 1190 c 0
 1036 1190 1167 882 1167 584 c 0
 1167 291 1034 -20 697 -20 c 0
 558 -20 430 58 343 164 c 1
 343 -465 l 1xea
 153 -487 l 1xe6
EndSplineSet
Validated: 1
EndChar

StartChar: paragraph
Encoding: 182 182 268
Width: 1308
VWidth: 0
GlyphClass: 2
Flags: W
PickledData: "(dp1
S'org.pippin.gimp.org.kernagic'
p2
(dp3
S'lstem'
p4
I0
ss."
HStem: 0 21G<595 785 920 1106> 1428 150<785 920>
VStem: 106 679<1078.39 1419.67> 595 190<0 905> 920 186<0 1428>
LayerCount: 2
Fore
SplineSet
595 0 m 1xd8
 595 905 l 1xd8
 365 905 106 971 106 1250 c 0xe8
 106 1551 407 1578 640 1578 c 2
 1106 1578 l 1
 1106 0 l 1
 920 0 l 1
 920 1428 l 1
 785 1428 l 1
 785 0 l 1
 595 0 l 1xd8
EndSplineSet
Validated: 1
EndChar

StartChar: parenleft
Encoding: 40 40 269
Width: 852
VWidth: 0
GlyphClass: 2
Flags: W
PickledData: "(dp1
S'org.pippin.gimp.org.kernagic'
p2
(dp3
S'lstem'
p4
I0
ss."
HStem: 1575 20G<447.5 600.765>
VStem: 202 186<353.21 1032.29>
LayerCount: 2
Fore
SplineSet
591 -205 m 1
 316 -30 202 392 202 696 c 0
 202 1003 316 1406 579 1595 c 1
 690 1493 l 1
 479 1307 388 965 388 694 c 0
 388 450 467 64 674 -97 c 1
 591 -205 l 1
EndSplineSet
Validated: 1
EndChar

StartChar: parenright
Encoding: 41 41 270
Width: 864
VWidth: 0
GlyphClass: 2
Flags: W
PickledData: "(dp1
S'org.pippin.gimp.org.kernagic'
p2
(dp3
S'lstem'
p4
I0
ss."
HStem: 1579 20G<245.63 396.5>
VStem: 463 187<360.608 1043.82>
LayerCount: 2
Fore
SplineSet
261 -205 m 1
 161 -99 l 1
 370 81 463 430 463 694 c 0
 463 947 384 1319 178 1491 c 1
 261 1599 l 1
 532 1413 650 1021 650 710 c 0
 650 382 545 -7 261 -205 c 1
EndSplineSet
Validated: 1
EndChar

StartChar: percent
Encoding: 37 37 271
Width: 1848
VWidth: 0
GlyphClass: 2
Flags: W
PickledData: "(dp1
S'org.pippin.gimp.org.kernagic'
p2
(dp3
S'lstem'
p4
I0
ss."
HStem: -21 110<1250.65 1481.54> 678 110<339.647 570.539 1241.05 1490.95> 1391 104<340.334 569.666>
VStem: 134 133<868.189 1309.69> 643 133<867.968 1309.69> 1045 133<169.189 610.692> 1554 133<168.968 610.692>
LayerCount: 2
Fore
SplineSet
1366 -21 m 0
 1140 -21 1045 172 1045 372 c 0
 1045 589 1115 796 1366 796 c 0
 1617 796 1687 589 1687 372 c 0
 1687 171 1593 -21 1366 -21 c 0
1366 89 m 0
 1532 89 1554 263 1554 393 c 0
 1554 520 1528 692 1366 692 c 0
 1204 692 1178 520 1178 393 c 0
 1178 263 1200 89 1366 89 c 0
630 -22 m 1
 500 37 l 1
 1182 1497 l 1
 1311 1430 l 1
 630 -22 l 1
455 678 m 0
 229 678 134 871 134 1071 c 0
 134 1288 204 1495 455 1495 c 0
 706 1495 776 1288 776 1071 c 0
 776 870 682 678 455 678 c 0
455 788 m 0
 621 788 643 962 643 1092 c 0
 643 1219 617 1391 455 1391 c 0
 293 1391 267 1219 267 1092 c 0
 267 962 289 788 455 788 c 0
EndSplineSet
Validated: 1
EndChar

StartChar: period
Encoding: 46 46 272
Width: 660
VWidth: 0
GlyphClass: 2
Flags: W
PickledData: "(dp1
S'org.pippin.gimp.org.kernagic'
p2
(dp3
S'lstem'
p4
I0
ss."
HStem: -17 230<238.535 413.618>
VStem: 215 220<6.29114 189.709>
LayerCount: 2
Fore
SplineSet
327 -17 m 0
 263 -17 215 35 215 98 c 0
 215 160 264 213 327 213 c 0
 392 213 435 160 435 98 c 0
 435 36 392 -17 327 -17 c 0
EndSplineSet
Validated: 1
EndChar

StartChar: periodcentered
Encoding: 183 183 273
Width: 660
VWidth: 0
GlyphClass: 2
Flags: W
PickledData: "(dp1
S'org.pippin.gimp.org.kernagic'
p2
(dp3
S'lstem'
p4
I0
ss."
HStem: 535 230<238.535 413.618>
VStem: 215 220<558.291 741.709>
LayerCount: 2
Fore
SplineSet
327 535 m 0
 263 535 215 587 215 650 c 0
 215 712 264 765 327 765 c 0
 392 765 435 712 435 650 c 0
 435 588 392 535 327 535 c 0
EndSplineSet
Validated: 1
EndChar

StartChar: plus
Encoding: 43 43 274
Width: 1068
VWidth: 0
GlyphClass: 2
Flags: W
PickledData: "(dp1
S'org.pippin.gimp.org.kernagic'
p2
(dp3
S'lstem'
p4
I0
ss."
HStem: 518 133<146 459 600 914>
VStem: 459 141<174 518 651 995>
LayerCount: 2
Fore
SplineSet
459 174 m 1
 459 518 l 1
 146 518 l 1
 146 651 l 1
 459 651 l 1
 459 995 l 1
 600 995 l 1
 600 651 l 1
 914 651 l 1
 914 518 l 1
 600 518 l 1
 600 174 l 1
 459 174 l 1
EndSplineSet
Validated: 1
EndChar

StartChar: plusminus
Encoding: 177 177 275
Width: 1044
VWidth: 0
GlyphClass: 2
Flags: W
PickledData: "(dp1
S'org.pippin.gimp.org.kernagic'
p2
(dp3
S'lstem'
p4
I0
ss."
HStem: -55 143<173 874> 518 133<139 452 593 907>
VStem: 452 141<174 518 651 995>
LayerCount: 2
Fore
SplineSet
173 -55 m 1
 173 88 l 1
 874 88 l 1
 874 -55 l 1
 173 -55 l 1
452 174 m 1
 452 518 l 1
 139 518 l 1
 139 651 l 1
 452 651 l 1
 452 995 l 1
 593 995 l 1
 593 651 l 1
 907 651 l 1
 907 518 l 1
 593 518 l 1
 593 174 l 1
 452 174 l 1
EndSplineSet
Validated: 1
EndChar

StartChar: q
Encoding: 113 113 276
Width: 1284
VWidth: 0
GlyphClass: 2
Flags: W
PickledData: "(dp1
S'org.pippin.gimp.org.kernagic'
p2
(dp3
S'lstem'
p4
I0
ssS'com.typemytype.robofont.layerData'
p5
(dp6
s."
HStem: -20 137<457.885 775.188> 1047 143<441.833 753.568> 1149 20G<985.186 1128>
VStem: 111 182<323.089 857.557> 938 190<-479 153 230.061 929.267> 989 139<1093.83 1169>
LayerCount: 2
Fore
SplineSet
601 117 m 0xd8
 715 117 856 184 938 268 c 1
 938 891 l 1
 854 975 705 1047 585 1047 c 0
 339 1047 293 774 293 584 c 0
 293 385 361 117 601 117 c 0xd8
938 -502 m 1
 938 153 l 1
 854 46 720 -20 582 -20 c 0
 242 -20 111 288 111 584 c 0
 111 878 230 1190 572 1190 c 0xd8
 721 1190 871 1097 952 975 c 1
 989 1169 l 1
 1128 1169 l 1xb4
 1128 -479 l 1
 938 -502 l 1
EndSplineSet
Validated: 1
EndChar

StartChar: question
Encoding: 63 63 277
Width: 1104
VWidth: 0
GlyphClass: 2
Flags: W
PickledData: "(dp1
S'org.pippin.gimp.org.kernagic'
p2
(dp3
S'lstem'
p4
I0
ss."
HStem: -40 209<245.501 412.705> 1332 21G<122.748 175.5> 1418 161<215.918 686.343>
VStem: 224 209<-20.4883 148.515> 247 180<292 688.197> 770 191<1053.84 1336.84>
LayerCount: 2
Fore
SplineSet
328 -40 m 0xf4
 268 -40 224 12 224 70 c 0
 224 127 278 169 332 169 c 0
 387 169 433 118 433 64 c 0
 433 7 385 -40 328 -40 c 0xf4
247 292 m 1xec
 247 777 l 1
 437 841 770 947 770 1197 c 0
 770 1392 622 1418 459 1418 c 0
 356 1418 220 1388 131 1332 c 1
 72 1475 l 1
 185 1540 350 1579 478 1579 c 0
 719 1579 961 1499 961 1216 c 0
 961 896 688 767 427 675 c 1
 427 292 l 1
 247 292 l 1xec
EndSplineSet
Validated: 1
EndChar

StartChar: questiondown
Encoding: 191 191 278
Width: 1140
VWidth: 0
GlyphClass: 2
Flags: W
PickledData: "(dp1
S'org.pippin.gimp.org.kernagic'
p2
(dp3
S'lstem'
p4
I0
ss."
HStem: -114 161<428.306 899.477> 1153 20G<688 868> 1296 209<702.001 869.499>
VStem: 154 191<127.718 411.752> 682 209<1316.4 1485.49> 688 180<776.7 1173>
LayerCount: 2
Fore
SplineSet
783 1296 m 0xf8
 727 1296 682 1346 682 1401 c 0
 682 1458 730 1505 787 1505 c 0
 847 1505 891 1453 891 1395 c 0
 891 1338 837 1296 783 1296 c 0xf8
637 -114 m 0
 396 -114 154 -34 154 249 c 0
 154 573 426 697 688 790 c 1
 688 1173 l 1
 868 1173 l 1
 868 688 l 1xf4
 678 622 345 518 345 268 c 0
 345 71 491 47 656 47 c 0
 759 47 895 77 984 133 c 1
 1043 -10 l 1
 933 -77 763 -114 637 -114 c 0
EndSplineSet
Validated: 1
EndChar

StartChar: quotedbl
Encoding: 34 34 279
Width: 876
VWidth: 0
GlyphClass: 2
Flags: W
PickledData: "(dp1
S'org.pippin.gimp.org.kernagic'
p2
(dp3
S'lstem'
p4
I0
ss."
HStem: 1058 521<209 317 547 655>
VStem: 148 230<1184.56 1579> 486 230<1184.56 1579>
LayerCount: 2
Fore
SplineSet
547 1058 m 1
 487 1508 l 2
 486 1515 486 1523 486 1531 c 0
 486 1547 487 1564 487 1579 c 1
 715 1579 l 1
 715 1564 716 1547 716 1531 c 0
 716 1523 716 1515 715 1508 c 2
 655 1058 l 1
 547 1058 l 1
209 1058 m 1
 149 1508 l 2
 148 1515 148 1523 148 1531 c 0
 148 1547 149 1564 149 1579 c 1
 377 1579 l 1
 377 1564 378 1547 378 1531 c 0
 378 1523 378 1515 377 1508 c 2
 317 1058 l 1
 209 1058 l 1
EndSplineSet
Validated: 1
EndChar

StartChar: quotedblbase
Encoding: 8222 8222 280
Width: 984
VWidth: 0
GlyphClass: 2
Flags: W
PickledData: "(dp1
S'org.pippin.gimp.org.kernagic'
p2
(dp3
S'lstem'
p4
I0
ss."
HStem: -272 94<204.222 245.056 573.222 614.056> -19 293<160 291 529 660>
VStem: 160 281<-16.9101 274> 291 150<-130.85 -19> 529 281<-16.9101 274> 660 150<-130.85 -19>
LayerCount: 2
Fore
SplineSet
581 -272 m 1xc8
 530 -178 l 1
 615 -149 661 -114 660 -19 c 1xc4
 529 -19 l 1
 529 274 l 1
 810 274 l 1
 810 25 l 2
 810 -129 727 -230 581 -272 c 1xc8
212 -272 m 1
 161 -178 l 1
 246 -149 292 -114 291 -19 c 1xd0
 160 -19 l 1
 160 274 l 1
 441 274 l 1
 441 25 l 2xe0
 441 -129 358 -230 212 -272 c 1
EndSplineSet
Validated: 33
EndChar

StartChar: quotedblleft
Encoding: 8220 8220 281
Width: 984
VWidth: 0
GlyphClass: 2
Flags: W
PickledData: "(dp1
S'org.pippin.gimp.org.kernagic'
p2
(dp3
S'lstem'
p4
I0
ss."
HStem: 1063 293<310 441 679 810> 1515 94<355.944 396.778 724.944 765.778>
VStem: 160 281<1063 1353.91> 160 150<1356 1467.85> 529 281<1063 1353.91> 529 150<1356 1467.85>
LayerCount: 2
Fore
SplineSet
529 1063 m 1xc8
 529 1312 l 2xc8
 529 1466 612 1567 758 1609 c 1
 809 1515 l 1
 723 1486 678 1452 679 1356 c 1xc4
 810 1356 l 1
 810 1063 l 1
 529 1063 l 1xc8
160 1063 m 1xe0
 160 1312 l 2xe0
 160 1466 243 1567 389 1609 c 1
 440 1515 l 1
 354 1486 309 1452 310 1356 c 1xd0
 441 1356 l 1
 441 1063 l 1
 160 1063 l 1xe0
EndSplineSet
Validated: 33
EndChar

StartChar: quotedblright
Encoding: 8221 8221 282
Width: 936
VWidth: 0
GlyphClass: 2
Flags: W
PickledData: "(dp1
S'org.pippin.gimp.org.kernagic'
p2
(dp3
S'lstem'
p4
I0
ss."
HStem: 1033 94<204.222 245.056 573.222 614.056> 1286 293<160 291 529 660>
VStem: 160 281<1288.09 1579> 291 150<1174.15 1286> 529 281<1288.09 1579> 660 150<1174.15 1286>
LayerCount: 2
Fore
SplineSet
581 1033 m 1xc8
 530 1127 l 1
 615 1156 661 1191 660 1286 c 1xc4
 529 1286 l 1
 529 1579 l 1
 810 1579 l 1
 810 1330 l 2
 810 1176 727 1075 581 1033 c 1xc8
212 1033 m 1
 161 1127 l 1
 246 1156 292 1191 291 1286 c 1xd0
 160 1286 l 1
 160 1579 l 1
 441 1579 l 1
 441 1330 l 2xe0
 441 1176 358 1075 212 1033 c 1
EndSplineSet
Validated: 33
EndChar

StartChar: quoteleft
Encoding: 8216 8216 283
Width: 720
VWidth: 0
GlyphClass: 2
Flags: W
PickledData: "(dp1
S'org.pippin.gimp.org.kernagic'
p2
(dp3
S'lstem'
p4
I0
ss."
HStem: 1485 94<410.944 451.778>
VStem: 215 281<1033 1323.91> 215 150<1326 1437.85>
LayerCount: 2
Fore
SplineSet
215 1033 m 1xc0
 215 1282 l 2xc0
 215 1436 298 1537 444 1579 c 1
 495 1485 l 1
 410 1456 364 1421 365 1326 c 1xa0
 496 1326 l 1
 496 1033 l 1
 215 1033 l 1xc0
EndSplineSet
Validated: 33
EndChar

StartChar: quoteright
Encoding: 8217 8217 284
Width: 672
VWidth: 0
GlyphClass: 2
Flags: W
PickledData: "(dp1
S'org.pippin.gimp.org.kernagic'
p2
(dp3
S'lstem'
p4
I0
ss."
HStem: 1033 94<245.222 286.056> 1559 20G<201 482>
VStem: 201 281<1288.09 1579> 332 150<1174.15 1286>
LayerCount: 2
Fore
SplineSet
253 1033 m 1xe0
 202 1127 l 1
 287 1156 333 1191 332 1286 c 1xd0
 201 1286 l 1
 201 1579 l 1
 482 1579 l 1
 482 1330 l 2
 482 1176 399 1075 253 1033 c 1xe0
EndSplineSet
Validated: 33
EndChar

StartChar: quotesinglbase
Encoding: 8218 8218 285
Width: 720
VWidth: 0
GlyphClass: 2
Flags: W
PickledData: "(dp1
S'org.pippin.gimp.org.kernagic'
p2
(dp3
S'lstem'
p4
I0
ss."
HStem: -253 94<259.222 300.056>
VStem: 215 281<2.0899 293> 346 150<-111.85 0>
LayerCount: 2
Fore
SplineSet
267 -253 m 1xc0
 216 -159 l 1
 301 -130 347 -95 346 0 c 1xa0
 215 0 l 1
 215 293 l 1
 496 293 l 1
 496 44 l 2
 496 -110 413 -211 267 -253 c 1xc0
EndSplineSet
Validated: 33
EndChar

StartChar: quotesingle
Encoding: 39 39 286
Width: 624
VWidth: 0
GlyphClass: 2
Flags: W
PickledData: "(dp1
S'org.pippin.gimp.org.kernagic'
p2
(dp3
S'lstem'
p4
I0
ss."
HStem: 1058 521<257 365>
VStem: 196 230<1184.56 1579>
LayerCount: 2
Fore
SplineSet
257 1058 m 1
 197 1508 l 2
 196 1515 196 1523 196 1531 c 0
 196 1547 197 1564 197 1579 c 1
 425 1579 l 1
 425 1564 426 1547 426 1531 c 0
 426 1523 426 1515 425 1508 c 2
 365 1058 l 1
 257 1058 l 1
EndSplineSet
Validated: 1
EndChar

StartChar: r
Encoding: 114 114 287
Width: 804
VWidth: 0
GlyphClass: 2
Flags: W
PickledData: "(dp1
S'org.pippin.gimp.org.kernagic'
p2
(dp3
S'lstem'
p4
I0
ssS'com.typemytype.robofont.layerData'
p5
(dp6
S'b'
(dp7
S'name'
p8
S'r'
sS'lib'
p9
(dp10
sS'unicodes'
p11
(tsS'width'
p12
I768
sS'contours'
p13
(tsS'components'
p14
(tsS'anchors'
p15
(tsss."
HStem: 0 21G<173 363> 1026 154<563.925 728>
VStem: 173 190<0 923.53> 173 143<1077.25 1169>
LayerCount: 2
Fore
SplineSet
173 0 m 1xe0
 173 1169 l 1
 316 1169 l 1xd0
 346 977 l 1
 428 1083 611 1180 728 1180 c 1
 747 1026 l 1
 681 1026 438 966 363 894 c 1
 363 0 l 1
 173 0 l 1xe0
EndSplineSet
Validated: 1
EndChar

StartChar: registered
Encoding: 174 174 291
Width: 1464
VWidth: 0
GlyphClass: 2
Flags: W
PickledData: "(dp1
S'org.pippin.gimp.org.kernagic'
p2
(dp3
S'lstem'
p4
I0
ss."
HStem: 542 99<523.055 931.66> 1068 82<657 697> 1326 82<657 841.272> 1572 102<523.656 931.677>
VStem: 139 108<907.666 1304.98> 548 106<807 1068 1150 1326> 853 104<1170.55 1310.35> 1210 108<908.509 1298.96>
LayerCount: 2
Fore
SplineSet
657 1150 m 1
 705 1150 l 2
 782 1150 853 1164 853 1256 c 0
 853 1321 753 1326 690 1326 c 0
 677 1326 666 1326 657 1326 c 1
 657 1150 l 1
728 542 m 0
 408 542 139 781 139 1108 c 0
 139 1433 411 1674 728 1674 c 0
 1046 1674 1318 1434 1318 1108 c 0
 1318 781 1047 542 728 542 c 0
727 641 m 0
 991 641 1210 837 1210 1106 c 0
 1210 1376 992 1572 727 1572 c 0
 461 1572 247 1375 247 1105 c 0
 247 834 461 641 727 641 c 0
871 785 m 1
 697 1068 l 1
 654 1068 l 1
 654 807 l 1
 548 807 l 1
 548 1408 l 1
 668 1408 l 2
 760 1408 957 1394 957 1261 c 0
 957 1146 895 1111 791 1086 c 1
 971 836 l 1
 937 823 903 802 871 785 c 1
EndSplineSet
Validated: 1
EndChar

StartChar: ring
Encoding: 730 730 292
Width: 852
VWidth: 0
GlyphClass: 2
Flags: W
PickledData: "(dp1
S'org.pippin.gimp.org.kernagic'
p2
(dp3
S'lstem'
p4
I0
ss."
HStem: 660 90<320.658 524.207> 1048 91<320.068 523.993>
VStem: 180 97<791.935 1006.34> 563 97<788.4 1009.49>
LayerCount: 2
Fore
SplineSet
424 660 m 0
 286 660 180 759 180 899 c 0
 180 1039 285 1139 424 1139 c 0
 561 1139 660 1035 660 899 c 0
 660 762 562 660 424 660 c 0
422 750 m 0
 506 750 563 817 563 899 c 0
 563 981 506 1048 422 1048 c 0
 339 1048 277 980 277 899 c 0
 277 819 341 750 422 750 c 0
EndSplineSet
Validated: 1
EndChar

StartChar: s
Encoding: 115 115 293
Width: 1032
VWidth: 0
GlyphClass: 2
Flags: W
PickledData: "(dp1
S'org.pippin.gimp.org.kernagic'
p2
(dp3
S'lstem'
p4
I0
ssS'com.typemytype.robofont.layerData'
p5
(dp6
S'b'
(dp7
S'name'
p8
S's'
sS'lib'
p9
(dp10
sS'unicodes'
p11
(tsS'width'
p12
I1032
sS'contours'
p13
(tsS'components'
p14
(tsS'anchors'
p15
(tsss."
HStem: -20 141<328.47 698.212> 1054 136<353.193 723.952>
VStem: 125 161<786.653 993.073> 769 168<188.809 436.336>
LayerCount: 2
Fore
SplineSet
510 -20 m 0
 403 -20 225 31 142 99 c 1
 197 237 l 1
 288 174 415 121 521 121 c 0
 631 121 769 152 769 310 c 0
 769 431 710 468 589 506 c 2
 387 569 l 2
 226 619 125 693 125 873 c 0
 125 1095 323 1190 513 1190 c 0
 643 1190 802 1147 886 1079 c 1
 829 947 l 1
 741 1012 641 1054 529 1054 c 0
 423 1054 287 1023 286 888 c 0
 286 806 332 761 454 723 c 2
 649 662 l 2
 820 608 937 530 937 322 c 0
 937 74 729 -20 510 -20 c 0
EndSplineSet
Validated: 1
EndChar

StartChar: section
Encoding: 167 167 299
Width: 1128
VWidth: 0
GlyphClass: 2
Flags: W
PickledData: "(dp1
S'org.pippin.gimp.org.kernagic'
p2
(dp3
S'lstem'
p4
I0
ss."
HStem: -96 146<333.586 712.601> 1424 145<366.512 734.939>
VStem: 161 154<651.743 857.853 1194.51 1373.07> 782 169<116.508 331.294 648.673 861.591>
LayerCount: 2
Fore
SplineSet
550 600 m 0
 650 600 789 624 789 751 c 0
 789 889 658 906 550 906 c 0
 443 906 315 886 315 753 c 0
 315 623 446 600 550 600 c 0
535 -96 m 0
 434 -96 250 -45 171 20 c 1
 232 158 l 1
 305 93 426 50 523 50 c 0
 637 50 782 82 782 223 c 0
 782 344 673 386 547 424 c 0
 365 479 161 527 161 771 c 0
 161 913 292 980 416 995 c 1
 269 1051 161 1115 161 1285 c 0
 161 1487 365 1569 538 1569 c 0
 634 1569 827 1516 900 1452 c 1
 842 1316 l 1
 758 1381 655 1424 548 1424 c 0
 447 1424 317 1402 317 1275 c 0
 317 1184 432 1148 564 1105 c 1
 746 1048 949 976 949 746 c 0
 949 610 823 531 700 522 c 1
 851 470 951 386 951 219 c 0
 951 -16 736 -96 535 -96 c 0
EndSplineSet
Validated: 1
EndChar

StartChar: semicolon
Encoding: 59 59 300
Width: 720
VWidth: 0
GlyphClass: 2
Flags: W
PickledData: "(dp1
S'org.pippin.gimp.org.kernagic'
p2
(dp3
S'lstem'
p4
I0
ss."
HStem: -253 94<259.222 300.056> 583 281<216 496>
VStem: 215 281<2.0899 293 583 864> 346 150<-111.85 0>
LayerCount: 2
Fore
SplineSet
216 583 m 1xe0
 216 864 l 1
 496 864 l 1
 496 583 l 1
 216 583 l 1xe0
267 -253 m 1
 216 -159 l 1
 301 -130 347 -95 346 0 c 1xd0
 215 0 l 1
 215 293 l 1
 496 293 l 1
 496 44 l 2
 496 -110 413 -211 267 -253 c 1
EndSplineSet
Validated: 33
EndChar

StartChar: seven
Encoding: 55 55 301
Width: 1152
VWidth: 0
GlyphClass: 2
Flags: W
PickledData: "(dp1
S'org.pippin.gimp.org.kernagic'
p2
(dp3
S'lstem'
p4
I0
ss."
HStem: 1074 155<134 812>
LayerCount: 2
Fore
SplineSet
455 -176 m 1
 287 -100 l 1
 812 1074 l 1
 134 1074 l 1
 134 1229 l 1
 970 1229 l 1
 1027 1107 l 1
 455 -176 l 1
EndSplineSet
Validated: 1
EndChar

StartChar: six
Encoding: 54 54 302
Width: 1308
VWidth: 0
GlyphClass: 2
Flags: W
PickledData: "(dp1
S'org.pippin.gimp.org.kernagic'
p2
(dp3
S'lstem'
p4
I0
ss."
HStem: -156 142<483.765 819.267> 657 136<483.338 843.168> 1174 145<769.399 866.251>
VStem: 147 178<158.092 535.2> 976 176<144.664 517.815>
LayerCount: 2
Fore
SplineSet
652 -14 m 0
 859 -14 976 138 976 335 c 0
 976 516 877 657 686 657 c 0
 586 657 400 600 331 523 c 1
 325 483 325 442 325 401 c 0
 325 184 402 -14 652 -14 c 0
652 -156 m 0
 299 -156 147 99 147 425 c 0
 147 878 424 1216 862 1319 c 1
 905 1174 l 1
 635 1117 397 931 345 649 c 1
 431 752 555 793 686 793 c 0
 961 793 1152 612 1152 335 c 0
 1152 38 947 -156 652 -156 c 0
EndSplineSet
Validated: 1
EndChar

StartChar: slash
Encoding: 47 47 303
Width: 996
VWidth: 0
GlyphClass: 2
Flags: W
PickledData: "(dp1
S'org.pippin.gimp.org.kernagic'
p2
(dp3
S'lstem'
p4
I0
ss."
LayerCount: 2
Fore
SplineSet
283 -179 m 1
 113 -117 l 1
 738 1731 l 1
 907 1669 l 1
 283 -179 l 1
EndSplineSet
Validated: 1
EndChar

StartChar: sterling
Encoding: 163 163 305
Width: 1152
VWidth: 0
GlyphClass: 2
Flags: W
PickledData: "(dp1
S'org.pippin.gimp.org.kernagic'
p2
(dp3
S'lstem'
p4
I0
ss."
HStem: 0 132<349 965> 603 103<113 285 468 896> 1180 142<437.079 839.28>
VStem: 170 182<802.52 1102.26> 310 158<320.476 603>
LayerCount: 2
Fore
SplineSet
168 0 m 1xe8
 168 126 l 1
 267 236 310 463 310 603 c 1xe8
 113 603 l 1
 113 706 l 1
 285 706 l 1
 219 757 170 875 170 956 c 0
 170 1167 357 1322 561 1322 c 0
 696 1322 882 1294 1000 1219 c 1
 950 1088 l 1
 845 1139 739 1180 620 1180 c 0
 469 1180 352 1126 352 959 c 0xf0
 352 862 403 775 468 706 c 1
 896 706 l 1
 896 603 l 1
 468 603 l 1
 468 464 435 249 349 132 c 1
 965 132 l 1
 965 0 l 1
 168 0 l 1xe8
EndSplineSet
Validated: 1
EndChar

StartChar: t
Encoding: 116 116 306
Width: 864
VWidth: 0
GlyphClass: 2
Flags: W
PickledData: "(dp1
S'org.pippin.gimp.org.kernagic'
p2
(dp3
S'lstem'
p4
I0
ssS'com.typemytype.robofont.layerData'
p5
(dp6
S'b'
(dp7
S'name'
p8
S't'
sS'lib'
p9
(dp10
sS'unicodes'
p11
(tsS'width'
p12
I946
sS'contours'
p13
((dp14
S'points'
p15
((dp16
S'segmentType'
p17
S'curve'
p18
sS'x'
I550
sS'smooth'
p19
I01
sS'y'
I-14
s(dp20
S'y'
I-14
sS'x'
I632
sg19
I00
s(dp21
S'y'
I5
sS'x'
I713
sg19
I00
s(dp22
g17
S'curve'
p23
sS'x'
I787
sg19
I00
sS'y'
I40
s(dp24
g17
S'line'
p25
sS'x'
I751
sg19
I00
sS'y'
I169
s(dp26
S'y'
I144
sS'x'
I699
sg19
I00
s(dp27
S'y'
I125
sS'x'
I640
sg19
I00
s(dp28
g17
S'curve'
p29
sS'x'
I582
sg19
I01
sS'y'
I125
s(dp30
S'y'
I125
sS'x'
I484
sg19
I00
s(dp31
S'y'
I206
sS'x'
I441
sg19
I00
s(dp32
g17
S'curve'
p33
sS'x'
I441
sg19
I01
sS'y'
I298
s(dp34
g17
S'line'
p35
sS'x'
I441
sg19
I00
sS'y'
I1065
s(dp36
g17
S'line'
p37
sS'x'
I774
sg19
I00
sS'y'
I1065
s(dp38
g17
S'line'
p39
sS'x'
I774
sg19
I00
sS'y'
I1169
s(dp40
g17
S'line'
p41
sS'x'
I441
sg19
I00
sS'y'
I1169
s(dp42
g17
S'line'
p43
sS'x'
I441
sg19
I00
sS'y'
I1576
s(dp44
g17
S'line'
p45
sS'x'
I279
sg19
I00
sS'y'
I1530
s(dp46
g17
S'line'
p47
sS'x'
I255
sg19
I00
sS'y'
I1169
s(dp48
g17
S'line'
p49
sS'x'
I68
sg19
I00
sS'y'
I1169
s(dp50
g17
S'line'
p51
sS'x'
I68
sg19
I00
sS'y'
I1065
s(dp52
g17
S'line'
p53
sS'x'
I251
sg19
I00
sS'y'
I1065
s(dp54
g17
S'line'
p55
sS'x'
I251
sg19
I01
sS'y'
I300
s(dp56
S'y'
I116
sS'x'
I251
sg19
I00
s(dp57
S'y'
I-14
sS'x'
I361
sg19
I00
stp58
stp59
sS'components'
p60
(tsS'anchors'
p61
(tsss."
HStem: -14 146<474.564 754.77> 1065 104<63 246 436 769>
VStem: 246 190<173.312 1065 1169 1353.83> 274 162<1314.36 1530>
LayerCount: 2
Fore
SplineSet
782 35 m 1xe0
 708 0 627 -14 545 -14 c 0
 356 -14 246 116 246 300 c 2
 246 1065 l 1xe0
 63 1065 l 1
 63 1169 l 1
 250 1169 l 1
 274 1530 l 1
 436 1576 l 1xd0
 436 1169 l 1
 769 1169 l 1
 769 1065 l 1
 436 1065 l 1
 436 298 l 2
 436 227 454 132 592 132 c 0
 633 132 684 140 748 160 c 1
 782 35 l 1xe0
EndSplineSet
Validated: 1
EndChar

StartChar: thorn
Encoding: 254 254 308
Width: 1284
VWidth: 0
GlyphClass: 2
Flags: W
PickledData: "(dp1
S'org.pippin.gimp.org.kernagic'
p2
(dp3
S'lstem'
p4
I0
ss."
HStem: -487 21G<146 315.091> -20 143<472.467 834.187> 1047 143<513.977 825.595>
VStem: 146 209<311.184 929> 146 186<-465 117 216.119 590.481 1004 1565> 978 182<310.513 856.541>
LayerCount: 2
Fore
SplineSet
699 123 m 0xf4
 916 123 978 366 978 543 c 0
 978 735 947 1047 691 1047 c 0
 568 1047 441 976 355 890 c 1
 339 244 l 1
 431 165 580 123 699 123 c 0xf4
146 -487 m 1xec
 146 1565 l 1
 330 1565 l 1
 330 1004 l 1
 416 1113 550 1190 691 1190 c 0
 1032 1190 1160 880 1160 584 c 0
 1160 291 1028 -20 691 -20 c 0
 560 -20 418 10 332 117 c 1
 332 -465 l 1
 146 -487 l 1xec
EndSplineSet
Validated: 1
EndChar

StartChar: three
Encoding: 51 51 309
Width: 1176
VWidth: 0
GlyphClass: 2
Flags: W
PickledData: "(dp1
S'org.pippin.gimp.org.kernagic'
p2
(dp3
S'lstem'
p4
I0
ss."
HStem: -198 139<308.244 739.093> 1063 143<291.5 726.811>
VStem: 816 165<711.899 982.732> 840 180<36.7947 333.835>
LayerCount: 2
Fore
SplineSet
552 -198 m 0xd0
 412 -198 272 -163 147 -102 c 1
 201 31 l 1
 302 -23 442 -59 556 -59 c 0
 720 -59 840 9 840 186 c 0xd0
 840 384 676 452 504 471 c 1
 504 614 l 1
 654 614 816 664 816 843 c 0
 816 1022 682 1063 527 1063 c 0
 423 1063 323 1037 230 992 c 1
 180 1125 l 1
 285 1172 419 1206 533 1206 c 0
 751 1206 981 1121 981 866 c 0xe0
 981 704 864 546 692 545 c 1
 890 504 1020 377 1020 166 c 0
 1020 -88 773 -198 552 -198 c 0xd0
EndSplineSet
Validated: 1
EndChar

StartChar: threequarters
Encoding: 190 190 310
Width: 1716
VWidth: 0
GlyphClass: 2
Flags: W
PickledData: "(dp1
S'org.pippin.gimp.org.kernagic'
p2
(dp3
S'lstem'
p4
I0
ss."
HStem: 34 110<1001 1389 1534 1685> 540 132<5.1131 368.08> 1541 136<-6.14125 367.504>
VStem: 421 154<1276.11 1489.32> 440 166<743.034 978.393> 1389 145<-227 34 145 703>
LayerCount: 2
Fore
SplineSet
1001 144 m 1xe4
 1389 144 l 1
 1389 703 l 1
 1273 510 1135 325 1001 144 c 1xe4
357 -123 m 1
 237 -30 l 1
 1267 1365 l 1
 1398 1272 l 1
 357 -123 l 1
1389 -250 m 1
 1389 34 l 1
 864 34 l 1
 842 144 l 1
 1406 946 l 1
 1534 915 l 1
 1534 145 l 1
 1685 145 l 1
 1685 34 l 1
 1534 34 l 1
 1534 -227 l 1
 1389 -250 l 1
217 540 m 0
 103 540 -5 566 -106 618 c 1
 -55 745 l 1
 27 701 122 672 220 672 c 0
 328 672 440 733 440 853 c 0xec
 440 1005 309 1057 178 1072 c 1
 178 1207 l 1
 285 1207 421 1255 421 1383 c 0
 421 1511 304 1541 197 1541 c 0
 117 1541 35 1520 -32 1484 c 1
 -79 1611 l 1
 0 1652 110 1677 202 1677 c 0
 379 1677 575 1601 575 1394 c 0xf4
 575 1263 464 1143 330 1142 c 1
 489 1111 606 1006 606 835 c 0xec
 606 628 395 540 217 540 c 0
EndSplineSet
Validated: 1
EndChar

StartChar: tilde
Encoding: 732 732 311
Width: 1044
VWidth: 0
GlyphClass: 2
Flags: W
PickledData: "(dp1
S'org.pippin.gimp.org.kernagic'
p2
(dp3
S'lstem'
p4
I0
ss."
HStem: 390 139<563.373 733.107> 509 145<303.654 472.707>
VStem: 139 156<394 503.847> 743 156<534.584 640>
LayerCount: 2
Fore
SplineSet
707 390 m 0xb0
 561 390 429 509 354 509 c 0
 296 509 295 436 295 394 c 1
 139 394 l 1
 139 531 183 654 340 654 c 0x70
 485 654 582 529 684 529 c 0
 738 529 743 601 743 640 c 1
 899 640 l 1
 899 521 844 390 707 390 c 0xb0
EndSplineSet
Validated: 1
EndChar

StartChar: trademark
Encoding: 8482 8482 312
Width: 1536
VWidth: 0
GlyphClass: 2
Flags: W
PickledData: "(dp1
S'org.pippin.gimp.org.kernagic'
p2
(dp3
S'lstem'
p4
I0
ss."
HStem: 1310 103<-11 194 329 538>
VStem: 194 135<624 1310> 648 128<624 1288> 1347 127<624 1288>
LayerCount: 2
Fore
SplineSet
194 624 m 1
 194 1310 l 1
 -11 1310 l 1
 -11 1413 l 1
 538 1413 l 1
 538 1310 l 1
 329 1310 l 1
 329 624 l 1
 194 624 l 1
648 624 m 1
 648 1413 l 1
 877 1413 l 1
 1061 758 l 1
 1245 1413 l 1
 1474 1413 l 1
 1474 624 l 1
 1347 624 l 1
 1347 1288 l 1
 1150 624 l 1
 972 624 l 1
 776 1288 l 1
 776 624 l 1
 648 624 l 1
EndSplineSet
Validated: 1
EndChar

StartChar: two
Encoding: 50 50 313
Width: 1056
VWidth: 0
GlyphClass: 2
Flags: W
PickledData: "(dp1
S'org.pippin.gimp.org.kernagic'
p2
(dp3
S'lstem'
p4
I0
ss."
HStem: 0 152<324 920> 1059 139<269.477 667.67>
VStem: 758 162<692.937 973.616>
LayerCount: 2
Fore
SplineSet
324 152 m 1
 920 152 l 1
 920 0 l 1
 105 0 l 1
 105 146 l 1
 513 480 l 2
 631 577 758 682 758 846 c 0
 758 1007 622 1059 482 1059 c 0
 395 1059 295 1030 217 992 c 1
 164 1108 l 1
 264 1178 383 1198 504 1198 c 0
 738 1198 920 1098 920 845 c 0
 920 546 515 306 324 152 c 1
EndSplineSet
Validated: 1
EndChar

StartChar: u
Encoding: 117 117 314
Width: 1260
VWidth: 0
GlyphClass: 2
Flags: W
PickledData: "(dp1
S'org.pippin.gimp.org.kernagic'
p2
(dp3
S'lstem'
p4
I0
ssS'com.typemytype.robofont.layerData'
p5
(dp6
s."
HStem: -20 137<425.579 737.53> 0 21G<950.842 1095> 1149 20G<146 336 905 1095>
VStem: 146 190<217.25 1169> 906 189<235.96 1169> 954 141<0 90.7947>
LayerCount: 2
Fore
SplineSet
546 -20 m 1xb4
 264 -20 146 165 146 442 c 2
 146 1169 l 1
 336 1169 l 1
 336 442 l 2
 336 276 373 117 561 117 c 0
 693 117 811 179 906 274 c 1
 905 1169 l 1
 1095 1169 l 1xb8
 1095 0 l 1
 954 0 l 1x74
 927 171 l 1
 857 86 722 -18 546 -20 c 1xb4
EndSplineSet
Validated: 1
EndChar

StartChar: underscore
Encoding: 95 95 322
Width: 1176
VWidth: 0
GlyphClass: 2
Flags: W
PickledData: "(dp1
S'org.pippin.gimp.org.kernagic'
p2
(dp3
S'lstem'
p4
I0
ss."
HStem: -111 144<118 1058>
LayerCount: 2
Fore
SplineSet
118 -111 m 1
 118 33 l 1
 1058 33 l 1
 1058 -111 l 1
 118 -111 l 1
EndSplineSet
Validated: 1
EndChar

StartChar: uni00AD
Encoding: 173 173 325
Width: 852
VWidth: 0
GlyphClass: 2
Flags: W
PickledData: "(dp1
S'org.pippin.gimp.org.kernagic'
p2
(dp3
S'lstem'
p4
I0
ss."
HStem: 508 131<187 655>
VStem: 187 468<508 639>
LayerCount: 2
Fore
SplineSet
187 508 m 1
 187 639 l 1
 655 639 l 1
 655 508 l 1
 187 508 l 1
EndSplineSet
Validated: 1
EndChar

StartChar: uni00B2
Encoding: 178 178 326
Width: 936
VWidth: 0
GlyphClass: 2
Flags: W
PickledData: "(dp1
S'org.pippin.gimp.org.kernagic'
p2
(dp3
S'lstem'
p4
I0
ss."
HStem: 668 152<371 777> 1495 143<182.792 590.323>
VStem: 633 172<1236.68 1450.3>
LayerCount: 2
Fore
SplineSet
633 1354 m 0
 633 1460 534 1495 444 1495 c 0
 348 1495 248 1468 156 1443 c 1
 156 1588 l 1
 253 1625 359 1638 462 1638 c 0
 637 1638 805 1551 805 1357 c 0
 805 1129 530 957 371 820 c 1
 777 820 l 1
 777 668 l 1
 139 668 l 1
 139 805 l 1
 254 908 633 1182 633 1354 c 0
EndSplineSet
Validated: 1
EndChar

StartChar: uni00B3
Encoding: 179 179 327
Width: 996
VWidth: 0
GlyphClass: 2
Flags: W
PickledData: "(dp1
S'org.pippin.gimp.org.kernagic'
p2
(dp3
S'lstem'
p4
I0
ss."
HStem: 540 132<252.921 618.08> 1541 136<241.038 617.504>
VStem: 671 154<1276.11 1489.32> 690 166<743.034 978.393>
LayerCount: 2
Fore
SplineSet
467 540 m 0xd0
 369 540 222 564 139 618 c 1
 190 745 l 1
 277 701 372 672 470 672 c 0
 578 672 690 733 690 853 c 0xd0
 690 1005 559 1057 428 1072 c 1
 428 1207 l 1
 535 1207 671 1255 671 1383 c 0
 671 1511 554 1541 447 1541 c 0
 367 1541 285 1520 213 1484 c 1
 166 1611 l 1
 249 1652 360 1677 452 1677 c 0
 629 1677 825 1601 825 1394 c 0xe0
 825 1263 714 1143 580 1142 c 1
 739 1111 856 1006 856 835 c 0
 856 628 645 540 467 540 c 0xd0
EndSplineSet
Validated: 1
EndChar

StartChar: uni00B9
Encoding: 185 185 328
Width: 852
VWidth: 0
GlyphClass: 2
Flags: W
PickledData: "(dp1
S'org.pippin.gimp.org.kernagic'
p2
(dp3
S'lstem'
p4
I0
ss."
VStem: 471 169<478 1304>
LayerCount: 2
Fore
SplineSet
471 478 m 1
 471 1304 l 1
 300 1232 l 1
 263 1345 l 1
 500 1440 l 1
 640 1414 l 1
 640 478 l 1
 471 478 l 1
EndSplineSet
Validated: 1
EndChar

StartChar: uni0237
Encoding: 567 567 369
Width: 924
VWidth: 0
GlyphClass: 2
Flags: W
PickledData: "(dp1
S'org.pippin.gimp.org.kernagic'
p2
(dp3
S'lstem'
p4
I0
ss."
HStem: 1149 20G<487 677>
VStem: 487 190<-95.0117 1169>
LayerCount: 2
Fore
SplineSet
346 -373 m 1
 299 -258 l 1
 473 -147 487 -14 487 176 c 2
 487 1169 l 1
 677 1169 l 1
 677 154 l 2
 677 -68 584 -315 346 -373 c 1
EndSplineSet
Validated: 1
EndChar

StartChar: uni0307
Encoding: 775 775 370
Width: 660
VWidth: 0
GlyphClass: 2
Flags: W
PickledData: "(dp1
S'org.pippin.gimp.org.kernagic'
p2
(dp3
S'lstem'
p4
I0
ss."
HStem: -17 230<238.535 413.618>
VStem: 215 220<6.29114 189.709>
LayerCount: 2
Fore
SplineSet
327 -17 m 0
 263 -17 215 35 215 98 c 0
 215 160 264 213 327 213 c 0
 392 213 435 160 435 98 c 0
 435 36 392 -17 327 -17 c 0
EndSplineSet
Validated: 1
EndChar

StartChar: uni030F
Encoding: 783 783 371
Width: 960
VWidth: 0
GlyphClass: 2
Flags: W
PickledData: "(dp1
S'org.pippin.gimp.org.kernagic'
p2
(dp3
S'lstem'
p4
I0
ss."
HStem: 328 637
LayerCount: 2
Fore
SplineSet
773 328 m 1
 439 874 l 1
 671 965 l 1
 830 354 l 1
 773 328 l 1
439 328 m 1
 105 874 l 1
 337 965 l 1
 496 354 l 1
 439 328 l 1
EndSplineSet
Validated: 1
EndChar

StartChar: uni0311
Encoding: 785 785 372
Width: 852
VWidth: 0
GlyphClass: 2
Flags: W
PickledData: "(dp1
S'org.pippin.gimp.org.kernagic'
p2
(dp3
S'lstem'
p4
I0
ss."
HStem: 1048 91<320.068 523.993>
VStem: 180 97<899 1006.3> 563 97<899 1009.19>
LayerCount: 2
Fore
SplineSet
180 899 m 1
 180 1039 285 1139 424 1139 c 0
 561 1139 660 1035 660 899 c 1
 563 899 l 1
 563 981 506 1048 422 1048 c 0
 339 1048 277 980 277 899 c 1
 180 899 l 1
EndSplineSet
Validated: 1
EndChar

StartChar: uni0326
Encoding: 806 806 373
Width: 720
VWidth: 0
GlyphClass: 2
Flags: W
PickledData: "(dp1
S'org.pippin.gimp.org.kernagic'
p2
(dp3
S'lstem'
p4
I0
ss."
HStem: -659 94<307.222 348.056>
VStem: 263 281<-403.91 -113> 394 150<-517.85 -406>
LayerCount: 2
Fore
SplineSet
315 -659 m 1xc0
 264 -565 l 1
 349 -536 395 -501 394 -406 c 1xa0
 263 -406 l 1
 263 -113 l 1
 544 -113 l 1
 544 -362 l 2
 544 -516 461 -617 315 -659 c 1xc0
EndSplineSet
Validated: 33
EndChar

StartChar: uni203E
Encoding: 8254 8254 374
Width: 1008
VWidth: 0
GlyphClass: 2
Flags: W
PickledData: "(dp1
S'org.pippin.gimp.org.kernagic'
p2
(dp3
S'lstem'
p4
I0
ss."
HStem: 122 117<160 842>
LayerCount: 2
Fore
SplineSet
160 122 m 1
 160 239 l 1
 842 239 l 1
 842 122 l 1
 160 122 l 1
EndSplineSet
Validated: 1
EndChar

StartChar: uni2074
Encoding: 8308 8308 375
Width: 1020
VWidth: 0
GlyphClass: 2
Flags: W
PickledData: "(dp1
S'org.pippin.gimp.org.kernagic'
p2
(dp3
S'lstem'
p4
I0
ss."
HStem: 726 110<264 652 797 948>
VStem: 652 145<466 726 838 1396>
LayerCount: 2
Fore
SplineSet
264 836 m 1
 652 836 l 1
 652 1396 l 1
 525 1208 396 1021 264 836 c 1
652 442 m 1
 652 726 l 1
 127 726 l 1
 105 836 l 1
 669 1638 l 1
 797 1608 l 1
 797 838 l 1
 948 838 l 1
 948 726 l 1
 797 726 l 1
 797 466 l 1
 652 442 l 1
EndSplineSet
Validated: 1
EndChar

StartChar: uni2206
Encoding: 8710 8710 376
Width: 1092
VWidth: 0
GlyphClass: 2
Flags: W
PickledData: "(dp1
S'org.pippin.gimp.org.kernagic'
p2
(dp3
S'lstem'
p4
I0
ss."
HStem: 143 110<256 836> 1306 20G<537.953 554.047>
LayerCount: 2
Fore
SplineSet
70 143 m 1
 546 1326 l 1
 1022 143 l 1
 70 143 l 1
256 253 m 1
 836 253 l 1
 546 1036 l 1
 256 253 l 1
EndSplineSet
Validated: 1
EndChar

StartChar: uniFB01
Encoding: 64257 64257 377
Width: 1236
VWidth: 0
GlyphClass: 3
Flags: W
PickledData: "(dp1
S'org.pippin.gimp.org.kernagic'
p2
(dp3
S'lstem'
p4
I0
ss."
HStem: 0 21G<203 393 892 1074> 1064 105<8 203 393 892> 1347 230<898.535 1073.62> 1516 143<430.152 676.931>
VStem: 203 190<0 1064 1169 1472.95> 875 220<1370.29 1553.71> 892 182<0 1064>
LayerCount: 2
Fore
SplineSet
987 1347 m 0xec
 923 1347 875 1399 875 1462 c 0
 875 1524 924 1577 987 1577 c 0
 1052 1577 1095 1524 1095 1462 c 0
 1095 1400 1052 1347 987 1347 c 0xec
203 0 m 1
 203 1064 l 1
 8 1064 l 1
 8 1169 l 1
 203 1169 l 1
 203 1421 230 1659 534 1659 c 0
 615 1659 711 1615 776 1567 c 1
 713 1442 l 1
 671 1480 617 1516 558 1516 c 0
 411 1516 388 1430 388 1324 c 0
 388 1275 393 1221 393 1169 c 1
 1074 1169 l 1
 1074 0 l 1
 892 0 l 1
 892 1064 l 1xda
 393 1064 l 1
 393 0 l 1
 203 0 l 1
EndSplineSet
Validated: 1
Ligature2: "ligaStandardLigatureslookup0 subtable" f i
EndChar

StartChar: uniFB02
Encoding: 64258 64258 378
Width: 1260
VWidth: 0
GlyphClass: 3
Flags: W
PickledData: "(dp1
S'org.pippin.gimp.org.kernagic'
p2
(dp3
S'lstem'
p4
I0
ss."
HStem: 0 21G<203 393 894 1084> 1064 105<8 203 393 741> 1514 143<478.165 890.931>
VStem: 203 190<0 1064 1169 1419.03> 894 190<0 1504.5>
LayerCount: 2
Fore
SplineSet
203 0 m 1
 203 1064 l 1
 8 1064 l 1
 8 1169 l 1
 203 1169 l 1
 203 1553 386 1657 671 1657 c 0
 792 1657 932 1638 1084 1614 c 1
 1084 0 l 1
 894 0 l 1
 894 1501 l 1
 806 1508 732 1514 671 1514 c 0
 457 1514 393 1448 393 1169 c 1
 741 1169 l 1
 741 1064 l 1
 393 1064 l 1
 393 0 l 1
 203 0 l 1
EndSplineSet
Validated: 1
Ligature2: "ligaStandardLigatureslookup0 subtable" f l
EndChar

StartChar: v
Encoding: 118 118 382
Width: 1152
VWidth: 0
GlyphClass: 2
Flags: W
PickledData: "(dp1
S'org.pippin.gimp.org.kernagic'
p2
(dp3
S'lstem'
p4
I0
ssS'com.typemytype.robofont.layerData'
p5
(dp6
s."
HStem: 0 21G<478.763 674.066> 1149 20G<63 252.64 888.738 1080>
LayerCount: 2
Fore
SplineSet
486 0 m 1
 63 1169 l 1
 246 1169 l 1
 580 163 l 1
 895 1169 l 1
 1080 1169 l 1
 667 0 l 1
 486 0 l 1
EndSplineSet
Validated: 1
EndChar

StartChar: w
Encoding: 119 119 383
Width: 1608
VWidth: 0
GlyphClass: 2
Flags: W
PickledData: "(dp1
S'org.pippin.gimp.org.kernagic'
p2
(dp3
S'lstem'
p4
I0
ssS'com.typemytype.robofont.layerData'
p5
(dp6
s."
HStem: 0 21G<337.508 544.244 1062.7 1270.37> 1149 20G<22 200.887 695.936 908.29 1395.52 1579>
LayerCount: 2
Fore
SplineSet
343 0 m 1
 22 1169 l 1
 196 1169 l 1
 444 154 l 1
 701 1169 l 1
 903 1169 l 1
 1172 152 l 1
 1400 1169 l 1
 1579 1169 l 1
 1265 0 l 1
 1068 0 l 1
 802 1003 l 1
 539 0 l 1
 343 0 l 1
EndSplineSet
Validated: 1
EndChar

StartChar: x
Encoding: 120 120 384
Width: 1116
VWidth: 0
GlyphClass: 2
Flags: W
PickledData: "(dp1
S'org.pippin.gimp.org.kernagic'
p2
(dp3
S'lstem'
p4
I0
ssS'com.typemytype.robofont.layerData'
p5
(dp6
s."
HStem: 0 21G<69 274.719 833.709 1037> 1149 20G<63 268.998 838.915 1044>
LayerCount: 2
Fore
SplineSet
69 0 m 1
 459 584 l 1
 63 1169 l 1
 256 1169 l 1
 553 712 l 1
 852 1169 l 1
 1044 1169 l 1
 653 584 l 1
 1037 0 l 1
 846 0 l 1
 559 467 l 1
 262 0 l 1
 69 0 l 1
EndSplineSet
Validated: 1
EndChar

StartChar: y
Encoding: 121 121 385
Width: 1152
VWidth: 0
GlyphClass: 2
Flags: W
PickledData: "(dp1
S'org.pippin.gimp.org.kernagic'
p2
(dp3
S'lstem'
p4
I0
ssS'com.typemytype.robofont.layerData'
p5
(dp6
s."
HStem: -439 137<218 342.314> 1149 20G<56 245.482 887.656 1089>
LayerCount: 2
Fore
SplineSet
218 -439 m 1
 171 -302 l 1
 396 -290 445 -186 507 23 c 1
 56 1169 l 1
 238 1169 l 1
 593 220 l 1
 894 1169 l 1
 1089 1169 l 1
 652 -37 l 2
 572 -259 495 -439 218 -439 c 1
EndSplineSet
Validated: 1
EndChar

StartChar: yen
Encoding: 165 165 388
Width: 1200
VWidth: 0
GlyphClass: 2
Flags: W
PickledData: "(dp1
S'org.pippin.gimp.org.kernagic'
p2
(dp3
S'lstem'
p4
I0
ss."
HStem: 0 21G<502 692> 389 99<200 502 692 988> 584 104<200 461 725 988> 1559 20G<-17 182.619 1001.38 1206>
VStem: 502 190<0 389 488 584>
LayerCount: 2
Fore
SplineSet
502 0 m 1
 502 389 l 1
 200 389 l 1
 200 488 l 1
 502 488 l 1
 502 584 l 1
 200 584 l 1
 200 688 l 1
 461 688 l 1
 -17 1579 l 1
 172 1579 l 1
 592 788 l 1
 1012 1579 l 1
 1206 1579 l 1
 725 688 l 1
 988 688 l 1
 988 584 l 1
 692 584 l 1
 692 488 l 1
 988 488 l 1
 988 389 l 1
 692 389 l 1
 692 0 l 1
 502 0 l 1
EndSplineSet
Validated: 1
EndChar

StartChar: z
Encoding: 122 122 389
Width: 1032
VWidth: 0
GlyphClass: 2
Flags: W
PickledData: "(dp1
S'org.pippin.gimp.org.kernagic'
p2
(dp3
S'lstem'
p4
I0
ssS'com.typemytype.robofont.layerData'
p5
(dp6
s."
HStem: 0 145<294 896> 1029 140<148 732>
LayerCount: 2
Fore
SplineSet
118 0 m 1
 118 166 l 1
 732 1029 l 1
 148 1029 l 1
 148 1169 l 1
 896 1169 l 1
 896 1004 l 1
 294 145 l 1
 896 145 l 1
 896 0 l 1
 118 0 l 1
EndSplineSet
Validated: 1
EndChar

StartChar: zero
Encoding: 48 48 393
Width: 1356
VWidth: 0
GlyphClass: 2
Flags: W
PickledData: "(dp1
S'org.pippin.gimp.org.kernagic'
p2
(dp3
S'lstem'
p4
I0
ss."
HStem: -31 142<483.058 860.404> 1069 141<480.899 861.328>
VStem: 105 186<335.074 852.554> 1057 186<333.277 851.37>
LayerCount: 2
Fore
SplineSet
672 -31 m 0
 305 -31 105 244 105 590 c 0
 105 945 298 1210 672 1210 c 0
 1044 1210 1243 942 1243 590 c 0
 1243 238 1042 -31 672 -31 c 0
672 111 m 0
 972 111 1057 348 1057 606 c 0
 1057 857 953 1069 672 1069 c 0
 382 1069 291 846 291 592 c 0
 291 336 386 111 672 111 c 0
EndSplineSet
Validated: 1
EndChar

